ISO-10303-21;
HEADER;
/* Generated by software containing ST-Developer
 * from STEP Tools, Inc. (www.steptools.com) 
 */

FILE_DESCRIPTION(
/* description */ (''),
/* implementation_level */ '2;1');

FILE_NAME(
/* name */ 'backwall.stp',
/* time_stamp */ '2024-10-27T21:08:22-04:00',
/* author */ ('Windows 7 was better'),
/* organization */ (''),
/* preprocessor_version */ 'ST-DEVELOPER v20',
/* originating_system */ 'Autodesk Inventor 2025',
/* authorisation */ '');

FILE_SCHEMA (('AUTOMOTIVE_DESIGN { 1 0 10303 214 3 1 1 }'));
ENDSEC;

DATA;
#10=MECHANICAL_DESIGN_GEOMETRIC_PRESENTATION_REPRESENTATION('',(#13),#1196);
#11=SHAPE_REPRESENTATION_RELATIONSHIP('SRR','None',#1203,#12);
#12=ADVANCED_BREP_SHAPE_REPRESENTATION('',(#14),#1195);
#13=STYLED_ITEM('',(#1212),#14);
#14=MANIFOLD_SOLID_BREP('Solid1',#734);
#15=FACE_BOUND('',#103,.T.);
#16=FACE_BOUND('',#104,.T.);
#17=FACE_BOUND('',#105,.T.);
#18=FACE_BOUND('',#106,.T.);
#19=FACE_BOUND('',#116,.T.);
#20=FACE_BOUND('',#117,.T.);
#21=FACE_BOUND('',#123,.T.);
#22=FACE_BOUND('',#124,.T.);
#23=FACE_BOUND('',#125,.T.);
#24=FACE_BOUND('',#126,.T.);
#25=FACE_BOUND('',#127,.T.);
#26=CIRCLE('',#771,1.6);
#27=CIRCLE('',#772,1.6);
#28=CIRCLE('',#774,1.6);
#29=CIRCLE('',#775,1.6);
#30=CIRCLE('',#785,3.1);
#31=CIRCLE('',#786,1.6);
#32=CIRCLE('',#787,1.6);
#33=CIRCLE('',#790,1.6);
#34=CIRCLE('',#792,1.6);
#35=CIRCLE('',#794,3.1);
#36=CYLINDRICAL_SURFACE('',#770,1.6);
#37=CYLINDRICAL_SURFACE('',#773,1.6);
#38=CYLINDRICAL_SURFACE('',#789,1.6);
#39=CYLINDRICAL_SURFACE('',#791,1.6);
#40=CYLINDRICAL_SURFACE('',#793,3.1);
#41=FACE_OUTER_BOUND('',#79,.T.);
#42=FACE_OUTER_BOUND('',#80,.T.);
#43=FACE_OUTER_BOUND('',#81,.T.);
#44=FACE_OUTER_BOUND('',#82,.T.);
#45=FACE_OUTER_BOUND('',#83,.T.);
#46=FACE_OUTER_BOUND('',#84,.T.);
#47=FACE_OUTER_BOUND('',#85,.T.);
#48=FACE_OUTER_BOUND('',#86,.T.);
#49=FACE_OUTER_BOUND('',#87,.T.);
#50=FACE_OUTER_BOUND('',#88,.T.);
#51=FACE_OUTER_BOUND('',#89,.T.);
#52=FACE_OUTER_BOUND('',#90,.T.);
#53=FACE_OUTER_BOUND('',#91,.T.);
#54=FACE_OUTER_BOUND('',#92,.T.);
#55=FACE_OUTER_BOUND('',#93,.T.);
#56=FACE_OUTER_BOUND('',#94,.T.);
#57=FACE_OUTER_BOUND('',#95,.T.);
#58=FACE_OUTER_BOUND('',#96,.T.);
#59=FACE_OUTER_BOUND('',#97,.T.);
#60=FACE_OUTER_BOUND('',#98,.T.);
#61=FACE_OUTER_BOUND('',#99,.T.);
#62=FACE_OUTER_BOUND('',#100,.T.);
#63=FACE_OUTER_BOUND('',#101,.T.);
#64=FACE_OUTER_BOUND('',#102,.T.);
#65=FACE_OUTER_BOUND('',#107,.T.);
#66=FACE_OUTER_BOUND('',#108,.T.);
#67=FACE_OUTER_BOUND('',#109,.T.);
#68=FACE_OUTER_BOUND('',#110,.T.);
#69=FACE_OUTER_BOUND('',#111,.T.);
#70=FACE_OUTER_BOUND('',#112,.T.);
#71=FACE_OUTER_BOUND('',#113,.T.);
#72=FACE_OUTER_BOUND('',#114,.T.);
#73=FACE_OUTER_BOUND('',#115,.T.);
#74=FACE_OUTER_BOUND('',#118,.T.);
#75=FACE_OUTER_BOUND('',#119,.T.);
#76=FACE_OUTER_BOUND('',#120,.T.);
#77=FACE_OUTER_BOUND('',#121,.T.);
#78=FACE_OUTER_BOUND('',#122,.T.);
#79=EDGE_LOOP('',(#467,#468,#469,#470));
#80=EDGE_LOOP('',(#471,#472,#473,#474));
#81=EDGE_LOOP('',(#475,#476,#477,#478));
#82=EDGE_LOOP('',(#479,#480,#481,#482));
#83=EDGE_LOOP('',(#483,#484,#485,#486));
#84=EDGE_LOOP('',(#487,#488,#489,#490));
#85=EDGE_LOOP('',(#491,#492,#493,#494));
#86=EDGE_LOOP('',(#495,#496,#497,#498));
#87=EDGE_LOOP('',(#499,#500,#501,#502));
#88=EDGE_LOOP('',(#503,#504,#505,#506));
#89=EDGE_LOOP('',(#507,#508,#509,#510,#511));
#90=EDGE_LOOP('',(#512,#513,#514,#515,#516));
#91=EDGE_LOOP('',(#517,#518,#519,#520));
#92=EDGE_LOOP('',(#521,#522,#523,#524));
#93=EDGE_LOOP('',(#525,#526,#527,#528));
#94=EDGE_LOOP('',(#529,#530,#531,#532,#533,#534,#535,#536));
#95=EDGE_LOOP('',(#537));
#96=EDGE_LOOP('',(#538));
#97=EDGE_LOOP('',(#539,#540,#541,#542));
#98=EDGE_LOOP('',(#543,#544,#545,#546));
#99=EDGE_LOOP('',(#547,#548,#549,#550));
#100=EDGE_LOOP('',(#551,#552,#553,#554));
#101=EDGE_LOOP('',(#555,#556,#557,#558,#559));
#102=EDGE_LOOP('',(#560,#561,#562,#563,#564,#565,#566,#567,#568,#569,#570));
#103=EDGE_LOOP('',(#571,#572,#573,#574));
#104=EDGE_LOOP('',(#575));
#105=EDGE_LOOP('',(#576));
#106=EDGE_LOOP('',(#577));
#107=EDGE_LOOP('',(#578,#579,#580,#581,#582,#583,#584,#585));
#108=EDGE_LOOP('',(#586,#587,#588,#589));
#109=EDGE_LOOP('',(#590,#591,#592,#593));
#110=EDGE_LOOP('',(#594,#595,#596,#597));
#111=EDGE_LOOP('',(#598,#599,#600,#601));
#112=EDGE_LOOP('',(#602,#603,#604,#605));
#113=EDGE_LOOP('',(#606,#607,#608,#609));
#114=EDGE_LOOP('',(#610,#611,#612,#613));
#115=EDGE_LOOP('',(#614,#615,#616,#617,#618,#619,#620,#621));
#116=EDGE_LOOP('',(#622));
#117=EDGE_LOOP('',(#623));
#118=EDGE_LOOP('',(#624,#625,#626,#627,#628,#629));
#119=EDGE_LOOP('',(#630,#631,#632,#633));
#120=EDGE_LOOP('',(#634,#635,#636,#637));
#121=EDGE_LOOP('',(#638,#639,#640,#641));
#122=EDGE_LOOP('',(#642,#643,#644,#645,#646,#647));
#123=EDGE_LOOP('',(#648,#649,#650,#651));
#124=EDGE_LOOP('',(#652));
#125=EDGE_LOOP('',(#653));
#126=EDGE_LOOP('',(#654,#655,#656,#657,#658,#659,#660,#661));
#127=EDGE_LOOP('',(#662));
#128=LINE('',#995,#216);
#129=LINE('',#997,#217);
#130=LINE('',#999,#218);
#131=LINE('',#1000,#219);
#132=LINE('',#1003,#220);
#133=LINE('',#1005,#221);
#134=LINE('',#1006,#222);
#135=LINE('',#1009,#223);
#136=LINE('',#1011,#224);
#137=LINE('',#1012,#225);
#138=LINE('',#1015,#226);
#139=LINE('',#1017,#227);
#140=LINE('',#1018,#228);
#141=LINE('',#1022,#229);
#142=LINE('',#1024,#230);
#143=LINE('',#1026,#231);
#144=LINE('',#1027,#232);
#145=LINE('',#1029,#233);
#146=LINE('',#1030,#234);
#147=LINE('',#1033,#235);
#148=LINE('',#1035,#236);
#149=LINE('',#1036,#237);
#150=LINE('',#1038,#238);
#151=LINE('',#1039,#239);
#152=LINE('',#1043,#240);
#153=LINE('',#1045,#241);
#154=LINE('',#1047,#242);
#155=LINE('',#1048,#243);
#156=LINE('',#1051,#244);
#157=LINE('',#1053,#245);
#158=LINE('',#1054,#246);
#159=LINE('',#1057,#247);
#160=LINE('',#1059,#248);
#161=LINE('',#1060,#249);
#162=LINE('',#1063,#250);
#163=LINE('',#1065,#251);
#164=LINE('',#1066,#252);
#165=LINE('',#1068,#253);
#166=LINE('',#1069,#254);
#167=LINE('',#1074,#255);
#168=LINE('',#1080,#256);
#169=LINE('',#1088,#257);
#170=LINE('',#1090,#258);
#171=LINE('',#1092,#259);
#172=LINE('',#1093,#260);
#173=LINE('',#1097,#261);
#174=LINE('',#1098,#262);
#175=LINE('',#1099,#263);
#176=LINE('',#1103,#264);
#177=LINE('',#1105,#265);
#178=LINE('',#1107,#266);
#179=LINE('',#1108,#267);
#180=LINE('',#1112,#268);
#181=LINE('',#1113,#269);
#182=LINE('',#1114,#270);
#183=LINE('',#1118,#271);
#184=LINE('',#1119,#272);
#185=LINE('',#1121,#273);
#186=LINE('',#1122,#274);
#187=LINE('',#1125,#275);
#188=LINE('',#1127,#276);
#189=LINE('',#1129,#277);
#190=LINE('',#1130,#278);
#191=LINE('',#1132,#279);
#192=LINE('',#1133,#280);
#193=LINE('',#1142,#281);
#194=LINE('',#1144,#282);
#195=LINE('',#1146,#283);
#196=LINE('',#1148,#284);
#197=LINE('',#1150,#285);
#198=LINE('',#1151,#286);
#199=LINE('',#1155,#287);
#200=LINE('',#1159,#288);
#201=LINE('',#1162,#289);
#202=LINE('',#1166,#290);
#203=LINE('',#1168,#291);
#204=LINE('',#1169,#292);
#205=LINE('',#1172,#293);
#206=LINE('',#1173,#294);
#207=LINE('',#1175,#295);
#208=LINE('',#1178,#296);
#209=LINE('',#1180,#297);
#210=LINE('',#1181,#298);
#211=LINE('',#1183,#299);
#212=LINE('',#1185,#300);
#213=LINE('',#1187,#301);
#214=LINE('',#1189,#302);
#215=LINE('',#1191,#303);
#216=VECTOR('',#809,10.);
#217=VECTOR('',#810,10.);
#218=VECTOR('',#811,10.);
#219=VECTOR('',#812,10.);
#220=VECTOR('',#815,10.);
#221=VECTOR('',#816,10.);
#222=VECTOR('',#817,10.);
#223=VECTOR('',#820,10.);
#224=VECTOR('',#821,10.);
#225=VECTOR('',#822,10.);
#226=VECTOR('',#825,10.);
#227=VECTOR('',#826,10.);
#228=VECTOR('',#827,10.);
#229=VECTOR('',#830,10.);
#230=VECTOR('',#831,10.);
#231=VECTOR('',#832,10.);
#232=VECTOR('',#833,10.);
#233=VECTOR('',#836,10.);
#234=VECTOR('',#837,10.);
#235=VECTOR('',#840,10.);
#236=VECTOR('',#841,10.);
#237=VECTOR('',#842,10.);
#238=VECTOR('',#845,10.);
#239=VECTOR('',#846,10.);
#240=VECTOR('',#849,10.);
#241=VECTOR('',#850,10.);
#242=VECTOR('',#851,10.);
#243=VECTOR('',#852,10.);
#244=VECTOR('',#855,10.);
#245=VECTOR('',#856,10.);
#246=VECTOR('',#857,10.);
#247=VECTOR('',#860,10.);
#248=VECTOR('',#861,10.);
#249=VECTOR('',#862,10.);
#250=VECTOR('',#865,10.);
#251=VECTOR('',#866,10.);
#252=VECTOR('',#867,10.);
#253=VECTOR('',#870,10.);
#254=VECTOR('',#871,10.);
#255=VECTOR('',#876,1.6);
#256=VECTOR('',#883,1.6);
#257=VECTOR('',#894,10.);
#258=VECTOR('',#895,10.);
#259=VECTOR('',#896,10.);
#260=VECTOR('',#897,10.);
#261=VECTOR('',#900,10.);
#262=VECTOR('',#901,10.);
#263=VECTOR('',#902,10.);
#264=VECTOR('',#905,10.);
#265=VECTOR('',#906,10.);
#266=VECTOR('',#907,10.);
#267=VECTOR('',#908,10.);
#268=VECTOR('',#911,10.);
#269=VECTOR('',#912,10.);
#270=VECTOR('',#913,10.);
#271=VECTOR('',#916,10.);
#272=VECTOR('',#917,10.);
#273=VECTOR('',#918,10.);
#274=VECTOR('',#919,10.);
#275=VECTOR('',#922,10.);
#276=VECTOR('',#923,10.);
#277=VECTOR('',#924,10.);
#278=VECTOR('',#925,10.);
#279=VECTOR('',#926,10.);
#280=VECTOR('',#927,10.);
#281=VECTOR('',#936,10.);
#282=VECTOR('',#937,10.);
#283=VECTOR('',#938,10.);
#284=VECTOR('',#939,10.);
#285=VECTOR('',#940,10.);
#286=VECTOR('',#941,10.);
#287=VECTOR('',#946,1.6);
#288=VECTOR('',#951,1.6);
#289=VECTOR('',#954,3.1);
#290=VECTOR('',#959,10.);
#291=VECTOR('',#960,10.);
#292=VECTOR('',#961,10.);
#293=VECTOR('',#964,10.);
#294=VECTOR('',#965,10.);
#295=VECTOR('',#968,10.);
#296=VECTOR('',#971,10.);
#297=VECTOR('',#972,10.);
#298=VECTOR('',#973,10.);
#299=VECTOR('',#976,10.);
#300=VECTOR('',#979,10.);
#301=VECTOR('',#982,10.);
#302=VECTOR('',#985,10.);
#303=VECTOR('',#988,10.);
#304=VERTEX_POINT('',#993);
#305=VERTEX_POINT('',#994);
#306=VERTEX_POINT('',#996);
#307=VERTEX_POINT('',#998);
#308=VERTEX_POINT('',#1002);
#309=VERTEX_POINT('',#1004);
#310=VERTEX_POINT('',#1008);
#311=VERTEX_POINT('',#1010);
#312=VERTEX_POINT('',#1014);
#313=VERTEX_POINT('',#1016);
#314=VERTEX_POINT('',#1020);
#315=VERTEX_POINT('',#1021);
#316=VERTEX_POINT('',#1023);
#317=VERTEX_POINT('',#1025);
#318=VERTEX_POINT('',#1032);
#319=VERTEX_POINT('',#1034);
#320=VERTEX_POINT('',#1041);
#321=VERTEX_POINT('',#1042);
#322=VERTEX_POINT('',#1044);
#323=VERTEX_POINT('',#1046);
#324=VERTEX_POINT('',#1050);
#325=VERTEX_POINT('',#1052);
#326=VERTEX_POINT('',#1056);
#327=VERTEX_POINT('',#1058);
#328=VERTEX_POINT('',#1062);
#329=VERTEX_POINT('',#1064);
#330=VERTEX_POINT('',#1071);
#331=VERTEX_POINT('',#1073);
#332=VERTEX_POINT('',#1077);
#333=VERTEX_POINT('',#1079);
#334=VERTEX_POINT('',#1086);
#335=VERTEX_POINT('',#1087);
#336=VERTEX_POINT('',#1089);
#337=VERTEX_POINT('',#1091);
#338=VERTEX_POINT('',#1095);
#339=VERTEX_POINT('',#1096);
#340=VERTEX_POINT('',#1101);
#341=VERTEX_POINT('',#1102);
#342=VERTEX_POINT('',#1104);
#343=VERTEX_POINT('',#1106);
#344=VERTEX_POINT('',#1110);
#345=VERTEX_POINT('',#1111);
#346=VERTEX_POINT('',#1116);
#347=VERTEX_POINT('',#1117);
#348=VERTEX_POINT('',#1120);
#349=VERTEX_POINT('',#1124);
#350=VERTEX_POINT('',#1126);
#351=VERTEX_POINT('',#1128);
#352=VERTEX_POINT('',#1131);
#353=VERTEX_POINT('',#1134);
#354=VERTEX_POINT('',#1136);
#355=VERTEX_POINT('',#1138);
#356=VERTEX_POINT('',#1141);
#357=VERTEX_POINT('',#1143);
#358=VERTEX_POINT('',#1145);
#359=VERTEX_POINT('',#1147);
#360=VERTEX_POINT('',#1149);
#361=VERTEX_POINT('',#1153);
#362=VERTEX_POINT('',#1157);
#363=VERTEX_POINT('',#1161);
#364=VERTEX_POINT('',#1165);
#365=VERTEX_POINT('',#1167);
#366=VERTEX_POINT('',#1171);
#367=VERTEX_POINT('',#1177);
#368=VERTEX_POINT('',#1179);
#369=EDGE_CURVE('',#304,#305,#128,.T.);
#370=EDGE_CURVE('',#304,#306,#129,.T.);
#371=EDGE_CURVE('',#306,#307,#130,.T.);
#372=EDGE_CURVE('',#307,#305,#131,.T.);
#373=EDGE_CURVE('',#308,#307,#132,.T.);
#374=EDGE_CURVE('',#309,#308,#133,.T.);
#375=EDGE_CURVE('',#309,#305,#134,.T.);
#376=EDGE_CURVE('',#309,#310,#135,.T.);
#377=EDGE_CURVE('',#308,#311,#136,.T.);
#378=EDGE_CURVE('',#311,#310,#137,.T.);
#379=EDGE_CURVE('',#312,#311,#138,.T.);
#380=EDGE_CURVE('',#313,#312,#139,.T.);
#381=EDGE_CURVE('',#313,#310,#140,.T.);
#382=EDGE_CURVE('',#314,#315,#141,.T.);
#383=EDGE_CURVE('',#314,#316,#142,.T.);
#384=EDGE_CURVE('',#316,#317,#143,.T.);
#385=EDGE_CURVE('',#317,#315,#144,.T.);
#386=EDGE_CURVE('',#304,#315,#145,.T.);
#387=EDGE_CURVE('',#306,#317,#146,.T.);
#388=EDGE_CURVE('',#313,#318,#147,.T.);
#389=EDGE_CURVE('',#312,#319,#148,.T.);
#390=EDGE_CURVE('',#319,#318,#149,.T.);
#391=EDGE_CURVE('',#314,#318,#150,.T.);
#392=EDGE_CURVE('',#316,#319,#151,.T.);
#393=EDGE_CURVE('',#320,#321,#152,.F.);
#394=EDGE_CURVE('',#321,#322,#153,.T.);
#395=EDGE_CURVE('',#322,#323,#154,.F.);
#396=EDGE_CURVE('',#323,#320,#155,.T.);
#397=EDGE_CURVE('',#324,#321,#156,.T.);
#398=EDGE_CURVE('',#325,#324,#157,.T.);
#399=EDGE_CURVE('',#325,#322,#158,.T.);
#400=EDGE_CURVE('',#326,#320,#159,.T.);
#401=EDGE_CURVE('',#327,#326,#160,.T.);
#402=EDGE_CURVE('',#324,#327,#161,.T.);
#403=EDGE_CURVE('',#323,#328,#162,.T.);
#404=EDGE_CURVE('',#329,#325,#163,.T.);
#405=EDGE_CURVE('',#329,#328,#164,.T.);
#406=EDGE_CURVE('',#328,#326,#165,.T.);
#407=EDGE_CURVE('',#327,#329,#166,.T.);
#408=EDGE_CURVE('',#330,#330,#26,.T.);
#409=EDGE_CURVE('',#330,#331,#167,.T.);
#410=EDGE_CURVE('',#331,#331,#27,.T.);
#411=EDGE_CURVE('',#332,#332,#28,.T.);
#412=EDGE_CURVE('',#332,#333,#168,.T.);
#413=EDGE_CURVE('',#333,#333,#29,.T.);
#414=EDGE_CURVE('',#334,#335,#169,.T.);
#415=EDGE_CURVE('',#336,#334,#170,.T.);
#416=EDGE_CURVE('',#337,#336,#171,.T.);
#417=EDGE_CURVE('',#335,#337,#172,.T.);
#418=EDGE_CURVE('',#338,#339,#173,.T.);
#419=EDGE_CURVE('',#334,#338,#174,.T.);
#420=EDGE_CURVE('',#339,#335,#175,.T.);
#421=EDGE_CURVE('',#340,#341,#176,.T.);
#422=EDGE_CURVE('',#342,#341,#177,.T.);
#423=EDGE_CURVE('',#343,#342,#178,.T.);
#424=EDGE_CURVE('',#343,#340,#179,.T.);
#425=EDGE_CURVE('',#344,#345,#180,.T.);
#426=EDGE_CURVE('',#341,#345,#181,.T.);
#427=EDGE_CURVE('',#340,#344,#182,.T.);
#428=EDGE_CURVE('',#346,#347,#183,.T.);
#429=EDGE_CURVE('',#345,#347,#184,.T.);
#430=EDGE_CURVE('',#344,#348,#185,.T.);
#431=EDGE_CURVE('',#348,#346,#186,.T.);
#432=EDGE_CURVE('',#347,#349,#187,.T.);
#433=EDGE_CURVE('',#349,#350,#188,.T.);
#434=EDGE_CURVE('',#350,#351,#189,.T.);
#435=EDGE_CURVE('',#351,#336,#190,.T.);
#436=EDGE_CURVE('',#338,#352,#191,.T.);
#437=EDGE_CURVE('',#352,#342,#192,.T.);
#438=EDGE_CURVE('',#353,#353,#30,.T.);
#439=EDGE_CURVE('',#354,#354,#31,.T.);
#440=EDGE_CURVE('',#355,#355,#32,.T.);
#441=EDGE_CURVE('',#356,#352,#193,.T.);
#442=EDGE_CURVE('',#357,#339,#194,.T.);
#443=EDGE_CURVE('',#358,#357,#195,.T.);
#444=EDGE_CURVE('',#358,#359,#196,.T.);
#445=EDGE_CURVE('',#360,#359,#197,.T.);
#446=EDGE_CURVE('',#360,#356,#198,.T.);
#447=EDGE_CURVE('',#361,#361,#33,.T.);
#448=EDGE_CURVE('',#361,#355,#199,.T.);
#449=EDGE_CURVE('',#362,#362,#34,.T.);
#450=EDGE_CURVE('',#362,#354,#200,.T.);
#451=EDGE_CURVE('',#353,#363,#201,.T.);
#452=EDGE_CURVE('',#363,#363,#35,.T.);
#453=EDGE_CURVE('',#351,#364,#202,.T.);
#454=EDGE_CURVE('',#350,#365,#203,.T.);
#455=EDGE_CURVE('',#364,#365,#204,.T.);
#456=EDGE_CURVE('',#349,#366,#205,.T.);
#457=EDGE_CURVE('',#365,#366,#206,.T.);
#458=EDGE_CURVE('',#337,#364,#207,.T.);
#459=EDGE_CURVE('',#367,#358,#208,.T.);
#460=EDGE_CURVE('',#368,#357,#209,.T.);
#461=EDGE_CURVE('',#367,#368,#210,.T.);
#462=EDGE_CURVE('',#366,#368,#211,.T.);
#463=EDGE_CURVE('',#346,#367,#212,.T.);
#464=EDGE_CURVE('',#346,#359,#213,.T.);
#465=EDGE_CURVE('',#356,#343,#214,.T.);
#466=EDGE_CURVE('',#348,#360,#215,.T.);
#467=ORIENTED_EDGE('',*,*,#369,.F.);
#468=ORIENTED_EDGE('',*,*,#370,.T.);
#469=ORIENTED_EDGE('',*,*,#371,.T.);
#470=ORIENTED_EDGE('',*,*,#372,.T.);
#471=ORIENTED_EDGE('',*,*,#372,.F.);
#472=ORIENTED_EDGE('',*,*,#373,.F.);
#473=ORIENTED_EDGE('',*,*,#374,.F.);
#474=ORIENTED_EDGE('',*,*,#375,.T.);
#475=ORIENTED_EDGE('',*,*,#376,.F.);
#476=ORIENTED_EDGE('',*,*,#374,.T.);
#477=ORIENTED_EDGE('',*,*,#377,.T.);
#478=ORIENTED_EDGE('',*,*,#378,.T.);
#479=ORIENTED_EDGE('',*,*,#378,.F.);
#480=ORIENTED_EDGE('',*,*,#379,.F.);
#481=ORIENTED_EDGE('',*,*,#380,.F.);
#482=ORIENTED_EDGE('',*,*,#381,.T.);
#483=ORIENTED_EDGE('',*,*,#382,.F.);
#484=ORIENTED_EDGE('',*,*,#383,.T.);
#485=ORIENTED_EDGE('',*,*,#384,.T.);
#486=ORIENTED_EDGE('',*,*,#385,.T.);
#487=ORIENTED_EDGE('',*,*,#370,.F.);
#488=ORIENTED_EDGE('',*,*,#386,.T.);
#489=ORIENTED_EDGE('',*,*,#385,.F.);
#490=ORIENTED_EDGE('',*,*,#387,.F.);
#491=ORIENTED_EDGE('',*,*,#388,.F.);
#492=ORIENTED_EDGE('',*,*,#380,.T.);
#493=ORIENTED_EDGE('',*,*,#389,.T.);
#494=ORIENTED_EDGE('',*,*,#390,.T.);
#495=ORIENTED_EDGE('',*,*,#383,.F.);
#496=ORIENTED_EDGE('',*,*,#391,.T.);
#497=ORIENTED_EDGE('',*,*,#390,.F.);
#498=ORIENTED_EDGE('',*,*,#392,.F.);
#499=ORIENTED_EDGE('',*,*,#393,.T.);
#500=ORIENTED_EDGE('',*,*,#394,.T.);
#501=ORIENTED_EDGE('',*,*,#395,.T.);
#502=ORIENTED_EDGE('',*,*,#396,.T.);
#503=ORIENTED_EDGE('',*,*,#394,.F.);
#504=ORIENTED_EDGE('',*,*,#397,.F.);
#505=ORIENTED_EDGE('',*,*,#398,.F.);
#506=ORIENTED_EDGE('',*,*,#399,.T.);
#507=ORIENTED_EDGE('',*,*,#400,.F.);
#508=ORIENTED_EDGE('',*,*,#401,.F.);
#509=ORIENTED_EDGE('',*,*,#402,.F.);
#510=ORIENTED_EDGE('',*,*,#397,.T.);
#511=ORIENTED_EDGE('',*,*,#393,.F.);
#512=ORIENTED_EDGE('',*,*,#403,.F.);
#513=ORIENTED_EDGE('',*,*,#395,.F.);
#514=ORIENTED_EDGE('',*,*,#399,.F.);
#515=ORIENTED_EDGE('',*,*,#404,.F.);
#516=ORIENTED_EDGE('',*,*,#405,.T.);
#517=ORIENTED_EDGE('',*,*,#406,.F.);
#518=ORIENTED_EDGE('',*,*,#405,.F.);
#519=ORIENTED_EDGE('',*,*,#407,.F.);
#520=ORIENTED_EDGE('',*,*,#401,.T.);
#521=ORIENTED_EDGE('',*,*,#408,.F.);
#522=ORIENTED_EDGE('',*,*,#409,.T.);
#523=ORIENTED_EDGE('',*,*,#410,.T.);
#524=ORIENTED_EDGE('',*,*,#409,.F.);
#525=ORIENTED_EDGE('',*,*,#411,.F.);
#526=ORIENTED_EDGE('',*,*,#412,.T.);
#527=ORIENTED_EDGE('',*,*,#413,.T.);
#528=ORIENTED_EDGE('',*,*,#412,.F.);
#529=ORIENTED_EDGE('',*,*,#369,.T.);
#530=ORIENTED_EDGE('',*,*,#375,.F.);
#531=ORIENTED_EDGE('',*,*,#376,.T.);
#532=ORIENTED_EDGE('',*,*,#381,.F.);
#533=ORIENTED_EDGE('',*,*,#388,.T.);
#534=ORIENTED_EDGE('',*,*,#391,.F.);
#535=ORIENTED_EDGE('',*,*,#382,.T.);
#536=ORIENTED_EDGE('',*,*,#386,.F.);
#537=ORIENTED_EDGE('',*,*,#413,.F.);
#538=ORIENTED_EDGE('',*,*,#410,.F.);
#539=ORIENTED_EDGE('',*,*,#414,.F.);
#540=ORIENTED_EDGE('',*,*,#415,.F.);
#541=ORIENTED_EDGE('',*,*,#416,.F.);
#542=ORIENTED_EDGE('',*,*,#417,.F.);
#543=ORIENTED_EDGE('',*,*,#418,.F.);
#544=ORIENTED_EDGE('',*,*,#419,.F.);
#545=ORIENTED_EDGE('',*,*,#414,.T.);
#546=ORIENTED_EDGE('',*,*,#420,.F.);
#547=ORIENTED_EDGE('',*,*,#421,.T.);
#548=ORIENTED_EDGE('',*,*,#422,.F.);
#549=ORIENTED_EDGE('',*,*,#423,.F.);
#550=ORIENTED_EDGE('',*,*,#424,.T.);
#551=ORIENTED_EDGE('',*,*,#425,.T.);
#552=ORIENTED_EDGE('',*,*,#426,.F.);
#553=ORIENTED_EDGE('',*,*,#421,.F.);
#554=ORIENTED_EDGE('',*,*,#427,.T.);
#555=ORIENTED_EDGE('',*,*,#428,.T.);
#556=ORIENTED_EDGE('',*,*,#429,.F.);
#557=ORIENTED_EDGE('',*,*,#425,.F.);
#558=ORIENTED_EDGE('',*,*,#430,.T.);
#559=ORIENTED_EDGE('',*,*,#431,.T.);
#560=ORIENTED_EDGE('',*,*,#432,.T.);
#561=ORIENTED_EDGE('',*,*,#433,.T.);
#562=ORIENTED_EDGE('',*,*,#434,.T.);
#563=ORIENTED_EDGE('',*,*,#435,.T.);
#564=ORIENTED_EDGE('',*,*,#415,.T.);
#565=ORIENTED_EDGE('',*,*,#419,.T.);
#566=ORIENTED_EDGE('',*,*,#436,.T.);
#567=ORIENTED_EDGE('',*,*,#437,.T.);
#568=ORIENTED_EDGE('',*,*,#422,.T.);
#569=ORIENTED_EDGE('',*,*,#426,.T.);
#570=ORIENTED_EDGE('',*,*,#429,.T.);
#571=ORIENTED_EDGE('',*,*,#403,.T.);
#572=ORIENTED_EDGE('',*,*,#406,.T.);
#573=ORIENTED_EDGE('',*,*,#400,.T.);
#574=ORIENTED_EDGE('',*,*,#396,.F.);
#575=ORIENTED_EDGE('',*,*,#438,.T.);
#576=ORIENTED_EDGE('',*,*,#439,.T.);
#577=ORIENTED_EDGE('',*,*,#440,.T.);
#578=ORIENTED_EDGE('',*,*,#441,.T.);
#579=ORIENTED_EDGE('',*,*,#436,.F.);
#580=ORIENTED_EDGE('',*,*,#418,.T.);
#581=ORIENTED_EDGE('',*,*,#442,.F.);
#582=ORIENTED_EDGE('',*,*,#443,.F.);
#583=ORIENTED_EDGE('',*,*,#444,.T.);
#584=ORIENTED_EDGE('',*,*,#445,.F.);
#585=ORIENTED_EDGE('',*,*,#446,.T.);
#586=ORIENTED_EDGE('',*,*,#447,.F.);
#587=ORIENTED_EDGE('',*,*,#448,.T.);
#588=ORIENTED_EDGE('',*,*,#440,.F.);
#589=ORIENTED_EDGE('',*,*,#448,.F.);
#590=ORIENTED_EDGE('',*,*,#449,.F.);
#591=ORIENTED_EDGE('',*,*,#450,.T.);
#592=ORIENTED_EDGE('',*,*,#439,.F.);
#593=ORIENTED_EDGE('',*,*,#450,.F.);
#594=ORIENTED_EDGE('',*,*,#438,.F.);
#595=ORIENTED_EDGE('',*,*,#451,.T.);
#596=ORIENTED_EDGE('',*,*,#452,.T.);
#597=ORIENTED_EDGE('',*,*,#451,.F.);
#598=ORIENTED_EDGE('',*,*,#453,.F.);
#599=ORIENTED_EDGE('',*,*,#434,.F.);
#600=ORIENTED_EDGE('',*,*,#454,.T.);
#601=ORIENTED_EDGE('',*,*,#455,.F.);
#602=ORIENTED_EDGE('',*,*,#454,.F.);
#603=ORIENTED_EDGE('',*,*,#433,.F.);
#604=ORIENTED_EDGE('',*,*,#456,.T.);
#605=ORIENTED_EDGE('',*,*,#457,.F.);
#606=ORIENTED_EDGE('',*,*,#416,.T.);
#607=ORIENTED_EDGE('',*,*,#435,.F.);
#608=ORIENTED_EDGE('',*,*,#453,.T.);
#609=ORIENTED_EDGE('',*,*,#458,.F.);
#610=ORIENTED_EDGE('',*,*,#459,.T.);
#611=ORIENTED_EDGE('',*,*,#443,.T.);
#612=ORIENTED_EDGE('',*,*,#460,.F.);
#613=ORIENTED_EDGE('',*,*,#461,.F.);
#614=ORIENTED_EDGE('',*,*,#442,.T.);
#615=ORIENTED_EDGE('',*,*,#420,.T.);
#616=ORIENTED_EDGE('',*,*,#417,.T.);
#617=ORIENTED_EDGE('',*,*,#458,.T.);
#618=ORIENTED_EDGE('',*,*,#455,.T.);
#619=ORIENTED_EDGE('',*,*,#457,.T.);
#620=ORIENTED_EDGE('',*,*,#462,.T.);
#621=ORIENTED_EDGE('',*,*,#460,.T.);
#622=ORIENTED_EDGE('',*,*,#447,.T.);
#623=ORIENTED_EDGE('',*,*,#449,.T.);
#624=ORIENTED_EDGE('',*,*,#456,.F.);
#625=ORIENTED_EDGE('',*,*,#432,.F.);
#626=ORIENTED_EDGE('',*,*,#428,.F.);
#627=ORIENTED_EDGE('',*,*,#463,.T.);
#628=ORIENTED_EDGE('',*,*,#461,.T.);
#629=ORIENTED_EDGE('',*,*,#462,.F.);
#630=ORIENTED_EDGE('',*,*,#464,.T.);
#631=ORIENTED_EDGE('',*,*,#444,.F.);
#632=ORIENTED_EDGE('',*,*,#459,.F.);
#633=ORIENTED_EDGE('',*,*,#463,.F.);
#634=ORIENTED_EDGE('',*,*,#423,.T.);
#635=ORIENTED_EDGE('',*,*,#437,.F.);
#636=ORIENTED_EDGE('',*,*,#441,.F.);
#637=ORIENTED_EDGE('',*,*,#465,.T.);
#638=ORIENTED_EDGE('',*,*,#466,.T.);
#639=ORIENTED_EDGE('',*,*,#445,.T.);
#640=ORIENTED_EDGE('',*,*,#464,.F.);
#641=ORIENTED_EDGE('',*,*,#431,.F.);
#642=ORIENTED_EDGE('',*,*,#427,.F.);
#643=ORIENTED_EDGE('',*,*,#424,.F.);
#644=ORIENTED_EDGE('',*,*,#465,.F.);
#645=ORIENTED_EDGE('',*,*,#446,.F.);
#646=ORIENTED_EDGE('',*,*,#466,.F.);
#647=ORIENTED_EDGE('',*,*,#430,.F.);
#648=ORIENTED_EDGE('',*,*,#402,.T.);
#649=ORIENTED_EDGE('',*,*,#407,.T.);
#650=ORIENTED_EDGE('',*,*,#404,.T.);
#651=ORIENTED_EDGE('',*,*,#398,.T.);
#652=ORIENTED_EDGE('',*,*,#408,.T.);
#653=ORIENTED_EDGE('',*,*,#411,.T.);
#654=ORIENTED_EDGE('',*,*,#392,.T.);
#655=ORIENTED_EDGE('',*,*,#389,.F.);
#656=ORIENTED_EDGE('',*,*,#379,.T.);
#657=ORIENTED_EDGE('',*,*,#377,.F.);
#658=ORIENTED_EDGE('',*,*,#373,.T.);
#659=ORIENTED_EDGE('',*,*,#371,.F.);
#660=ORIENTED_EDGE('',*,*,#387,.T.);
#661=ORIENTED_EDGE('',*,*,#384,.F.);
#662=ORIENTED_EDGE('',*,*,#452,.F.);
#663=PLANE('',#757);
#664=PLANE('',#758);
#665=PLANE('',#759);
#666=PLANE('',#760);
#667=PLANE('',#761);
#668=PLANE('',#762);
#669=PLANE('',#763);
#670=PLANE('',#764);
#671=PLANE('',#765);
#672=PLANE('',#766);
#673=PLANE('',#767);
#674=PLANE('',#768);
#675=PLANE('',#769);
#676=PLANE('',#776);
#677=PLANE('',#777);
#678=PLANE('',#778);
#679=PLANE('',#779);
#680=PLANE('',#780);
#681=PLANE('',#781);
#682=PLANE('',#782);
#683=PLANE('',#783);
#684=PLANE('',#784);
#685=PLANE('',#788);
#686=PLANE('',#795);
#687=PLANE('',#796);
#688=PLANE('',#797);
#689=PLANE('',#798);
#690=PLANE('',#799);
#691=PLANE('',#800);
#692=PLANE('',#801);
#693=PLANE('',#802);
#694=PLANE('',#803);
#695=PLANE('',#804);
#696=ADVANCED_FACE('',(#41),#663,.T.);
#697=ADVANCED_FACE('',(#42),#664,.F.);
#698=ADVANCED_FACE('',(#43),#665,.T.);
#699=ADVANCED_FACE('',(#44),#666,.F.);
#700=ADVANCED_FACE('',(#45),#667,.T.);
#701=ADVANCED_FACE('',(#46),#668,.F.);
#702=ADVANCED_FACE('',(#47),#669,.T.);
#703=ADVANCED_FACE('',(#48),#670,.F.);
#704=ADVANCED_FACE('',(#49),#671,.T.);
#705=ADVANCED_FACE('',(#50),#672,.F.);
#706=ADVANCED_FACE('',(#51),#673,.F.);
#707=ADVANCED_FACE('',(#52),#674,.F.);
#708=ADVANCED_FACE('',(#53),#675,.F.);
#709=ADVANCED_FACE('',(#54),#36,.F.);
#710=ADVANCED_FACE('',(#55),#37,.F.);
#711=ADVANCED_FACE('',(#56),#676,.F.);
#712=ADVANCED_FACE('',(#57),#677,.F.);
#713=ADVANCED_FACE('',(#58),#678,.F.);
#714=ADVANCED_FACE('',(#59),#679,.T.);
#715=ADVANCED_FACE('',(#60),#680,.T.);
#716=ADVANCED_FACE('',(#61),#681,.T.);
#717=ADVANCED_FACE('',(#62),#682,.T.);
#718=ADVANCED_FACE('',(#63),#683,.T.);
#719=ADVANCED_FACE('',(#64,#15,#16,#17,#18),#684,.T.);
#720=ADVANCED_FACE('',(#65),#685,.T.);
#721=ADVANCED_FACE('',(#66),#38,.F.);
#722=ADVANCED_FACE('',(#67),#39,.F.);
#723=ADVANCED_FACE('',(#68),#40,.F.);
#724=ADVANCED_FACE('',(#69),#686,.T.);
#725=ADVANCED_FACE('',(#70),#687,.T.);
#726=ADVANCED_FACE('',(#71),#688,.T.);
#727=ADVANCED_FACE('',(#72),#689,.T.);
#728=ADVANCED_FACE('',(#73,#19,#20),#690,.F.);
#729=ADVANCED_FACE('',(#74),#691,.T.);
#730=ADVANCED_FACE('',(#75),#692,.F.);
#731=ADVANCED_FACE('',(#76),#693,.T.);
#732=ADVANCED_FACE('',(#77),#694,.T.);
#733=ADVANCED_FACE('',(#78,#21,#22,#23,#24,#25),#695,.F.);
#734=CLOSED_SHELL('',(#696,#697,#698,#699,#700,#701,#702,#703,#704,#705,
#706,#707,#708,#709,#710,#711,#712,#713,#714,#715,#716,#717,#718,#719,#720,
#721,#722,#723,#724,#725,#726,#727,#728,#729,#730,#731,#732,#733));
#735=DERIVED_UNIT_ELEMENT(#738,1.);
#736=DERIVED_UNIT_ELEMENT(#1198,-3.);
#737=DIMENSIONAL_EXPONENTS(0.,1.,0.,0.,0.,0.,0.);
#738=(
CONVERSION_BASED_UNIT('gram',#740)
MASS_UNIT()
NAMED_UNIT(#737)
);
#739=(
MASS_UNIT()
NAMED_UNIT(*)
SI_UNIT(.KILO.,.GRAM.)
);
#740=MASS_MEASURE_WITH_UNIT(MASS_MEASURE(0.001),#739);
#741=DERIVED_UNIT((#735,#736));
#742=MEASURE_REPRESENTATION_ITEM('density measure',
POSITIVE_RATIO_MEASURE(1.),#741);
#743=PROPERTY_DEFINITION_REPRESENTATION(#748,#745);
#744=PROPERTY_DEFINITION_REPRESENTATION(#749,#746);
#745=REPRESENTATION('material name',(#747),#1195);
#746=REPRESENTATION('density',(#742),#1195);
#747=DESCRIPTIVE_REPRESENTATION_ITEM('Generic','Generic');
#748=PROPERTY_DEFINITION('material property','material name',#1205);
#749=PROPERTY_DEFINITION('material property','density of part',#1205);
#750=DATE_TIME_ROLE('creation_date');
#751=APPLIED_DATE_AND_TIME_ASSIGNMENT(#752,#750,(#1205));
#752=DATE_AND_TIME(#753,#754);
#753=CALENDAR_DATE(2024,2,9);
#754=LOCAL_TIME(0,0,0.,#755);
#755=COORDINATED_UNIVERSAL_TIME_OFFSET(0,0,.BEHIND.);
#756=AXIS2_PLACEMENT_3D('',#991,#805,#806);
#757=AXIS2_PLACEMENT_3D('',#992,#807,#808);
#758=AXIS2_PLACEMENT_3D('',#1001,#813,#814);
#759=AXIS2_PLACEMENT_3D('',#1007,#818,#819);
#760=AXIS2_PLACEMENT_3D('',#1013,#823,#824);
#761=AXIS2_PLACEMENT_3D('',#1019,#828,#829);
#762=AXIS2_PLACEMENT_3D('',#1028,#834,#835);
#763=AXIS2_PLACEMENT_3D('',#1031,#838,#839);
#764=AXIS2_PLACEMENT_3D('',#1037,#843,#844);
#765=AXIS2_PLACEMENT_3D('',#1040,#847,#848);
#766=AXIS2_PLACEMENT_3D('',#1049,#853,#854);
#767=AXIS2_PLACEMENT_3D('',#1055,#858,#859);
#768=AXIS2_PLACEMENT_3D('',#1061,#863,#864);
#769=AXIS2_PLACEMENT_3D('',#1067,#868,#869);
#770=AXIS2_PLACEMENT_3D('',#1070,#872,#873);
#771=AXIS2_PLACEMENT_3D('',#1072,#874,#875);
#772=AXIS2_PLACEMENT_3D('',#1075,#877,#878);
#773=AXIS2_PLACEMENT_3D('',#1076,#879,#880);
#774=AXIS2_PLACEMENT_3D('',#1078,#881,#882);
#775=AXIS2_PLACEMENT_3D('',#1081,#884,#885);
#776=AXIS2_PLACEMENT_3D('',#1082,#886,#887);
#777=AXIS2_PLACEMENT_3D('',#1083,#888,#889);
#778=AXIS2_PLACEMENT_3D('',#1084,#890,#891);
#779=AXIS2_PLACEMENT_3D('',#1085,#892,#893);
#780=AXIS2_PLACEMENT_3D('',#1094,#898,#899);
#781=AXIS2_PLACEMENT_3D('',#1100,#903,#904);
#782=AXIS2_PLACEMENT_3D('',#1109,#909,#910);
#783=AXIS2_PLACEMENT_3D('',#1115,#914,#915);
#784=AXIS2_PLACEMENT_3D('',#1123,#920,#921);
#785=AXIS2_PLACEMENT_3D('',#1135,#928,#929);
#786=AXIS2_PLACEMENT_3D('',#1137,#930,#931);
#787=AXIS2_PLACEMENT_3D('',#1139,#932,#933);
#788=AXIS2_PLACEMENT_3D('',#1140,#934,#935);
#789=AXIS2_PLACEMENT_3D('',#1152,#942,#943);
#790=AXIS2_PLACEMENT_3D('',#1154,#944,#945);
#791=AXIS2_PLACEMENT_3D('',#1156,#947,#948);
#792=AXIS2_PLACEMENT_3D('',#1158,#949,#950);
#793=AXIS2_PLACEMENT_3D('',#1160,#952,#953);
#794=AXIS2_PLACEMENT_3D('',#1163,#955,#956);
#795=AXIS2_PLACEMENT_3D('',#1164,#957,#958);
#796=AXIS2_PLACEMENT_3D('',#1170,#962,#963);
#797=AXIS2_PLACEMENT_3D('',#1174,#966,#967);
#798=AXIS2_PLACEMENT_3D('',#1176,#969,#970);
#799=AXIS2_PLACEMENT_3D('',#1182,#974,#975);
#800=AXIS2_PLACEMENT_3D('',#1184,#977,#978);
#801=AXIS2_PLACEMENT_3D('',#1186,#980,#981);
#802=AXIS2_PLACEMENT_3D('',#1188,#983,#984);
#803=AXIS2_PLACEMENT_3D('',#1190,#986,#987);
#804=AXIS2_PLACEMENT_3D('',#1192,#989,#990);
#805=DIRECTION('axis',(0.,0.,1.));
#806=DIRECTION('refdir',(1.,0.,0.));
#807=DIRECTION('center_axis',(-0.707106781186549,0.,0.707106781186546));
#808=DIRECTION('ref_axis',(0.707106781186546,0.,0.707106781186549));
#809=DIRECTION('',(0.707106781186546,0.,0.707106781186549));
#810=DIRECTION('',(0.,-1.,0.));
#811=DIRECTION('',(0.707106781186546,0.,0.707106781186549));
#812=DIRECTION('',(0.,1.,0.));
#813=DIRECTION('center_axis',(1.,0.,0.));
#814=DIRECTION('ref_axis',(0.,0.,-1.));
#815=DIRECTION('',(0.,0.,-1.));
#816=DIRECTION('',(0.,-1.,0.));
#817=DIRECTION('',(0.,0.,-1.));
#818=DIRECTION('center_axis',(-0.707106781186549,0.,-0.707106781186546));
#819=DIRECTION('ref_axis',(-0.707106781186546,0.,0.707106781186549));
#820=DIRECTION('',(-0.707106781186546,0.,0.707106781186549));
#821=DIRECTION('',(-0.707106781186546,0.,0.707106781186549));
#822=DIRECTION('',(0.,1.,0.));
#823=DIRECTION('center_axis',(0.,0.,1.));
#824=DIRECTION('ref_axis',(1.,0.,0.));
#825=DIRECTION('',(1.,0.,0.));
#826=DIRECTION('',(0.,-1.,0.));
#827=DIRECTION('',(1.,0.,0.));
#828=DIRECTION('center_axis',(0.707106781186546,0.,0.707106781186549));
#829=DIRECTION('ref_axis',(0.707106781186549,0.,-0.707106781186546));
#830=DIRECTION('',(0.707106781186549,0.,-0.707106781186546));
#831=DIRECTION('',(0.,-1.,0.));
#832=DIRECTION('',(0.707106781186549,0.,-0.707106781186546));
#833=DIRECTION('',(0.,1.,0.));
#834=DIRECTION('center_axis',(0.,0.,-1.));
#835=DIRECTION('ref_axis',(-1.,0.,0.));
#836=DIRECTION('',(-1.,0.,0.));
#837=DIRECTION('',(-1.,0.,0.));
#838=DIRECTION('center_axis',(0.707106781186549,0.,-0.707106781186546));
#839=DIRECTION('ref_axis',(-0.707106781186546,0.,-0.707106781186549));
#840=DIRECTION('',(-0.707106781186546,0.,-0.707106781186549));
#841=DIRECTION('',(-0.707106781186546,0.,-0.707106781186549));
#842=DIRECTION('',(0.,1.,0.));
#843=DIRECTION('center_axis',(-1.,0.,0.));
#844=DIRECTION('ref_axis',(0.,0.,1.));
#845=DIRECTION('',(0.,0.,1.));
#846=DIRECTION('',(0.,0.,1.));
#847=DIRECTION('center_axis',(-0.707106781186548,0.707106781186547,1.04672830578918E-16));
#848=DIRECTION('ref_axis',(1.48029736616688E-16,0.,1.));
#849=DIRECTION('',(0.707106781186547,0.707106781186548,-2.61682076447296E-17));
#850=DIRECTION('',(1.48029736616688E-16,0.,1.));
#851=DIRECTION('',(-0.707106781186547,-0.707106781186548,2.61682076447296E-17));
#852=DIRECTION('',(-1.48029736616688E-16,0.,-1.));
#853=DIRECTION('center_axis',(1.,0.,-1.48029736616688E-16));
#854=DIRECTION('ref_axis',(-1.48029736616688E-16,0.,-1.));
#855=DIRECTION('',(0.,1.,0.));
#856=DIRECTION('',(-1.48029736616688E-16,0.,-1.));
#857=DIRECTION('',(0.,1.,0.));
#858=DIRECTION('center_axis',(-3.70074341541719E-17,0.,-1.));
#859=DIRECTION('ref_axis',(-1.,0.,3.70074341541719E-17));
#860=DIRECTION('',(1.,0.,-3.70074341541719E-17));
#861=DIRECTION('',(0.,1.,0.));
#862=DIRECTION('',(-1.,0.,3.70074341541719E-17));
#863=DIRECTION('center_axis',(3.70074341541719E-17,0.,1.));
#864=DIRECTION('ref_axis',(1.,0.,-3.70074341541719E-17));
#865=DIRECTION('',(-1.,0.,3.70074341541719E-17));
#866=DIRECTION('',(1.,0.,-3.70074341541719E-17));
#867=DIRECTION('',(0.,1.,0.));
#868=DIRECTION('center_axis',(-1.,0.,1.48029736616688E-16));
#869=DIRECTION('ref_axis',(1.48029736616688E-16,0.,1.));
#870=DIRECTION('',(-1.48029736616688E-16,0.,-1.));
#871=DIRECTION('',(1.48029736616688E-16,0.,1.));
#872=DIRECTION('center_axis',(0.,1.,0.));
#873=DIRECTION('ref_axis',(1.,0.,0.));
#874=DIRECTION('center_axis',(0.,1.,0.));
#875=DIRECTION('ref_axis',(1.,0.,0.));
#876=DIRECTION('',(0.,1.,0.));
#877=DIRECTION('center_axis',(0.,1.,0.));
#878=DIRECTION('ref_axis',(1.,0.,0.));
#879=DIRECTION('center_axis',(0.,1.,0.));
#880=DIRECTION('ref_axis',(1.,0.,0.));
#881=DIRECTION('center_axis',(0.,1.,0.));
#882=DIRECTION('ref_axis',(1.,0.,0.));
#883=DIRECTION('',(0.,1.,0.));
#884=DIRECTION('center_axis',(0.,1.,0.));
#885=DIRECTION('ref_axis',(1.,0.,0.));
#886=DIRECTION('center_axis',(0.,1.,0.));
#887=DIRECTION('ref_axis',(0.,0.,1.));
#888=DIRECTION('center_axis',(0.,1.,0.));
#889=DIRECTION('ref_axis',(0.,0.,1.));
#890=DIRECTION('center_axis',(0.,1.,0.));
#891=DIRECTION('ref_axis',(0.,0.,1.));
#892=DIRECTION('center_axis',(-1.,0.,0.));
#893=DIRECTION('ref_axis',(0.,0.,-1.));
#894=DIRECTION('',(0.,-1.,0.));
#895=DIRECTION('',(0.,0.,1.));
#896=DIRECTION('',(0.,1.,0.));
#897=DIRECTION('',(0.,0.,-1.));
#898=DIRECTION('center_axis',(0.,0.,1.));
#899=DIRECTION('ref_axis',(-1.,0.,0.));
#900=DIRECTION('',(0.,-1.,0.));
#901=DIRECTION('',(1.,0.,0.));
#902=DIRECTION('',(-1.,0.,0.));
#903=DIRECTION('center_axis',(-1.,0.,1.22464679914735E-16));
#904=DIRECTION('ref_axis',(1.22464679914735E-16,0.,1.));
#905=DIRECTION('',(0.,1.,0.));
#906=DIRECTION('',(1.22464679914735E-16,0.,1.));
#907=DIRECTION('',(0.,1.,0.));
#908=DIRECTION('',(1.22464679914735E-16,0.,1.));
#909=DIRECTION('center_axis',(0.,0.,1.));
#910=DIRECTION('ref_axis',(1.,0.,0.));
#911=DIRECTION('',(0.,1.,0.));
#912=DIRECTION('',(1.,0.,0.));
#913=DIRECTION('',(1.,0.,0.));
#914=DIRECTION('center_axis',(-0.707106781186548,0.,0.707106781186547));
#915=DIRECTION('ref_axis',(0.707106781186547,0.,0.707106781186548));
#916=DIRECTION('',(0.,1.,0.));
#917=DIRECTION('',(0.707106781186547,0.,0.707106781186548));
#918=DIRECTION('',(0.707106781186547,0.,0.707106781186548));
#919=DIRECTION('',(0.,1.,0.));
#920=DIRECTION('center_axis',(0.,1.,0.));
#921=DIRECTION('ref_axis',(0.,0.,1.));
#922=DIRECTION('',(0.,0.,1.));
#923=DIRECTION('',(1.,0.,0.));
#924=DIRECTION('',(0.,0.,-1.));
#925=DIRECTION('',(1.,0.,0.));
#926=DIRECTION('',(0.,0.,-1.));
#927=DIRECTION('',(-1.,0.,1.48029736616688E-16));
#928=DIRECTION('center_axis',(0.,-1.,0.));
#929=DIRECTION('ref_axis',(-1.,0.,0.));
#930=DIRECTION('center_axis',(0.,-1.,0.));
#931=DIRECTION('ref_axis',(-1.,0.,0.));
#932=DIRECTION('center_axis',(0.,-1.,0.));
#933=DIRECTION('ref_axis',(-1.,0.,0.));
#934=DIRECTION('center_axis',(1.,0.,2.06394683714336E-15));
#935=DIRECTION('ref_axis',(2.06394683714336E-15,0.,-1.));
#936=DIRECTION('',(0.,1.,0.));
#937=DIRECTION('',(0.,0.,1.));
#938=DIRECTION('',(0.,-1.,0.));
#939=DIRECTION('',(0.,0.,-1.));
#940=DIRECTION('',(0.,1.,0.));
#941=DIRECTION('',(2.06394683714336E-15,0.,-1.));
#942=DIRECTION('center_axis',(0.,-1.,0.));
#943=DIRECTION('ref_axis',(-1.,0.,0.));
#944=DIRECTION('center_axis',(0.,1.,0.));
#945=DIRECTION('ref_axis',(-1.,0.,0.));
#946=DIRECTION('',(0.,1.,0.));
#947=DIRECTION('center_axis',(0.,-1.,0.));
#948=DIRECTION('ref_axis',(-1.,0.,0.));
#949=DIRECTION('center_axis',(0.,1.,0.));
#950=DIRECTION('ref_axis',(-1.,0.,0.));
#951=DIRECTION('',(0.,1.,0.));
#952=DIRECTION('center_axis',(0.,1.,0.));
#953=DIRECTION('ref_axis',(1.,0.,0.));
#954=DIRECTION('',(0.,-1.,0.));
#955=DIRECTION('center_axis',(0.,-1.,0.));
#956=DIRECTION('ref_axis',(1.,0.,0.));
#957=DIRECTION('center_axis',(1.,0.,0.));
#958=DIRECTION('ref_axis',(0.,0.,1.));
#959=DIRECTION('',(0.,-1.,0.));
#960=DIRECTION('',(0.,-1.,0.));
#961=DIRECTION('',(0.,0.,1.));
#962=DIRECTION('center_axis',(0.,0.,1.));
#963=DIRECTION('ref_axis',(-1.,0.,0.));
#964=DIRECTION('',(0.,-1.,0.));
#965=DIRECTION('',(-1.,0.,0.));
#966=DIRECTION('center_axis',(0.,0.,1.));
#967=DIRECTION('ref_axis',(-1.,0.,0.));
#968=DIRECTION('',(-1.,0.,0.));
#969=DIRECTION('center_axis',(0.,0.,-1.));
#970=DIRECTION('ref_axis',(1.,0.,0.));
#971=DIRECTION('',(1.,0.,0.));
#972=DIRECTION('',(1.,0.,0.));
#973=DIRECTION('',(0.,-1.,0.));
#974=DIRECTION('center_axis',(0.,1.,0.));
#975=DIRECTION('ref_axis',(0.,0.,1.));
#976=DIRECTION('',(0.,0.,-1.));
#977=DIRECTION('center_axis',(-1.,0.,0.));
#978=DIRECTION('ref_axis',(0.,0.,1.));
#979=DIRECTION('',(0.,0.,1.));
#980=DIRECTION('center_axis',(0.,1.,0.));
#981=DIRECTION('ref_axis',(0.,0.,1.));
#982=DIRECTION('',(1.,0.,-3.84793629794718E-16));
#983=DIRECTION('center_axis',(-1.48029736616688E-16,0.,-1.));
#984=DIRECTION('ref_axis',(-1.,0.,1.48029736616688E-16));
#985=DIRECTION('',(-1.,0.,1.48029736616688E-16));
#986=DIRECTION('center_axis',(3.84793629794718E-16,0.,1.));
#987=DIRECTION('ref_axis',(1.,0.,-3.84793629794718E-16));
#988=DIRECTION('',(1.,0.,-3.84793629794718E-16));
#989=DIRECTION('center_axis',(0.,1.,0.));
#990=DIRECTION('ref_axis',(0.,0.,1.));
#991=CARTESIAN_POINT('',(0.,0.,0.));
#992=CARTESIAN_POINT('Origin',(41.1066017177982,8.,-15.6966991411009));
#993=CARTESIAN_POINT('',(40.6066017177982,6.,-16.1966991411009));
#994=CARTESIAN_POINT('',(41.6066017177982,6.,-15.1966991411009));
#995=CARTESIAN_POINT('',(52.3299512883486,6.,-4.47334957055044));
#996=CARTESIAN_POINT('',(40.6066017177982,0.,-16.1966991411009));
#997=CARTESIAN_POINT('',(40.6066017177982,8.,-16.1966991411009));
#998=CARTESIAN_POINT('',(41.6066017177982,0.,-15.1966991411009));
#999=CARTESIAN_POINT('',(52.3299512883486,-5.55111512312578E-16,-4.47334957055044));
#1000=CARTESIAN_POINT('',(41.6066017177982,8.,-15.1966991411009));
#1001=CARTESIAN_POINT('Origin',(41.6066017177982,8.,6.80330085889911));
#1002=CARTESIAN_POINT('',(41.6066017177982,0.,5.80330085889911));
#1003=CARTESIAN_POINT('',(41.6066017177982,0.,1.0533008588991));
#1004=CARTESIAN_POINT('',(41.6066017177982,6.,5.80330085889911));
#1005=CARTESIAN_POINT('',(41.6066017177982,8.,5.80330085889911));
#1006=CARTESIAN_POINT('',(41.6066017177982,6.,1.0533008588991));
#1007=CARTESIAN_POINT('Origin',(41.1066017177982,8.,6.30330085889911));
#1008=CARTESIAN_POINT('',(40.6066017177982,6.,6.80330085889911));
#1009=CARTESIAN_POINT('',(52.3299512883486,6.,-4.92004871165135));
#1010=CARTESIAN_POINT('',(40.6066017177982,0.,6.80330085889911));
#1011=CARTESIAN_POINT('',(52.3299512883486,0.,-4.92004871165135));
#1012=CARTESIAN_POINT('',(40.6066017177982,8.,6.80330085889911));
#1013=CARTESIAN_POINT('Origin',(34.6066017177982,8.,6.80330085889911));
#1014=CARTESIAN_POINT('',(35.6066017177982,0.,6.80330085889911));
#1015=CARTESIAN_POINT('',(54.8033008588991,0.,6.80330085889911));
#1016=CARTESIAN_POINT('',(35.6066017177982,6.,6.80330085889911));
#1017=CARTESIAN_POINT('',(35.6066017177982,8.,6.80330085889911));
#1018=CARTESIAN_POINT('',(54.8033008588991,6.,6.80330085889911));
#1019=CARTESIAN_POINT('Origin',(35.1066017177982,8.,-15.6966991411009));
#1020=CARTESIAN_POINT('',(34.6066017177982,6.,-15.1966991411009));
#1021=CARTESIAN_POINT('',(35.6066017177982,6.,-16.1966991411009));
#1022=CARTESIAN_POINT('',(42.3299512883487,6.,-22.9200487116514));
#1023=CARTESIAN_POINT('',(34.6066017177982,0.,-15.1966991411009));
#1024=CARTESIAN_POINT('',(34.6066017177982,8.,-15.1966991411009));
#1025=CARTESIAN_POINT('',(35.6066017177982,0.,-16.1966991411009));
#1026=CARTESIAN_POINT('',(42.3299512883487,0.,-22.9200487116514));
#1027=CARTESIAN_POINT('',(35.6066017177982,8.,-16.1966991411009));
#1028=CARTESIAN_POINT('Origin',(41.6066017177982,8.,-16.1966991411009));
#1029=CARTESIAN_POINT('',(58.3033008588991,6.,-16.1966991411009));
#1030=CARTESIAN_POINT('',(58.3033008588991,0.,-16.1966991411009));
#1031=CARTESIAN_POINT('Origin',(35.1066017177982,8.,6.30330085889911));
#1032=CARTESIAN_POINT('',(34.6066017177982,6.,5.8033008588991));
#1033=CARTESIAN_POINT('',(42.3299512883486,6.,13.5266504294495));
#1034=CARTESIAN_POINT('',(34.6066017177982,0.,5.8033008588991));
#1035=CARTESIAN_POINT('',(42.3299512883486,-5.55111512312578E-16,13.5266504294495));
#1036=CARTESIAN_POINT('',(34.6066017177982,8.,5.8033008588991));
#1037=CARTESIAN_POINT('Origin',(34.6066017177982,8.,-16.1966991411009));
#1038=CARTESIAN_POINT('',(34.6066017177982,6.,-10.4466991411009));
#1039=CARTESIAN_POINT('',(34.6066017177982,0.,-10.4466991411009));
#1040=CARTESIAN_POINT('Origin',(93.6066017177982,4.5,-3.1466991411009));
#1041=CARTESIAN_POINT('',(97.1066017177982,8.,-7.1966991411009));
#1042=CARTESIAN_POINT('',(90.1066017177982,1.,-7.1966991411009));
#1043=CARTESIAN_POINT('',(91.6066017177982,2.5,-7.1966991411009));
#1044=CARTESIAN_POINT('',(90.1066017177982,1.,-2.1966991411009));
#1045=CARTESIAN_POINT('',(90.1066017177982,1.,-3.1466991411009));
#1046=CARTESIAN_POINT('',(97.1066017177982,8.,-2.1966991411009));
#1047=CARTESIAN_POINT('',(86.6066017177982,-2.5,-2.1966991411009));
#1048=CARTESIAN_POINT('',(97.1066017177982,8.,-3.1466991411009));
#1049=CARTESIAN_POINT('Origin',(90.1066017177982,0.,-2.1966991411009));
#1050=CARTESIAN_POINT('',(90.1066017177982,0.,-7.1966991411009));
#1051=CARTESIAN_POINT('',(90.1066017177982,0.,-7.1966991411009));
#1052=CARTESIAN_POINT('',(90.1066017177982,0.,-2.1966991411009));
#1053=CARTESIAN_POINT('',(90.1066017177982,0.,-3.4466991411009));
#1054=CARTESIAN_POINT('',(90.1066017177982,0.,-2.1966991411009));
#1055=CARTESIAN_POINT('Origin',(90.1066017177982,0.,-7.1966991411009));
#1056=CARTESIAN_POINT('',(70.1066017177982,8.,-7.1966991411009));
#1057=CARTESIAN_POINT('',(82.5533008588991,8.,-7.1966991411009));
#1058=CARTESIAN_POINT('',(70.1066017177982,0.,-7.1966991411009));
#1059=CARTESIAN_POINT('',(70.1066017177982,0.,-7.1966991411009));
#1060=CARTESIAN_POINT('',(82.5533008588991,0.,-7.1966991411009));
#1061=CARTESIAN_POINT('Origin',(70.1066017177982,0.,-2.1966991411009));
#1062=CARTESIAN_POINT('',(70.1066017177982,8.,-2.1966991411009));
#1063=CARTESIAN_POINT('',(72.5533008588991,8.,-2.1966991411009));
#1064=CARTESIAN_POINT('',(70.1066017177982,0.,-2.1966991411009));
#1065=CARTESIAN_POINT('',(72.5533008588991,0.,-2.1966991411009));
#1066=CARTESIAN_POINT('',(70.1066017177982,0.,-2.1966991411009));
#1067=CARTESIAN_POINT('Origin',(70.1066017177982,0.,-7.1966991411009));
#1068=CARTESIAN_POINT('',(70.1066017177982,8.,-5.6466991411009));
#1069=CARTESIAN_POINT('',(70.1066017177982,0.,-5.9466991411009));
#1070=CARTESIAN_POINT('Origin',(64.1066017177982,8.,-10.6966991411009));
#1071=CARTESIAN_POINT('',(62.5066017177982,0.,-10.6966991411009));
#1072=CARTESIAN_POINT('Origin',(64.1066017177982,0.,-10.6966991411009));
#1073=CARTESIAN_POINT('',(62.5066017177982,6.,-10.6966991411009));
#1074=CARTESIAN_POINT('',(62.5066017177982,8.,-10.6966991411009));
#1075=CARTESIAN_POINT('Origin',(64.1066017177982,6.,-10.6966991411009));
#1076=CARTESIAN_POINT('Origin',(64.1066017177982,8.,1.30330085889911));
#1077=CARTESIAN_POINT('',(62.5066017177982,0.,1.30330085889911));
#1078=CARTESIAN_POINT('Origin',(64.1066017177982,0.,1.30330085889911));
#1079=CARTESIAN_POINT('',(62.5066017177982,6.,1.30330085889911));
#1080=CARTESIAN_POINT('',(62.5066017177982,8.,1.30330085889911));
#1081=CARTESIAN_POINT('Origin',(64.1066017177982,6.,1.30330085889911));
#1082=CARTESIAN_POINT('Origin',(75.,6.,-4.6966991411009));
#1083=CARTESIAN_POINT('Origin',(75.,6.,-4.6966991411009));
#1084=CARTESIAN_POINT('Origin',(75.,6.,-4.6966991411009));
#1085=CARTESIAN_POINT('Origin',(142.,8.,23.8066017177982));
#1086=CARTESIAN_POINT('',(142.,8.,23.8066017177982));
#1087=CARTESIAN_POINT('',(142.,0.,23.8066017177982));
#1088=CARTESIAN_POINT('',(142.,8.,23.8066017177982));
#1089=CARTESIAN_POINT('',(142.,8.,15.8066017177982));
#1090=CARTESIAN_POINT('',(142.,8.,15.8066017177982));
#1091=CARTESIAN_POINT('',(142.,0.,15.8066017177982));
#1092=CARTESIAN_POINT('',(142.,8.,15.8066017177982));
#1093=CARTESIAN_POINT('',(142.,0.,21.8066017177982));
#1094=CARTESIAN_POINT('Origin',(150.,8.,23.8066017177982));
#1095=CARTESIAN_POINT('',(150.,8.,23.8066017177982));
#1096=CARTESIAN_POINT('',(150.,0.,23.8066017177982));
#1097=CARTESIAN_POINT('',(150.,8.,23.8066017177982));
#1098=CARTESIAN_POINT('',(142.,8.,23.8066017177982));
#1099=CARTESIAN_POINT('',(121.15165042945,0.,23.8066017177982));
#1100=CARTESIAN_POINT('Origin',(-2.44929359829471E-15,0.,-20.));
#1101=CARTESIAN_POINT('',(0.,0.,0.));
#1102=CARTESIAN_POINT('',(0.,8.,0.));
#1103=CARTESIAN_POINT('',(0.,0.,0.));
#1104=CARTESIAN_POINT('',(-4.44089209850063E-15,8.,-20.));
#1105=CARTESIAN_POINT('',(-2.44929359829471E-15,8.,-20.));
#1106=CARTESIAN_POINT('',(-2.44929359829471E-15,0.,-20.));
#1107=CARTESIAN_POINT('',(-2.44929359829471E-15,0.,-20.));
#1108=CARTESIAN_POINT('',(-2.44929359829471E-15,0.,-20.));
#1109=CARTESIAN_POINT('Origin',(0.,0.,0.));
#1110=CARTESIAN_POINT('',(24.,0.,0.));
#1111=CARTESIAN_POINT('',(24.,8.,0.));
#1112=CARTESIAN_POINT('',(24.,0.,0.));
#1113=CARTESIAN_POINT('',(0.,8.,0.));
#1114=CARTESIAN_POINT('',(0.,0.,0.));
#1115=CARTESIAN_POINT('Origin',(24.,0.,0.));
#1116=CARTESIAN_POINT('',(34.6066017177982,6.,10.6066017177982));
#1117=CARTESIAN_POINT('',(34.6066017177982,8.,10.6066017177982));
#1118=CARTESIAN_POINT('',(34.6066017177982,6.,10.6066017177982));
#1119=CARTESIAN_POINT('',(24.,8.,0.));
#1120=CARTESIAN_POINT('',(34.6066017177982,0.,10.6066017177982));
#1121=CARTESIAN_POINT('',(24.,0.,0.));
#1122=CARTESIAN_POINT('',(34.6066017177982,0.,10.6066017177982));
#1123=CARTESIAN_POINT('Origin',(75.,8.,-4.0966991411009));
#1124=CARTESIAN_POINT('',(34.6066017177982,8.,23.8066017177982));
#1125=CARTESIAN_POINT('',(34.6066017177982,8.,15.8066017177982));
#1126=CARTESIAN_POINT('',(42.6066017177982,8.,23.8066017177982));
#1127=CARTESIAN_POINT('',(34.6066017177982,8.,23.8066017177982));
#1128=CARTESIAN_POINT('',(42.6066017177982,8.,15.8066017177982));
#1129=CARTESIAN_POINT('',(42.6066017177982,8.,23.8066017177982));
#1130=CARTESIAN_POINT('',(34.6066017177982,8.,15.8066017177982));
#1131=CARTESIAN_POINT('',(150.,8.,-20.));
#1132=CARTESIAN_POINT('',(150.,8.,15.8066017177982));
#1133=CARTESIAN_POINT('',(150.,8.,-20.));
#1134=CARTESIAN_POINT('',(8.9,8.,-10.));
#1135=CARTESIAN_POINT('Origin',(12.,8.,-10.));
#1136=CARTESIAN_POINT('',(40.2066017177982,8.,19.8066017177982));
#1137=CARTESIAN_POINT('Origin',(38.6066017177982,8.,19.8066017177982));
#1138=CARTESIAN_POINT('',(147.6,8.,19.8066017177982));
#1139=CARTESIAN_POINT('Origin',(146.,8.,19.8066017177982));
#1140=CARTESIAN_POINT('Origin',(150.,0.,10.6066017177982));
#1141=CARTESIAN_POINT('',(150.,0.,-20.));
#1142=CARTESIAN_POINT('',(150.,0.,-20.));
#1143=CARTESIAN_POINT('',(150.,0.,11.8066017177982));
#1144=CARTESIAN_POINT('',(150.,0.,12.8066017177982));
#1145=CARTESIAN_POINT('',(150.,6.,11.8066017177982));
#1146=CARTESIAN_POINT('',(150.,8.,11.8066017177982));
#1147=CARTESIAN_POINT('',(150.,6.,10.6066017177982));
#1148=CARTESIAN_POINT('',(150.,6.,11.8066017177982));
#1149=CARTESIAN_POINT('',(150.,0.,10.6066017177982));
#1150=CARTESIAN_POINT('',(150.,0.,10.6066017177982));
#1151=CARTESIAN_POINT('',(150.,0.,10.6066017177982));
#1152=CARTESIAN_POINT('Origin',(146.,8.,19.8066017177982));
#1153=CARTESIAN_POINT('',(147.6,0.,19.8066017177982));
#1154=CARTESIAN_POINT('Origin',(146.,0.,19.8066017177982));
#1155=CARTESIAN_POINT('',(147.6,8.,19.8066017177982));
#1156=CARTESIAN_POINT('Origin',(38.6066017177982,8.,19.8066017177982));
#1157=CARTESIAN_POINT('',(40.2066017177982,0.,19.8066017177982));
#1158=CARTESIAN_POINT('Origin',(38.6066017177982,0.,19.8066017177982));
#1159=CARTESIAN_POINT('',(40.2066017177982,8.,19.8066017177982));
#1160=CARTESIAN_POINT('Origin',(12.,0.,-10.));
#1161=CARTESIAN_POINT('',(8.9,0.,-10.));
#1162=CARTESIAN_POINT('',(8.9,0.,-10.));
#1163=CARTESIAN_POINT('Origin',(12.,0.,-10.));
#1164=CARTESIAN_POINT('Origin',(42.6066017177982,8.,15.8066017177982));
#1165=CARTESIAN_POINT('',(42.6066017177982,0.,15.8066017177982));
#1166=CARTESIAN_POINT('',(42.6066017177982,8.,15.8066017177982));
#1167=CARTESIAN_POINT('',(42.6066017177982,0.,23.8066017177982));
#1168=CARTESIAN_POINT('',(42.6066017177982,8.,23.8066017177982));
#1169=CARTESIAN_POINT('',(42.6066017177982,0.,17.8066017177982));
#1170=CARTESIAN_POINT('Origin',(42.6066017177982,8.,23.8066017177982));
#1171=CARTESIAN_POINT('',(34.6066017177982,0.,23.8066017177982));
#1172=CARTESIAN_POINT('',(34.6066017177982,8.,23.8066017177982));
#1173=CARTESIAN_POINT('',(67.4549512883487,0.,23.8066017177982));
#1174=CARTESIAN_POINT('Origin',(150.,8.,15.8066017177982));
#1175=CARTESIAN_POINT('',(121.15165042945,0.,15.8066017177982));
#1176=CARTESIAN_POINT('Origin',(34.6066017177982,8.,11.8066017177982));
#1177=CARTESIAN_POINT('',(34.6066017177982,6.,11.8066017177982));
#1178=CARTESIAN_POINT('',(34.6066017177982,6.,11.8066017177982));
#1179=CARTESIAN_POINT('',(34.6066017177982,0.,11.8066017177982));
#1180=CARTESIAN_POINT('',(63.4549512883487,0.,11.8066017177982));
#1181=CARTESIAN_POINT('',(34.6066017177982,8.,11.8066017177982));
#1182=CARTESIAN_POINT('Origin',(92.3033008588991,0.,13.8066017177982));
#1183=CARTESIAN_POINT('',(34.6066017177982,0.,14.8066017177982));
#1184=CARTESIAN_POINT('Origin',(34.6066017177982,6.,10.6066017177982));
#1185=CARTESIAN_POINT('',(34.6066017177982,6.,10.6066017177982));
#1186=CARTESIAN_POINT('Origin',(75.,6.,-4.0966991411009));
#1187=CARTESIAN_POINT('',(34.6066017177982,6.,10.6066017177982));
#1188=CARTESIAN_POINT('Origin',(150.,0.,-20.));
#1189=CARTESIAN_POINT('',(150.,0.,-20.));
#1190=CARTESIAN_POINT('Origin',(34.6066017177982,0.,10.6066017177982));
#1191=CARTESIAN_POINT('',(34.6066017177982,0.,10.6066017177982));
#1192=CARTESIAN_POINT('Origin',(75.,0.,-4.6966991411009));
#1193=UNCERTAINTY_MEASURE_WITH_UNIT(LENGTH_MEASURE(0.01),#1197,
'DISTANCE_ACCURACY_VALUE',
'Maximum model space distance between geometric entities at asserted c
onnectivities');
#1194=UNCERTAINTY_MEASURE_WITH_UNIT(LENGTH_MEASURE(0.01),#1197,
'DISTANCE_ACCURACY_VALUE',
'Maximum model space distance between geometric entities at asserted c
onnectivities');
#1195=(
GEOMETRIC_REPRESENTATION_CONTEXT(3)
GLOBAL_UNCERTAINTY_ASSIGNED_CONTEXT((#1193))
GLOBAL_UNIT_ASSIGNED_CONTEXT((#1197,#1199,#1200))
REPRESENTATION_CONTEXT('','3D')
);
#1196=(
GEOMETRIC_REPRESENTATION_CONTEXT(3)
GLOBAL_UNCERTAINTY_ASSIGNED_CONTEXT((#1194))
GLOBAL_UNIT_ASSIGNED_CONTEXT((#1197,#1199,#1200))
REPRESENTATION_CONTEXT('','3D')
);
#1197=(
LENGTH_UNIT()
NAMED_UNIT(*)
SI_UNIT(.MILLI.,.METRE.)
);
#1198=(
LENGTH_UNIT()
NAMED_UNIT(*)
SI_UNIT(.CENTI.,.METRE.)
);
#1199=(
NAMED_UNIT(*)
PLANE_ANGLE_UNIT()
SI_UNIT($,.RADIAN.)
);
#1200=(
NAMED_UNIT(*)
SI_UNIT($,.STERADIAN.)
SOLID_ANGLE_UNIT()
);
#1201=SHAPE_DEFINITION_REPRESENTATION(#1202,#1203);
#1202=PRODUCT_DEFINITION_SHAPE('',$,#1205);
#1203=SHAPE_REPRESENTATION('',(#756),#1195);
#1204=PRODUCT_DEFINITION_CONTEXT('part definition',#1209,'design');
#1205=PRODUCT_DEFINITION('backwall','backwall',#1206,#1204);
#1206=PRODUCT_DEFINITION_FORMATION('',$,#1211);
#1207=PRODUCT_RELATED_PRODUCT_CATEGORY('backwall','backwall',(#1211));
#1208=APPLICATION_PROTOCOL_DEFINITION('international standard',
'automotive_design',2009,#1209);
#1209=APPLICATION_CONTEXT(
'Core Data for Automotive Mechanical Design Process');
#1210=PRODUCT_CONTEXT('part definition',#1209,'mechanical');
#1211=PRODUCT('backwall','backwall',$,(#1210));
#1212=PRESENTATION_STYLE_ASSIGNMENT((#1213));
#1213=SURFACE_STYLE_USAGE(.BOTH.,#1216);
#1214=SURFACE_STYLE_RENDERING_WITH_PROPERTIES($,#1220,(#1215));
#1215=SURFACE_STYLE_TRANSPARENT(0.);
#1216=SURFACE_SIDE_STYLE('',(#1217,#1214));
#1217=SURFACE_STYLE_FILL_AREA(#1218);
#1218=FILL_AREA_STYLE('',(#1219));
#1219=FILL_AREA_STYLE_COLOUR('',#1220);
#1220=COLOUR_RGB('',0.749019607843137,0.749019607843137,0.749019607843137);
ENDSEC;
END-ISO-10303-21;
