ISO-10303-21;
HEADER;
/* Generated by software containing ST-Developer
 * from STEP Tools, Inc. (www.steptools.com) 
 */

FILE_DESCRIPTION(
/* description */ (''),
/* implementation_level */ '2;1');

FILE_NAME(
/* name */ 'rpi-mount-clip.stp',
/* time_stamp */ '2024-10-27T21:09:06-04:00',
/* author */ ('Windows 7 was better'),
/* organization */ (''),
/* preprocessor_version */ 'ST-DEVELOPER v20',
/* originating_system */ 'Autodesk Inventor 2025',
/* authorisation */ '');

FILE_SCHEMA (('AUTOMOTIVE_DESIGN { 1 0 10303 214 3 1 1 }'));
ENDSEC;

DATA;
#10=MECHANICAL_DESIGN_GEOMETRIC_PRESENTATION_REPRESENTATION('',(#13),#1128);
#11=SHAPE_REPRESENTATION_RELATIONSHIP('SRR','None',#1135,#12);
#12=ADVANCED_BREP_SHAPE_REPRESENTATION('',(#14),#1127);
#13=STYLED_ITEM('',(#1144),#14);
#14=MANIFOLD_SOLID_BREP('Solid1',#642);
#15=FACE_BOUND('',#80,.T.);
#16=FACE_BOUND('',#86,.T.);
#17=FACE_BOUND('',#87,.T.);
#18=FACE_BOUND('',#88,.T.);
#19=PLANE('',#672);
#20=PLANE('',#673);
#21=PLANE('',#677);
#22=PLANE('',#678);
#23=PLANE('',#680);
#24=PLANE('',#681);
#25=PLANE('',#682);
#26=PLANE('',#688);
#27=PLANE('',#689);
#28=PLANE('',#694);
#29=PLANE('',#695);
#30=PLANE('',#704);
#31=PLANE('',#706);
#32=PLANE('',#708);
#33=PLANE('',#711);
#34=PLANE('',#714);
#35=PLANE('',#715);
#36=PLANE('',#716);
#37=PLANE('',#717);
#38=PLANE('',#718);
#39=FACE_OUTER_BOUND('',#70,.T.);
#40=FACE_OUTER_BOUND('',#71,.T.);
#41=FACE_OUTER_BOUND('',#72,.T.);
#42=FACE_OUTER_BOUND('',#73,.T.);
#43=FACE_OUTER_BOUND('',#74,.T.);
#44=FACE_OUTER_BOUND('',#75,.T.);
#45=FACE_OUTER_BOUND('',#76,.T.);
#46=FACE_OUTER_BOUND('',#77,.T.);
#47=FACE_OUTER_BOUND('',#78,.T.);
#48=FACE_OUTER_BOUND('',#79,.T.);
#49=FACE_OUTER_BOUND('',#81,.T.);
#50=FACE_OUTER_BOUND('',#82,.T.);
#51=FACE_OUTER_BOUND('',#83,.T.);
#52=FACE_OUTER_BOUND('',#84,.T.);
#53=FACE_OUTER_BOUND('',#85,.T.);
#54=FACE_OUTER_BOUND('',#89,.T.);
#55=FACE_OUTER_BOUND('',#90,.T.);
#56=FACE_OUTER_BOUND('',#91,.T.);
#57=FACE_OUTER_BOUND('',#92,.T.);
#58=FACE_OUTER_BOUND('',#93,.T.);
#59=FACE_OUTER_BOUND('',#94,.T.);
#60=FACE_OUTER_BOUND('',#95,.T.);
#61=FACE_OUTER_BOUND('',#96,.T.);
#62=FACE_OUTER_BOUND('',#97,.T.);
#63=FACE_OUTER_BOUND('',#98,.T.);
#64=FACE_OUTER_BOUND('',#99,.T.);
#65=FACE_OUTER_BOUND('',#100,.T.);
#66=FACE_OUTER_BOUND('',#101,.T.);
#67=FACE_OUTER_BOUND('',#102,.T.);
#68=FACE_OUTER_BOUND('',#103,.T.);
#69=FACE_OUTER_BOUND('',#104,.T.);
#70=EDGE_LOOP('',(#416,#417,#418,#419,#420,#421,#422));
#71=EDGE_LOOP('',(#423,#424,#425,#426,#427,#428,#429,#430,#431,#432,#433,
#434));
#72=EDGE_LOOP('',(#435,#436,#437,#438,#439,#440,#441,#442));
#73=EDGE_LOOP('',(#443,#444,#445,#446,#447));
#74=EDGE_LOOP('',(#448,#449,#450,#451,#452,#453));
#75=EDGE_LOOP('',(#454,#455,#456,#457));
#76=EDGE_LOOP('',(#458,#459,#460,#461));
#77=EDGE_LOOP('',(#462,#463,#464,#465,#466));
#78=EDGE_LOOP('',(#467,#468,#469,#470));
#79=EDGE_LOOP('',(#471,#472,#473,#474,#475,#476,#477,#478,#479,#480,#481,
#482));
#80=EDGE_LOOP('',(#483));
#81=EDGE_LOOP('',(#484,#485,#486,#487));
#82=EDGE_LOOP('',(#488,#489,#490,#491,#492,#493));
#83=EDGE_LOOP('',(#494,#495,#496,#497));
#84=EDGE_LOOP('',(#498,#499,#500,#501,#502,#503));
#85=EDGE_LOOP('',(#504,#505,#506,#507,#508,#509,#510,#511,#512,#513,#514));
#86=EDGE_LOOP('',(#515));
#87=EDGE_LOOP('',(#516));
#88=EDGE_LOOP('',(#517,#518,#519,#520,#521,#522,#523,#524));
#89=EDGE_LOOP('',(#525,#526,#527,#528));
#90=EDGE_LOOP('',(#529,#530,#531,#532,#533,#534));
#91=EDGE_LOOP('',(#535,#536,#537,#538));
#92=EDGE_LOOP('',(#539,#540,#541,#542,#543,#544,#545,#546));
#93=EDGE_LOOP('',(#547,#548,#549,#550));
#94=EDGE_LOOP('',(#551,#552,#553,#554));
#95=EDGE_LOOP('',(#555,#556,#557,#558));
#96=EDGE_LOOP('',(#559,#560,#561,#562));
#97=EDGE_LOOP('',(#563,#564,#565,#566));
#98=EDGE_LOOP('',(#567,#568,#569,#570));
#99=EDGE_LOOP('',(#571,#572,#573,#574));
#100=EDGE_LOOP('',(#575,#576,#577,#578));
#101=EDGE_LOOP('',(#579,#580,#581,#582,#583));
#102=EDGE_LOOP('',(#584,#585,#586,#587,#588,#589));
#103=EDGE_LOOP('',(#590,#591,#592,#593));
#104=EDGE_LOOP('',(#594,#595,#596,#597,#598,#599));
#105=B_SPLINE_CURVE_WITH_KNOTS('',3,(#907,#908,#909,#910,#911,#912),
 .UNSPECIFIED.,.F.,.F.,(4,2,4),(0.240427776334603,0.285263611394847,0.32230857677141),
 .UNSPECIFIED.);
#106=B_SPLINE_CURVE_WITH_KNOTS('',3,(#914,#915,#916,#917,#918,#919,#920,
#921,#922,#923,#924,#925,#926,#927,#928,#929,#930,#931,#932,#933),
 .UNSPECIFIED.,.F.,.F.,(4,2,2,2,2,2,2,2,2,4),(0.32230857677141,0.330099446455091,
0.378329839619616,0.429592696144411,0.480855552669206,0.532118409194001,
0.583381265718796,0.631611658883321,0.676447493943565,0.721283329003809),
 .UNSPECIFIED.);
#107=B_SPLINE_CURVE_WITH_KNOTS('',3,(#943,#944,#945,#946,#947,#948,#949,
#950,#951,#952,#953,#954,#955,#956,#957,#958,#959,#960,#961,#962,#963,#964),
 .UNSPECIFIED.,.F.,.F.,(4,2,2,2,2,2,2,2,2,2,4),(0.240427776143499,0.28526361116488,
0.330099446186262,0.378329839315372,0.429592695801185,0.480855552286998,
0.532118408772811,0.583381265258625,0.631611658387735,0.676447493409116,
0.721283328430497),.UNSPECIFIED.);
#108=LINE('',#901,#174);
#109=LINE('',#905,#175);
#110=LINE('',#934,#176);
#111=LINE('',#937,#177);
#112=LINE('',#941,#178);
#113=LINE('',#966,#179);
#114=LINE('',#969,#180);
#115=LINE('',#971,#181);
#116=LINE('',#975,#182);
#117=LINE('',#977,#183);
#118=LINE('',#979,#184);
#119=LINE('',#981,#185);
#120=LINE('',#983,#186);
#121=LINE('',#984,#187);
#122=LINE('',#987,#188);
#123=LINE('',#989,#189);
#124=LINE('',#990,#190);
#125=LINE('',#996,#191);
#126=LINE('',#999,#192);
#127=LINE('',#1000,#193);
#128=LINE('',#1003,#194);
#129=LINE('',#1005,#195);
#130=LINE('',#1006,#196);
#131=LINE('',#1009,#197);
#132=LINE('',#1011,#198);
#133=LINE('',#1015,#199);
#134=LINE('',#1017,#200);
#135=LINE('',#1018,#201);
#136=LINE('',#1021,#202);
#137=LINE('',#1022,#203);
#138=LINE('',#1025,#204);
#139=LINE('',#1029,#205);
#140=LINE('',#1032,#206);
#141=LINE('',#1034,#207);
#142=LINE('',#1038,#208);
#143=LINE('',#1044,#209);
#144=LINE('',#1046,#210);
#145=LINE('',#1047,#211);
#146=LINE('',#1052,#212);
#147=LINE('',#1055,#213);
#148=LINE('',#1058,#214);
#149=LINE('',#1061,#215);
#150=LINE('',#1064,#216);
#151=LINE('',#1065,#217);
#152=LINE('',#1068,#218);
#153=LINE('',#1072,#219);
#154=LINE('',#1074,#220);
#155=LINE('',#1076,#221);
#156=LINE('',#1078,#222);
#157=LINE('',#1079,#223);
#158=LINE('',#1085,#224);
#159=LINE('',#1089,#225);
#160=LINE('',#1093,#226);
#161=LINE('',#1097,#227);
#162=LINE('',#1098,#228);
#163=LINE('',#1100,#229);
#164=LINE('',#1102,#230);
#165=LINE('',#1103,#231);
#166=LINE('',#1105,#232);
#167=LINE('',#1107,#233);
#168=LINE('',#1109,#234);
#169=LINE('',#1112,#235);
#170=LINE('',#1115,#236);
#171=LINE('',#1119,#237);
#172=LINE('',#1121,#238);
#173=LINE('',#1123,#239);
#174=VECTOR('',#725,10.);
#175=VECTOR('',#728,10.);
#176=VECTOR('',#729,10.);
#177=VECTOR('',#732,10.);
#178=VECTOR('',#735,10.);
#179=VECTOR('',#736,10.);
#180=VECTOR('',#739,10.);
#181=VECTOR('',#740,1.59999999999998);
#182=VECTOR('',#745,10.);
#183=VECTOR('',#746,10.);
#184=VECTOR('',#747,10.);
#185=VECTOR('',#748,10.);
#186=VECTOR('',#749,10.);
#187=VECTOR('',#750,10.);
#188=VECTOR('',#753,10.);
#189=VECTOR('',#754,10.);
#190=VECTOR('',#755,10.);
#191=VECTOR('',#760,10.);
#192=VECTOR('',#763,10.);
#193=VECTOR('',#764,10.);
#194=VECTOR('',#767,10.);
#195=VECTOR('',#768,10.);
#196=VECTOR('',#769,10.);
#197=VECTOR('',#772,10.);
#198=VECTOR('',#773,10.);
#199=VECTOR('',#778,10.);
#200=VECTOR('',#779,10.);
#201=VECTOR('',#780,10.);
#202=VECTOR('',#783,10.);
#203=VECTOR('',#784,10.);
#204=VECTOR('',#787,10.);
#205=VECTOR('',#790,10.);
#206=VECTOR('',#793,10.);
#207=VECTOR('',#794,10.);
#208=VECTOR('',#797,10.);
#209=VECTOR('',#804,10.);
#210=VECTOR('',#805,10.);
#211=VECTOR('',#806,10.);
#212=VECTOR('',#811,10.);
#213=VECTOR('',#814,10.);
#214=VECTOR('',#817,10.);
#215=VECTOR('',#820,10.);
#216=VECTOR('',#823,10.);
#217=VECTOR('',#824,10.);
#218=VECTOR('',#827,10.);
#219=VECTOR('',#830,10.);
#220=VECTOR('',#831,10.);
#221=VECTOR('',#832,10.);
#222=VECTOR('',#833,10.);
#223=VECTOR('',#834,10.);
#224=VECTOR('',#839,10.);
#225=VECTOR('',#842,10.);
#226=VECTOR('',#845,10.);
#227=VECTOR('',#852,10.);
#228=VECTOR('',#853,10.);
#229=VECTOR('',#856,10.);
#230=VECTOR('',#859,10.);
#231=VECTOR('',#860,10.);
#232=VECTOR('',#863,10.);
#233=VECTOR('',#866,10.);
#234=VECTOR('',#869,10.);
#235=VECTOR('',#874,10.);
#236=VECTOR('',#879,1.59999999999998);
#237=VECTOR('',#886,10.);
#238=VECTOR('',#889,10.);
#239=VECTOR('',#892,10.);
#240=CIRCLE('',#666,2.);
#241=CIRCLE('',#667,2.);
#242=CIRCLE('',#669,1.59999999999998);
#243=CIRCLE('',#670,1.59999999999998);
#244=CIRCLE('',#671,1.59999999999998);
#245=CIRCLE('',#675,2.);
#246=CIRCLE('',#676,2.);
#247=CIRCLE('',#679,1.99999999999997);
#248=CIRCLE('',#683,2.);
#249=CIRCLE('',#684,2.);
#250=CIRCLE('',#685,0.749999999999991);
#251=CIRCLE('',#686,0.749999999999991);
#252=CIRCLE('',#687,1.59999999999998);
#253=CIRCLE('',#690,0.74999999999999);
#254=CIRCLE('',#691,0.74999999999999);
#255=CIRCLE('',#693,2.);
#256=CIRCLE('',#696,2.);
#257=CIRCLE('',#697,1.99999999999997);
#258=CIRCLE('',#698,1.59999999999998);
#259=CIRCLE('',#699,0.749999999999991);
#260=CIRCLE('',#700,0.74999999999999);
#261=CIRCLE('',#701,0.74999999999999);
#262=CIRCLE('',#702,0.749999999999991);
#263=VERTEX_POINT('',#897);
#264=VERTEX_POINT('',#898);
#265=VERTEX_POINT('',#900);
#266=VERTEX_POINT('',#902);
#267=VERTEX_POINT('',#904);
#268=VERTEX_POINT('',#906);
#269=VERTEX_POINT('',#913);
#270=VERTEX_POINT('',#936);
#271=VERTEX_POINT('',#938);
#272=VERTEX_POINT('',#940);
#273=VERTEX_POINT('',#942);
#274=VERTEX_POINT('',#965);
#275=VERTEX_POINT('',#967);
#276=VERTEX_POINT('',#970);
#277=VERTEX_POINT('',#974);
#278=VERTEX_POINT('',#976);
#279=VERTEX_POINT('',#978);
#280=VERTEX_POINT('',#980);
#281=VERTEX_POINT('',#982);
#282=VERTEX_POINT('',#986);
#283=VERTEX_POINT('',#988);
#284=VERTEX_POINT('',#992);
#285=VERTEX_POINT('',#993);
#286=VERTEX_POINT('',#995);
#287=VERTEX_POINT('',#997);
#288=VERTEX_POINT('',#1002);
#289=VERTEX_POINT('',#1004);
#290=VERTEX_POINT('',#1008);
#291=VERTEX_POINT('',#1010);
#292=VERTEX_POINT('',#1014);
#293=VERTEX_POINT('',#1016);
#294=VERTEX_POINT('',#1020);
#295=VERTEX_POINT('',#1024);
#296=VERTEX_POINT('',#1026);
#297=VERTEX_POINT('',#1028);
#298=VERTEX_POINT('',#1030);
#299=VERTEX_POINT('',#1033);
#300=VERTEX_POINT('',#1035);
#301=VERTEX_POINT('',#1037);
#302=VERTEX_POINT('',#1040);
#303=VERTEX_POINT('',#1043);
#304=VERTEX_POINT('',#1045);
#305=VERTEX_POINT('',#1049);
#306=VERTEX_POINT('',#1051);
#307=VERTEX_POINT('',#1053);
#308=VERTEX_POINT('',#1057);
#309=VERTEX_POINT('',#1059);
#310=VERTEX_POINT('',#1063);
#311=VERTEX_POINT('',#1067);
#312=VERTEX_POINT('',#1069);
#313=VERTEX_POINT('',#1071);
#314=VERTEX_POINT('',#1073);
#315=VERTEX_POINT('',#1075);
#316=VERTEX_POINT('',#1077);
#317=VERTEX_POINT('',#1081);
#318=VERTEX_POINT('',#1083);
#319=VERTEX_POINT('',#1084);
#320=VERTEX_POINT('',#1086);
#321=VERTEX_POINT('',#1088);
#322=VERTEX_POINT('',#1090);
#323=VERTEX_POINT('',#1092);
#324=EDGE_CURVE('',#263,#264,#240,.T.);
#325=EDGE_CURVE('',#264,#265,#108,.T.);
#326=EDGE_CURVE('',#265,#266,#241,.T.);
#327=EDGE_CURVE('',#266,#267,#109,.T.);
#328=EDGE_CURVE('',#267,#268,#105,.T.);
#329=EDGE_CURVE('',#268,#269,#106,.T.);
#330=EDGE_CURVE('',#269,#263,#110,.T.);
#331=EDGE_CURVE('',#270,#267,#111,.T.);
#332=EDGE_CURVE('',#271,#270,#242,.T.);
#333=EDGE_CURVE('',#271,#272,#112,.T.);
#334=EDGE_CURVE('',#273,#272,#107,.T.);
#335=EDGE_CURVE('',#274,#273,#113,.T.);
#336=EDGE_CURVE('',#275,#274,#243,.T.);
#337=EDGE_CURVE('',#275,#269,#114,.T.);
#338=EDGE_CURVE('',#268,#276,#115,.T.);
#339=EDGE_CURVE('',#276,#276,#244,.T.);
#340=EDGE_CURVE('',#277,#266,#116,.T.);
#341=EDGE_CURVE('',#278,#277,#117,.T.);
#342=EDGE_CURVE('',#279,#278,#118,.T.);
#343=EDGE_CURVE('',#279,#280,#119,.T.);
#344=EDGE_CURVE('',#280,#281,#120,.T.);
#345=EDGE_CURVE('',#270,#281,#121,.T.);
#346=EDGE_CURVE('',#282,#265,#122,.T.);
#347=EDGE_CURVE('',#283,#282,#123,.T.);
#348=EDGE_CURVE('',#277,#283,#124,.T.);
#349=EDGE_CURVE('',#284,#285,#245,.T.);
#350=EDGE_CURVE('',#285,#286,#125,.T.);
#351=EDGE_CURVE('',#286,#287,#246,.T.);
#352=EDGE_CURVE('',#287,#273,#126,.T.);
#353=EDGE_CURVE('',#272,#284,#127,.T.);
#354=EDGE_CURVE('',#288,#286,#128,.T.);
#355=EDGE_CURVE('',#288,#289,#129,.T.);
#356=EDGE_CURVE('',#289,#287,#130,.T.);
#357=EDGE_CURVE('',#285,#290,#131,.T.);
#358=EDGE_CURVE('',#290,#291,#132,.T.);
#359=EDGE_CURVE('',#291,#286,#247,.T.);
#360=EDGE_CURVE('',#292,#284,#133,.T.);
#361=EDGE_CURVE('',#293,#292,#134,.T.);
#362=EDGE_CURVE('',#293,#290,#135,.T.);
#363=EDGE_CURVE('',#264,#294,#136,.T.);
#364=EDGE_CURVE('',#294,#282,#137,.T.);
#365=EDGE_CURVE('',#283,#295,#138,.T.);
#366=EDGE_CURVE('',#296,#295,#248,.T.);
#367=EDGE_CURVE('',#296,#297,#139,.T.);
#368=EDGE_CURVE('',#298,#297,#249,.T.);
#369=EDGE_CURVE('',#298,#293,#140,.T.);
#370=EDGE_CURVE('',#292,#299,#141,.T.);
#371=EDGE_CURVE('',#299,#300,#250,.T.);
#372=EDGE_CURVE('',#300,#301,#142,.T.);
#373=EDGE_CURVE('',#301,#278,#251,.T.);
#374=EDGE_CURVE('',#302,#302,#252,.T.);
#375=EDGE_CURVE('',#303,#275,#143,.T.);
#376=EDGE_CURVE('',#274,#304,#144,.T.);
#377=EDGE_CURVE('',#304,#303,#145,.T.);
#378=EDGE_CURVE('',#281,#305,#253,.T.);
#379=EDGE_CURVE('',#305,#306,#146,.T.);
#380=EDGE_CURVE('',#306,#307,#254,.T.);
#381=EDGE_CURVE('',#307,#271,#147,.T.);
#382=EDGE_CURVE('',#297,#308,#148,.T.);
#383=EDGE_CURVE('',#308,#309,#255,.T.);
#384=EDGE_CURVE('',#309,#298,#149,.T.);
#385=EDGE_CURVE('',#309,#310,#150,.T.);
#386=EDGE_CURVE('',#310,#291,#151,.T.);
#387=EDGE_CURVE('',#311,#308,#152,.T.);
#388=EDGE_CURVE('',#312,#311,#256,.T.);
#389=EDGE_CURVE('',#313,#312,#153,.T.);
#390=EDGE_CURVE('',#314,#313,#154,.T.);
#391=EDGE_CURVE('',#315,#314,#155,.T.);
#392=EDGE_CURVE('',#316,#315,#156,.T.);
#393=EDGE_CURVE('',#289,#316,#157,.T.);
#394=EDGE_CURVE('',#310,#288,#257,.T.);
#395=EDGE_CURVE('',#317,#317,#258,.T.);
#396=EDGE_CURVE('',#318,#319,#158,.T.);
#397=EDGE_CURVE('',#320,#318,#259,.T.);
#398=EDGE_CURVE('',#321,#320,#159,.T.);
#399=EDGE_CURVE('',#322,#321,#260,.T.);
#400=EDGE_CURVE('',#323,#322,#160,.T.);
#401=EDGE_CURVE('',#280,#323,#261,.T.);
#402=EDGE_CURVE('',#319,#279,#262,.T.);
#403=EDGE_CURVE('',#295,#312,#161,.T.);
#404=EDGE_CURVE('',#311,#296,#162,.T.);
#405=EDGE_CURVE('',#313,#294,#163,.T.);
#406=EDGE_CURVE('',#318,#300,#164,.T.);
#407=EDGE_CURVE('',#320,#299,#165,.T.);
#408=EDGE_CURVE('',#321,#307,#166,.T.);
#409=EDGE_CURVE('',#322,#306,#167,.T.);
#410=EDGE_CURVE('',#323,#305,#168,.T.);
#411=EDGE_CURVE('',#319,#301,#169,.T.);
#412=EDGE_CURVE('',#302,#317,#170,.T.);
#413=EDGE_CURVE('',#314,#263,#171,.T.);
#414=EDGE_CURVE('',#315,#303,#172,.T.);
#415=EDGE_CURVE('',#316,#304,#173,.T.);
#416=ORIENTED_EDGE('',*,*,#324,.T.);
#417=ORIENTED_EDGE('',*,*,#325,.T.);
#418=ORIENTED_EDGE('',*,*,#326,.T.);
#419=ORIENTED_EDGE('',*,*,#327,.T.);
#420=ORIENTED_EDGE('',*,*,#328,.T.);
#421=ORIENTED_EDGE('',*,*,#329,.T.);
#422=ORIENTED_EDGE('',*,*,#330,.T.);
#423=ORIENTED_EDGE('',*,*,#328,.F.);
#424=ORIENTED_EDGE('',*,*,#331,.F.);
#425=ORIENTED_EDGE('',*,*,#332,.F.);
#426=ORIENTED_EDGE('',*,*,#333,.T.);
#427=ORIENTED_EDGE('',*,*,#334,.F.);
#428=ORIENTED_EDGE('',*,*,#335,.F.);
#429=ORIENTED_EDGE('',*,*,#336,.F.);
#430=ORIENTED_EDGE('',*,*,#337,.T.);
#431=ORIENTED_EDGE('',*,*,#329,.F.);
#432=ORIENTED_EDGE('',*,*,#338,.T.);
#433=ORIENTED_EDGE('',*,*,#339,.T.);
#434=ORIENTED_EDGE('',*,*,#338,.F.);
#435=ORIENTED_EDGE('',*,*,#327,.F.);
#436=ORIENTED_EDGE('',*,*,#340,.F.);
#437=ORIENTED_EDGE('',*,*,#341,.F.);
#438=ORIENTED_EDGE('',*,*,#342,.F.);
#439=ORIENTED_EDGE('',*,*,#343,.T.);
#440=ORIENTED_EDGE('',*,*,#344,.T.);
#441=ORIENTED_EDGE('',*,*,#345,.F.);
#442=ORIENTED_EDGE('',*,*,#331,.T.);
#443=ORIENTED_EDGE('',*,*,#326,.F.);
#444=ORIENTED_EDGE('',*,*,#346,.F.);
#445=ORIENTED_EDGE('',*,*,#347,.F.);
#446=ORIENTED_EDGE('',*,*,#348,.F.);
#447=ORIENTED_EDGE('',*,*,#340,.T.);
#448=ORIENTED_EDGE('',*,*,#349,.T.);
#449=ORIENTED_EDGE('',*,*,#350,.T.);
#450=ORIENTED_EDGE('',*,*,#351,.T.);
#451=ORIENTED_EDGE('',*,*,#352,.T.);
#452=ORIENTED_EDGE('',*,*,#334,.T.);
#453=ORIENTED_EDGE('',*,*,#353,.T.);
#454=ORIENTED_EDGE('',*,*,#351,.F.);
#455=ORIENTED_EDGE('',*,*,#354,.F.);
#456=ORIENTED_EDGE('',*,*,#355,.T.);
#457=ORIENTED_EDGE('',*,*,#356,.T.);
#458=ORIENTED_EDGE('',*,*,#350,.F.);
#459=ORIENTED_EDGE('',*,*,#357,.T.);
#460=ORIENTED_EDGE('',*,*,#358,.T.);
#461=ORIENTED_EDGE('',*,*,#359,.T.);
#462=ORIENTED_EDGE('',*,*,#349,.F.);
#463=ORIENTED_EDGE('',*,*,#360,.F.);
#464=ORIENTED_EDGE('',*,*,#361,.F.);
#465=ORIENTED_EDGE('',*,*,#362,.T.);
#466=ORIENTED_EDGE('',*,*,#357,.F.);
#467=ORIENTED_EDGE('',*,*,#325,.F.);
#468=ORIENTED_EDGE('',*,*,#363,.T.);
#469=ORIENTED_EDGE('',*,*,#364,.T.);
#470=ORIENTED_EDGE('',*,*,#346,.T.);
#471=ORIENTED_EDGE('',*,*,#341,.T.);
#472=ORIENTED_EDGE('',*,*,#348,.T.);
#473=ORIENTED_EDGE('',*,*,#365,.T.);
#474=ORIENTED_EDGE('',*,*,#366,.F.);
#475=ORIENTED_EDGE('',*,*,#367,.T.);
#476=ORIENTED_EDGE('',*,*,#368,.F.);
#477=ORIENTED_EDGE('',*,*,#369,.T.);
#478=ORIENTED_EDGE('',*,*,#361,.T.);
#479=ORIENTED_EDGE('',*,*,#370,.T.);
#480=ORIENTED_EDGE('',*,*,#371,.T.);
#481=ORIENTED_EDGE('',*,*,#372,.T.);
#482=ORIENTED_EDGE('',*,*,#373,.T.);
#483=ORIENTED_EDGE('',*,*,#374,.T.);
#484=ORIENTED_EDGE('',*,*,#375,.T.);
#485=ORIENTED_EDGE('',*,*,#336,.T.);
#486=ORIENTED_EDGE('',*,*,#376,.T.);
#487=ORIENTED_EDGE('',*,*,#377,.T.);
#488=ORIENTED_EDGE('',*,*,#345,.T.);
#489=ORIENTED_EDGE('',*,*,#378,.T.);
#490=ORIENTED_EDGE('',*,*,#379,.T.);
#491=ORIENTED_EDGE('',*,*,#380,.T.);
#492=ORIENTED_EDGE('',*,*,#381,.T.);
#493=ORIENTED_EDGE('',*,*,#332,.T.);
#494=ORIENTED_EDGE('',*,*,#368,.T.);
#495=ORIENTED_EDGE('',*,*,#382,.T.);
#496=ORIENTED_EDGE('',*,*,#383,.T.);
#497=ORIENTED_EDGE('',*,*,#384,.T.);
#498=ORIENTED_EDGE('',*,*,#384,.F.);
#499=ORIENTED_EDGE('',*,*,#385,.T.);
#500=ORIENTED_EDGE('',*,*,#386,.T.);
#501=ORIENTED_EDGE('',*,*,#358,.F.);
#502=ORIENTED_EDGE('',*,*,#362,.F.);
#503=ORIENTED_EDGE('',*,*,#369,.F.);
#504=ORIENTED_EDGE('',*,*,#383,.F.);
#505=ORIENTED_EDGE('',*,*,#387,.F.);
#506=ORIENTED_EDGE('',*,*,#388,.F.);
#507=ORIENTED_EDGE('',*,*,#389,.F.);
#508=ORIENTED_EDGE('',*,*,#390,.F.);
#509=ORIENTED_EDGE('',*,*,#391,.F.);
#510=ORIENTED_EDGE('',*,*,#392,.F.);
#511=ORIENTED_EDGE('',*,*,#393,.F.);
#512=ORIENTED_EDGE('',*,*,#355,.F.);
#513=ORIENTED_EDGE('',*,*,#394,.F.);
#514=ORIENTED_EDGE('',*,*,#385,.F.);
#515=ORIENTED_EDGE('',*,*,#339,.F.);
#516=ORIENTED_EDGE('',*,*,#395,.F.);
#517=ORIENTED_EDGE('',*,*,#396,.F.);
#518=ORIENTED_EDGE('',*,*,#397,.F.);
#519=ORIENTED_EDGE('',*,*,#398,.F.);
#520=ORIENTED_EDGE('',*,*,#399,.F.);
#521=ORIENTED_EDGE('',*,*,#400,.F.);
#522=ORIENTED_EDGE('',*,*,#401,.F.);
#523=ORIENTED_EDGE('',*,*,#343,.F.);
#524=ORIENTED_EDGE('',*,*,#402,.F.);
#525=ORIENTED_EDGE('',*,*,#366,.T.);
#526=ORIENTED_EDGE('',*,*,#403,.T.);
#527=ORIENTED_EDGE('',*,*,#388,.T.);
#528=ORIENTED_EDGE('',*,*,#404,.T.);
#529=ORIENTED_EDGE('',*,*,#403,.F.);
#530=ORIENTED_EDGE('',*,*,#365,.F.);
#531=ORIENTED_EDGE('',*,*,#347,.T.);
#532=ORIENTED_EDGE('',*,*,#364,.F.);
#533=ORIENTED_EDGE('',*,*,#405,.F.);
#534=ORIENTED_EDGE('',*,*,#389,.T.);
#535=ORIENTED_EDGE('',*,*,#397,.T.);
#536=ORIENTED_EDGE('',*,*,#406,.T.);
#537=ORIENTED_EDGE('',*,*,#371,.F.);
#538=ORIENTED_EDGE('',*,*,#407,.F.);
#539=ORIENTED_EDGE('',*,*,#353,.F.);
#540=ORIENTED_EDGE('',*,*,#333,.F.);
#541=ORIENTED_EDGE('',*,*,#381,.F.);
#542=ORIENTED_EDGE('',*,*,#408,.F.);
#543=ORIENTED_EDGE('',*,*,#398,.T.);
#544=ORIENTED_EDGE('',*,*,#407,.T.);
#545=ORIENTED_EDGE('',*,*,#370,.F.);
#546=ORIENTED_EDGE('',*,*,#360,.T.);
#547=ORIENTED_EDGE('',*,*,#399,.T.);
#548=ORIENTED_EDGE('',*,*,#408,.T.);
#549=ORIENTED_EDGE('',*,*,#380,.F.);
#550=ORIENTED_EDGE('',*,*,#409,.F.);
#551=ORIENTED_EDGE('',*,*,#400,.T.);
#552=ORIENTED_EDGE('',*,*,#409,.T.);
#553=ORIENTED_EDGE('',*,*,#379,.F.);
#554=ORIENTED_EDGE('',*,*,#410,.F.);
#555=ORIENTED_EDGE('',*,*,#401,.T.);
#556=ORIENTED_EDGE('',*,*,#410,.T.);
#557=ORIENTED_EDGE('',*,*,#378,.F.);
#558=ORIENTED_EDGE('',*,*,#344,.F.);
#559=ORIENTED_EDGE('',*,*,#402,.T.);
#560=ORIENTED_EDGE('',*,*,#342,.T.);
#561=ORIENTED_EDGE('',*,*,#373,.F.);
#562=ORIENTED_EDGE('',*,*,#411,.F.);
#563=ORIENTED_EDGE('',*,*,#396,.T.);
#564=ORIENTED_EDGE('',*,*,#411,.T.);
#565=ORIENTED_EDGE('',*,*,#372,.F.);
#566=ORIENTED_EDGE('',*,*,#406,.F.);
#567=ORIENTED_EDGE('',*,*,#374,.F.);
#568=ORIENTED_EDGE('',*,*,#412,.T.);
#569=ORIENTED_EDGE('',*,*,#395,.T.);
#570=ORIENTED_EDGE('',*,*,#412,.F.);
#571=ORIENTED_EDGE('',*,*,#394,.T.);
#572=ORIENTED_EDGE('',*,*,#354,.T.);
#573=ORIENTED_EDGE('',*,*,#359,.F.);
#574=ORIENTED_EDGE('',*,*,#386,.F.);
#575=ORIENTED_EDGE('',*,*,#382,.F.);
#576=ORIENTED_EDGE('',*,*,#367,.F.);
#577=ORIENTED_EDGE('',*,*,#404,.F.);
#578=ORIENTED_EDGE('',*,*,#387,.T.);
#579=ORIENTED_EDGE('',*,*,#324,.F.);
#580=ORIENTED_EDGE('',*,*,#413,.F.);
#581=ORIENTED_EDGE('',*,*,#390,.T.);
#582=ORIENTED_EDGE('',*,*,#405,.T.);
#583=ORIENTED_EDGE('',*,*,#363,.F.);
#584=ORIENTED_EDGE('',*,*,#330,.F.);
#585=ORIENTED_EDGE('',*,*,#337,.F.);
#586=ORIENTED_EDGE('',*,*,#375,.F.);
#587=ORIENTED_EDGE('',*,*,#414,.F.);
#588=ORIENTED_EDGE('',*,*,#391,.T.);
#589=ORIENTED_EDGE('',*,*,#413,.T.);
#590=ORIENTED_EDGE('',*,*,#392,.T.);
#591=ORIENTED_EDGE('',*,*,#414,.T.);
#592=ORIENTED_EDGE('',*,*,#377,.F.);
#593=ORIENTED_EDGE('',*,*,#415,.F.);
#594=ORIENTED_EDGE('',*,*,#352,.F.);
#595=ORIENTED_EDGE('',*,*,#356,.F.);
#596=ORIENTED_EDGE('',*,*,#393,.T.);
#597=ORIENTED_EDGE('',*,*,#415,.T.);
#598=ORIENTED_EDGE('',*,*,#376,.F.);
#599=ORIENTED_EDGE('',*,*,#335,.T.);
#600=CYLINDRICAL_SURFACE('',#665,2.);
#601=CYLINDRICAL_SURFACE('',#668,1.59999999999998);
#602=CYLINDRICAL_SURFACE('',#674,2.);
#603=CYLINDRICAL_SURFACE('',#692,2.);
#604=CYLINDRICAL_SURFACE('',#703,2.);
#605=CYLINDRICAL_SURFACE('',#705,0.749999999999991);
#606=CYLINDRICAL_SURFACE('',#707,0.74999999999999);
#607=CYLINDRICAL_SURFACE('',#709,0.74999999999999);
#608=CYLINDRICAL_SURFACE('',#710,0.749999999999991);
#609=CYLINDRICAL_SURFACE('',#712,1.59999999999998);
#610=CYLINDRICAL_SURFACE('',#713,1.99999999999997);
#611=ADVANCED_FACE('',(#39),#600,.T.);
#612=ADVANCED_FACE('',(#40),#601,.F.);
#613=ADVANCED_FACE('',(#41),#19,.T.);
#614=ADVANCED_FACE('',(#42),#20,.T.);
#615=ADVANCED_FACE('',(#43),#602,.T.);
#616=ADVANCED_FACE('',(#44),#21,.T.);
#617=ADVANCED_FACE('',(#45),#22,.T.);
#618=ADVANCED_FACE('',(#46),#23,.T.);
#619=ADVANCED_FACE('',(#47),#24,.T.);
#620=ADVANCED_FACE('',(#48,#15),#25,.T.);
#621=ADVANCED_FACE('',(#49),#26,.T.);
#622=ADVANCED_FACE('',(#50),#27,.T.);
#623=ADVANCED_FACE('',(#51),#603,.T.);
#624=ADVANCED_FACE('',(#52),#28,.T.);
#625=ADVANCED_FACE('',(#53,#16,#17,#18),#29,.F.);
#626=ADVANCED_FACE('',(#54),#604,.T.);
#627=ADVANCED_FACE('',(#55),#30,.T.);
#628=ADVANCED_FACE('',(#56),#605,.F.);
#629=ADVANCED_FACE('',(#57),#31,.T.);
#630=ADVANCED_FACE('',(#58),#606,.F.);
#631=ADVANCED_FACE('',(#59),#32,.T.);
#632=ADVANCED_FACE('',(#60),#607,.F.);
#633=ADVANCED_FACE('',(#61),#608,.F.);
#634=ADVANCED_FACE('',(#62),#33,.T.);
#635=ADVANCED_FACE('',(#63),#609,.F.);
#636=ADVANCED_FACE('',(#64),#610,.T.);
#637=ADVANCED_FACE('',(#65),#34,.T.);
#638=ADVANCED_FACE('',(#66),#35,.T.);
#639=ADVANCED_FACE('',(#67),#36,.T.);
#640=ADVANCED_FACE('',(#68),#37,.T.);
#641=ADVANCED_FACE('',(#69),#38,.T.);
#642=CLOSED_SHELL('',(#611,#612,#613,#614,#615,#616,#617,#618,#619,#620,
#621,#622,#623,#624,#625,#626,#627,#628,#629,#630,#631,#632,#633,#634,#635,
#636,#637,#638,#639,#640,#641));
#643=DERIVED_UNIT_ELEMENT(#646,1.);
#644=DERIVED_UNIT_ELEMENT(#1130,-3.);
#645=DIMENSIONAL_EXPONENTS(0.,1.,0.,0.,0.,0.,0.);
#646=(
CONVERSION_BASED_UNIT('gram',#648)
MASS_UNIT()
NAMED_UNIT(#645)
);
#647=(
MASS_UNIT()
NAMED_UNIT(*)
SI_UNIT(.KILO.,.GRAM.)
);
#648=MASS_MEASURE_WITH_UNIT(MASS_MEASURE(0.001),#647);
#649=DERIVED_UNIT((#643,#644));
#650=MEASURE_REPRESENTATION_ITEM('density measure',
POSITIVE_RATIO_MEASURE(1.),#649);
#651=PROPERTY_DEFINITION_REPRESENTATION(#656,#653);
#652=PROPERTY_DEFINITION_REPRESENTATION(#657,#654);
#653=REPRESENTATION('material name',(#655),#1127);
#654=REPRESENTATION('density',(#650),#1127);
#655=DESCRIPTIVE_REPRESENTATION_ITEM('Generic','Generic');
#656=PROPERTY_DEFINITION('material property','material name',#1137);
#657=PROPERTY_DEFINITION('material property','density of part',#1137);
#658=DATE_TIME_ROLE('creation_date');
#659=APPLIED_DATE_AND_TIME_ASSIGNMENT(#660,#658,(#1137));
#660=DATE_AND_TIME(#661,#662);
#661=CALENDAR_DATE(2024,27,10);
#662=LOCAL_TIME(0,0,0.,#663);
#663=COORDINATED_UNIVERSAL_TIME_OFFSET(0,0,.BEHIND.);
#664=AXIS2_PLACEMENT_3D('',#895,#719,#720);
#665=AXIS2_PLACEMENT_3D('',#896,#721,#722);
#666=AXIS2_PLACEMENT_3D('',#899,#723,#724);
#667=AXIS2_PLACEMENT_3D('',#903,#726,#727);
#668=AXIS2_PLACEMENT_3D('',#935,#730,#731);
#669=AXIS2_PLACEMENT_3D('',#939,#733,#734);
#670=AXIS2_PLACEMENT_3D('',#968,#737,#738);
#671=AXIS2_PLACEMENT_3D('',#972,#741,#742);
#672=AXIS2_PLACEMENT_3D('',#973,#743,#744);
#673=AXIS2_PLACEMENT_3D('',#985,#751,#752);
#674=AXIS2_PLACEMENT_3D('',#991,#756,#757);
#675=AXIS2_PLACEMENT_3D('',#994,#758,#759);
#676=AXIS2_PLACEMENT_3D('',#998,#761,#762);
#677=AXIS2_PLACEMENT_3D('',#1001,#765,#766);
#678=AXIS2_PLACEMENT_3D('',#1007,#770,#771);
#679=AXIS2_PLACEMENT_3D('',#1012,#774,#775);
#680=AXIS2_PLACEMENT_3D('',#1013,#776,#777);
#681=AXIS2_PLACEMENT_3D('',#1019,#781,#782);
#682=AXIS2_PLACEMENT_3D('',#1023,#785,#786);
#683=AXIS2_PLACEMENT_3D('',#1027,#788,#789);
#684=AXIS2_PLACEMENT_3D('',#1031,#791,#792);
#685=AXIS2_PLACEMENT_3D('',#1036,#795,#796);
#686=AXIS2_PLACEMENT_3D('',#1039,#798,#799);
#687=AXIS2_PLACEMENT_3D('',#1041,#800,#801);
#688=AXIS2_PLACEMENT_3D('',#1042,#802,#803);
#689=AXIS2_PLACEMENT_3D('',#1048,#807,#808);
#690=AXIS2_PLACEMENT_3D('',#1050,#809,#810);
#691=AXIS2_PLACEMENT_3D('',#1054,#812,#813);
#692=AXIS2_PLACEMENT_3D('',#1056,#815,#816);
#693=AXIS2_PLACEMENT_3D('',#1060,#818,#819);
#694=AXIS2_PLACEMENT_3D('',#1062,#821,#822);
#695=AXIS2_PLACEMENT_3D('',#1066,#825,#826);
#696=AXIS2_PLACEMENT_3D('',#1070,#828,#829);
#697=AXIS2_PLACEMENT_3D('',#1080,#835,#836);
#698=AXIS2_PLACEMENT_3D('',#1082,#837,#838);
#699=AXIS2_PLACEMENT_3D('',#1087,#840,#841);
#700=AXIS2_PLACEMENT_3D('',#1091,#843,#844);
#701=AXIS2_PLACEMENT_3D('',#1094,#846,#847);
#702=AXIS2_PLACEMENT_3D('',#1095,#848,#849);
#703=AXIS2_PLACEMENT_3D('',#1096,#850,#851);
#704=AXIS2_PLACEMENT_3D('',#1099,#854,#855);
#705=AXIS2_PLACEMENT_3D('',#1101,#857,#858);
#706=AXIS2_PLACEMENT_3D('',#1104,#861,#862);
#707=AXIS2_PLACEMENT_3D('',#1106,#864,#865);
#708=AXIS2_PLACEMENT_3D('',#1108,#867,#868);
#709=AXIS2_PLACEMENT_3D('',#1110,#870,#871);
#710=AXIS2_PLACEMENT_3D('',#1111,#872,#873);
#711=AXIS2_PLACEMENT_3D('',#1113,#875,#876);
#712=AXIS2_PLACEMENT_3D('',#1114,#877,#878);
#713=AXIS2_PLACEMENT_3D('',#1116,#880,#881);
#714=AXIS2_PLACEMENT_3D('',#1117,#882,#883);
#715=AXIS2_PLACEMENT_3D('',#1118,#884,#885);
#716=AXIS2_PLACEMENT_3D('',#1120,#887,#888);
#717=AXIS2_PLACEMENT_3D('',#1122,#890,#891);
#718=AXIS2_PLACEMENT_3D('',#1124,#893,#894);
#719=DIRECTION('axis',(0.,0.,1.));
#720=DIRECTION('refdir',(1.,0.,0.));
#721=DIRECTION('center_axis',(-0.766044443152117,-0.642787609647046,0.));
#722=DIRECTION('ref_axis',(-0.454519477644117,0.541675220443134,0.707106781186548));
#723=DIRECTION('center_axis',(0.76604444311897,0.642787609686549,0.));
#724=DIRECTION('ref_axis',(-0.454519477644117,0.541675220443134,0.707106781186548));
#725=DIRECTION('',(0.766044443152117,0.642787609647046,0.));
#726=DIRECTION('center_axis',(-0.766044443118978,-0.642787609686539,0.));
#727=DIRECTION('ref_axis',(-0.454519477644117,0.541675220443134,0.707106781186548));
#728=DIRECTION('',(-0.766044443152117,-0.642787609647046,0.));
#729=DIRECTION('',(-0.766044443152117,-0.642787609647046,0.));
#730=DIRECTION('center_axis',(0.,0.,1.));
#731=DIRECTION('ref_axis',(-1.,0.,0.));
#732=DIRECTION('',(0.,0.,1.));
#733=DIRECTION('center_axis',(0.,0.,-1.));
#734=DIRECTION('ref_axis',(-1.,0.,0.));
#735=DIRECTION('',(0.,0.,1.));
#736=DIRECTION('',(0.,0.,1.));
#737=DIRECTION('center_axis',(0.,0.,-1.));
#738=DIRECTION('ref_axis',(-1.,0.,0.));
#739=DIRECTION('',(0.,0.,1.));
#740=DIRECTION('',(0.,0.,-1.));
#741=DIRECTION('center_axis',(0.,0.,-1.));
#742=DIRECTION('ref_axis',(-1.,0.,0.));
#743=DIRECTION('center_axis',(-0.642787609647046,0.766044443152117,0.));
#744=DIRECTION('ref_axis',(-0.766044443152117,-0.642787609647046,0.));
#745=DIRECTION('',(0.,0.,1.));
#746=DIRECTION('',(0.766044443118978,0.642787609686539,0.));
#747=DIRECTION('',(0.,0.,1.));
#748=DIRECTION('',(-0.766044443152117,-0.642787609647046,0.));
#749=DIRECTION('',(0.,0.,1.));
#750=DIRECTION('',(0.766044443118978,0.642787609686539,0.));
#751=DIRECTION('center_axis',(0.766044443118978,0.642787609686539,0.));
#752=DIRECTION('ref_axis',(-0.642787609686539,0.766044443118978,0.));
#753=DIRECTION('',(-0.642787609686539,0.766044443118978,0.));
#754=DIRECTION('',(0.,0.,1.));
#755=DIRECTION('',(0.642787609686539,-0.766044443118978,0.));
#756=DIRECTION('center_axis',(0.766044443118979,0.642787609686539,0.));
#757=DIRECTION('ref_axis',(0.454519477672043,-0.541675220419702,0.707106781186548));
#758=DIRECTION('center_axis',(-0.766044443118978,-0.642787609686539,0.));
#759=DIRECTION('ref_axis',(0.454519477672043,-0.541675220419702,0.707106781186548));
#760=DIRECTION('',(-0.766044443118978,-0.642787609686539,0.));
#761=DIRECTION('center_axis',(0.766044443118976,0.642787609686542,0.));
#762=DIRECTION('ref_axis',(0.454519477672043,-0.541675220419702,0.707106781186548));
#763=DIRECTION('',(0.766044443118978,0.642787609686539,0.));
#764=DIRECTION('',(0.766044443118978,0.642787609686539,0.));
#765=DIRECTION('center_axis',(-0.766044443118976,-0.642787609686542,0.));
#766=DIRECTION('ref_axis',(0.642787609686542,-0.766044443118976,0.));
#767=DIRECTION('',(0.,0.,1.));
#768=DIRECTION('',(0.642787609686542,-0.766044443118976,0.));
#769=DIRECTION('',(0.,0.,1.));
#770=DIRECTION('center_axis',(0.,0.,1.));
#771=DIRECTION('ref_axis',(1.,0.,0.));
#772=DIRECTION('',(-0.642787609686539,0.766044443118978,0.));
#773=DIRECTION('',(-0.766044443118975,-0.642787609686543,0.));
#774=DIRECTION('center_axis',(0.,0.,1.));
#775=DIRECTION('ref_axis',(-0.642787609686546,0.766044443118973,0.));
#776=DIRECTION('center_axis',(0.766044443118978,0.642787609686539,0.));
#777=DIRECTION('ref_axis',(-0.642787609686539,0.766044443118978,0.));
#778=DIRECTION('',(0.,0.,1.));
#779=DIRECTION('',(0.642787609686539,-0.766044443118978,0.));
#780=DIRECTION('',(0.,0.,1.));
#781=DIRECTION('center_axis',(0.,0.,1.));
#782=DIRECTION('ref_axis',(1.,0.,0.));
#783=DIRECTION('',(0.642787609686549,-0.76604444311897,0.));
#784=DIRECTION('',(0.766044443118978,0.642787609686539,0.));
#785=DIRECTION('center_axis',(0.,0.,1.));
#786=DIRECTION('ref_axis',(1.,0.,0.));
#787=DIRECTION('',(0.766044443118978,0.642787609686539,0.));
#788=DIRECTION('center_axis',(0.,0.,-1.));
#789=DIRECTION('ref_axis',(0.939692620785907,0.342020143325671,0.));
#790=DIRECTION('',(-1.,-6.81118420015441E-17,0.));
#791=DIRECTION('center_axis',(0.,0.,-1.));
#792=DIRECTION('ref_axis',(-0.342020143325667,0.939692620785909,0.));
#793=DIRECTION('',(-0.766044443118977,-0.64278760968654,0.));
#794=DIRECTION('',(-0.766044443118978,-0.642787609686539,0.));
#795=DIRECTION('center_axis',(0.,0.,-1.));
#796=DIRECTION('ref_axis',(-5.92118946466759E-15,-1.,0.));
#797=DIRECTION('',(1.,-1.42727520918121E-14,0.));
#798=DIRECTION('center_axis',(0.,0.,-1.));
#799=DIRECTION('ref_axis',(-0.642787609647049,0.766044443152114,0.));
#800=DIRECTION('center_axis',(0.,0.,-1.));
#801=DIRECTION('ref_axis',(-1.,0.,0.));
#802=DIRECTION('center_axis',(0.,0.,1.));
#803=DIRECTION('ref_axis',(1.,0.,0.));
#804=DIRECTION('',(0.766044443118978,0.642787609686539,0.));
#805=DIRECTION('',(-0.766044443118978,-0.642787609686539,0.));
#806=DIRECTION('',(4.00225966417357E-15,-1.,0.));
#807=DIRECTION('center_axis',(0.,0.,1.));
#808=DIRECTION('ref_axis',(1.,0.,0.));
#809=DIRECTION('center_axis',(0.,0.,-1.));
#810=DIRECTION('ref_axis',(1.,0.,0.));
#811=DIRECTION('',(-7.65432164519472E-14,1.,0.));
#812=DIRECTION('center_axis',(0.,0.,-1.));
#813=DIRECTION('ref_axis',(0.642787609686544,-0.766044443118974,0.));
#814=DIRECTION('',(-0.766044443118978,-0.642787609686539,0.));
#815=DIRECTION('center_axis',(0.,0.,1.));
#816=DIRECTION('ref_axis',(-0.342020143325667,0.939692620785909,0.));
#817=DIRECTION('',(0.,0.,-1.));
#818=DIRECTION('center_axis',(0.,0.,1.));
#819=DIRECTION('ref_axis',(-0.342020143325667,0.939692620785909,0.));
#820=DIRECTION('',(0.,0.,1.));
#821=DIRECTION('center_axis',(-0.64278760968654,0.766044443118977,0.));
#822=DIRECTION('ref_axis',(-0.766044443118977,-0.64278760968654,0.));
#823=DIRECTION('',(-0.766044443118977,-0.64278760968654,0.));
#824=DIRECTION('',(0.,0.,1.));
#825=DIRECTION('center_axis',(0.,0.,1.));
#826=DIRECTION('ref_axis',(1.,0.,0.));
#827=DIRECTION('',(-1.,-6.81118420015441E-17,0.));
#828=DIRECTION('center_axis',(0.,0.,1.));
#829=DIRECTION('ref_axis',(0.939692620785907,0.342020143325671,0.));
#830=DIRECTION('',(0.766044443118978,0.642787609686539,0.));
#831=DIRECTION('',(0.642787609686549,-0.76604444311897,0.));
#832=DIRECTION('',(-0.766044443118979,-0.642787609686538,0.));
#833=DIRECTION('',(4.00225966417357E-15,-1.,0.));
#834=DIRECTION('',(0.766044443118978,0.642787609686539,0.));
#835=DIRECTION('center_axis',(0.,0.,1.));
#836=DIRECTION('ref_axis',(-0.642787609686546,0.766044443118973,0.));
#837=DIRECTION('center_axis',(0.,0.,-1.));
#838=DIRECTION('ref_axis',(-1.,0.,0.));
#839=DIRECTION('',(1.,-1.42727520918121E-14,0.));
#840=DIRECTION('center_axis',(0.,0.,-1.));
#841=DIRECTION('ref_axis',(-5.92118946466759E-15,-1.,0.));
#842=DIRECTION('',(0.766044443118978,0.642787609686539,0.));
#843=DIRECTION('center_axis',(0.,0.,-1.));
#844=DIRECTION('ref_axis',(0.642787609686544,-0.766044443118974,0.));
#845=DIRECTION('',(-7.65432164519472E-14,1.,0.));
#846=DIRECTION('center_axis',(0.,0.,-1.));
#847=DIRECTION('ref_axis',(1.,0.,0.));
#848=DIRECTION('center_axis',(0.,0.,-1.));
#849=DIRECTION('ref_axis',(-0.642787609647049,0.766044443152114,0.));
#850=DIRECTION('center_axis',(0.,0.,1.));
#851=DIRECTION('ref_axis',(0.939692620785907,0.342020143325671,0.));
#852=DIRECTION('',(0.,0.,-1.));
#853=DIRECTION('',(0.,0.,1.));
#854=DIRECTION('center_axis',(0.642787609686539,-0.766044443118978,0.));
#855=DIRECTION('ref_axis',(0.766044443118978,0.642787609686539,0.));
#856=DIRECTION('',(0.,0.,1.));
#857=DIRECTION('center_axis',(0.,0.,1.));
#858=DIRECTION('ref_axis',(-5.92118946466759E-15,-1.,0.));
#859=DIRECTION('',(0.,0.,1.));
#860=DIRECTION('',(0.,0.,1.));
#861=DIRECTION('center_axis',(0.642787609686539,-0.766044443118979,0.));
#862=DIRECTION('ref_axis',(0.766044443118978,0.642787609686539,0.));
#863=DIRECTION('',(0.,0.,1.));
#864=DIRECTION('center_axis',(0.,0.,1.));
#865=DIRECTION('ref_axis',(0.642787609686544,-0.766044443118974,0.));
#866=DIRECTION('',(0.,0.,1.));
#867=DIRECTION('center_axis',(1.,7.65432164519472E-14,0.));
#868=DIRECTION('ref_axis',(-7.65432164519472E-14,1.,0.));
#869=DIRECTION('',(0.,0.,1.));
#870=DIRECTION('center_axis',(0.,0.,1.));
#871=DIRECTION('ref_axis',(1.,0.,0.));
#872=DIRECTION('center_axis',(0.,0.,1.));
#873=DIRECTION('ref_axis',(-0.642787609647049,0.766044443152114,0.));
#874=DIRECTION('',(0.,0.,1.));
#875=DIRECTION('center_axis',(-1.42727520918121E-14,-1.,0.));
#876=DIRECTION('ref_axis',(1.,-1.42727520918121E-14,0.));
#877=DIRECTION('center_axis',(0.,0.,1.));
#878=DIRECTION('ref_axis',(-1.,0.,0.));
#879=DIRECTION('',(0.,0.,-1.));
#880=DIRECTION('center_axis',(0.,0.,1.));
#881=DIRECTION('ref_axis',(-0.642787609686546,0.766044443118973,0.));
#882=DIRECTION('center_axis',(-6.81118420015441E-17,1.,0.));
#883=DIRECTION('ref_axis',(-1.,-6.81118420015441E-17,0.));
#884=DIRECTION('center_axis',(-0.76604444311897,-0.642787609686549,0.));
#885=DIRECTION('ref_axis',(0.642787609686549,-0.76604444311897,0.));
#886=DIRECTION('',(0.,0.,1.));
#887=DIRECTION('center_axis',(-0.642787609686538,0.766044443118979,0.));
#888=DIRECTION('ref_axis',(-0.766044443118979,-0.642787609686538,0.));
#889=DIRECTION('',(0.,0.,1.));
#890=DIRECTION('center_axis',(-1.,-4.00225966417357E-15,0.));
#891=DIRECTION('ref_axis',(4.00225966417357E-15,-1.,0.));
#892=DIRECTION('',(0.,0.,1.));
#893=DIRECTION('center_axis',(0.642787609686539,-0.766044443118978,0.));
#894=DIRECTION('ref_axis',(0.766044443118978,0.642787609686539,0.));
#895=CARTESIAN_POINT('',(0.,0.,0.));
#896=CARTESIAN_POINT('Origin',(16.8151085670748,18.1883479239411,11.));
#897=CARTESIAN_POINT('',(-3.8029335497042,3.49857096616167,11.));
#898=CARTESIAN_POINT('',(-2.51735833149094,1.96648208130598,13.));
#899=CARTESIAN_POINT('Origin',(-2.51735833156995,1.96648208123968,11.));
#900=CARTESIAN_POINT('',(24.2941971788332,24.4640484189526,13.));
#901=CARTESIAN_POINT('',(16.8151085670748,18.1883479239411,13.));
#902=CARTESIAN_POINT('',(23.0086219594601,25.9961373051906,11.));
#903=CARTESIAN_POINT('Origin',(24.2941971789122,24.4640484190189,11.));
#904=CARTESIAN_POINT('',(5.81655965892057,11.5702841696311,11.));
#905=CARTESIAN_POINT('',(15.5295333477807,19.7204368102453,11.));
#906=CARTESIAN_POINT('',(5.83178311095802,11.3500949459666,11.8258284852678));
#907=CARTESIAN_POINT('Ctrl Pts',(5.81655965873264,11.5702841709837,11.));
#908=CARTESIAN_POINT('Ctrl Pts',(5.81655965873264,11.5702841709837,11.1494527835341));
#909=CARTESIAN_POINT('Ctrl Pts',(5.81993146014773,11.5496112287706,11.3114517432584));
#910=CARTESIAN_POINT('Ctrl Pts',(5.8278748727619,11.4678733118325,11.5939935180143));
#911=CARTESIAN_POINT('Ctrl Pts',(5.83178311117566,11.4145241531624,11.7169641609353));
#912=CARTESIAN_POINT('Ctrl Pts',(5.83178311095802,11.3500949432643,11.8258284852678));
#913=CARTESIAN_POINT('',(3.73974549946185,9.8276301744055,11.));
#914=CARTESIAN_POINT('Ctrl Pts',(5.83178311095802,11.3500949432643,11.8258284852678));
#915=CARTESIAN_POINT('Ctrl Pts',(5.83178311091225,11.3365449352393,11.8487235738569));
#916=CARTESIAN_POINT('Ctrl Pts',(5.83161040519647,11.3225299404387,11.8710096520887));
#917=CARTESIAN_POINT('Ctrl Pts',(5.82889632970102,11.2190601439691,12.0264366282349));
#918=CARTESIAN_POINT('Ctrl Pts',(5.81520270895765,11.0859734157659,12.1654299400308));
#919=CARTESIAN_POINT('Ctrl Pts',(5.74960434125413,10.8253106306028,12.359696816216));
#920=CARTESIAN_POINT('Ctrl Pts',(5.68998268572212,10.6692445894852,12.4388801968092));
#921=CARTESIAN_POINT('Ctrl Pts',(5.51083470855302,10.3734001291402,12.5388635412059));
#922=CARTESIAN_POINT('Ctrl Pts',(5.39114204099638,10.2342609363231,12.5612495005824));
#923=CARTESIAN_POINT('Ctrl Pts',(5.12934453179023,10.0145867429281,12.5612495005824));
#924=CARTESIAN_POINT('Ctrl Pts',(4.97153476234511,9.9208737432306,12.5388635412059));
#925=CARTESIAN_POINT('Ctrl Pts',(4.64907612433059,9.79582027782302,12.4388801968092));
#926=CARTESIAN_POINT('Ctrl Pts',(4.4850278852202,9.76420499286036,12.359696816216));
#927=CARTESIAN_POINT('Ctrl Pts',(4.21693411645817,9.74486682941779,12.1654299400308));
#928=CARTESIAN_POINT('Ctrl Pts',(4.0834914024139,9.7544915133808,12.0264366282349));
#929=CARTESIAN_POINT('Ctrl Pts',(3.91342899429506,9.77989974704234,11.7682310523717));
#930=CARTESIAN_POINT('Ctrl Pts',(3.84616351545909,9.79660857103955,11.6208770625764));
#931=CARTESIAN_POINT('Ctrl Pts',(3.75951886460259,9.82071977995663,11.3114517432584));
#932=CARTESIAN_POINT('Ctrl Pts',(3.7397454980054,9.8276301748762,11.1494527835341));
#933=CARTESIAN_POINT('Ctrl Pts',(3.7397454980054,9.8276301748762,11.));
#934=CARTESIAN_POINT('',(15.5295333481043,19.7204368098597,11.));
#935=CARTESIAN_POINT('Origin',(4.23178311095804,11.350094948669,0.));
#936=CARTESIAN_POINT('',(5.81655965892057,11.5702841696311,3.));
#937=CARTESIAN_POINT('',(5.81655965892057,11.5702841696311,3.));
#938=CARTESIAN_POINT('',(4.72382072245296,12.8725597229328,3.));
#939=CARTESIAN_POINT('Origin',(4.23178311095804,11.350094948669,3.));
#940=CARTESIAN_POINT('',(4.72382072245296,12.8725597229328,11.));
#941=CARTESIAN_POINT('',(4.72382072245296,12.8725597229328,3.));
#942=CARTESIAN_POINT('',(2.64700656299533,11.1299057277082,11.));
#943=CARTESIAN_POINT('Ctrl Pts',(2.64700656299532,11.1299057277082,11.));
#944=CARTESIAN_POINT('Ctrl Pts',(2.64700656299532,11.1299057277082,11.1494527834046));
#945=CARTESIAN_POINT('Ctrl Pts',(2.64363476160236,11.1505786699002,11.3114517429899));
#946=CARTESIAN_POINT('Ctrl Pts',(2.63493554194353,11.2400938612164,11.6208770620514));
#947=CARTESIAN_POINT('Ctrl Pts',(2.63016109041329,11.3092388830478,11.7682310517292));
#948=CARTESIAN_POINT('Ctrl Pts',(2.63466989230015,11.4811297543448,12.0264366274175));
#949=CARTESIAN_POINT('Ctrl Pts',(2.64836351310815,11.6142164824109,12.1654299391417));
#950=CARTESIAN_POINT('Ctrl Pts',(2.71396188087016,11.874879267303,12.3596968152474));
#951=CARTESIAN_POINT('Ctrl Pts',(2.77358353640227,12.0309453082638,12.4388801958273));
#952=CARTESIAN_POINT('Ctrl Pts',(2.95273151348784,12.3267897683367,12.5388635402184));
#953=CARTESIAN_POINT('Ctrl Pts',(3.07242418096172,12.4659289610386,12.5612494995991));
#954=CARTESIAN_POINT('Ctrl Pts',(3.33422168995747,12.68560315428,12.5612494995991));
#955=CARTESIAN_POINT('Ctrl Pts',(3.4920314592651,12.7793161539323,12.5388635402184));
#956=CARTESIAN_POINT('Ctrl Pts',(3.81449009698421,12.9043696193381,12.4388801958273));
#957=CARTESIAN_POINT('Ctrl Pts',(3.97853833593691,12.935984904345,12.3596968152474));
#958=CARTESIAN_POINT('Ctrl Pts',(4.24663210444021,12.9553230679199,12.1654299391417));
#959=CARTESIAN_POINT('Ctrl Pts',(4.38007481836168,12.9456983840581,12.0264366274175));
#960=CARTESIAN_POINT('Ctrl Pts',(4.55013722631812,12.9202901505547,11.7682310517292));
#961=CARTESIAN_POINT('Ctrl Pts',(4.61740270509233,12.9035813266356,11.6208770620514));
#962=CARTESIAN_POINT('Ctrl Pts',(4.70404735587201,12.8794701178249,11.3114517429899));
#963=CARTESIAN_POINT('Ctrl Pts',(4.72382072245294,12.8725597229328,11.1494527834046));
#964=CARTESIAN_POINT('Ctrl Pts',(4.72382072245294,12.8725597229328,11.));
#965=CARTESIAN_POINT('',(2.64700656299533,11.1299057277082,3.));
#966=CARTESIAN_POINT('',(2.64700656299533,11.1299057277082,3.));
#967=CARTESIAN_POINT('',(3.73974549946185,9.8276301744055,3.));
#968=CARTESIAN_POINT('Origin',(4.23178311095804,11.350094948669,3.));
#969=CARTESIAN_POINT('',(3.73974549946185,9.8276301744055,3.));
#970=CARTESIAN_POINT('',(5.83178311095802,11.350094948669,0.));
#971=CARTESIAN_POINT('',(5.83178311095802,11.350094948669,0.));
#972=CARTESIAN_POINT('Origin',(4.23178311095804,11.350094948669,0.));
#973=CARTESIAN_POINT('Origin',(21.4562224911845,24.6935194840571,0.));
#974=CARTESIAN_POINT('',(23.0086219594601,25.9961373051906,3.));
#975=CARTESIAN_POINT('',(23.0086219594601,25.9961373051906,3.));
#976=CARTESIAN_POINT('',(21.4562224911845,24.6935194840571,3.));
#977=CARTESIAN_POINT('',(18.5755935973431,22.2763848415397,3.));
#978=CARTESIAN_POINT('',(21.4562224911845,24.6935194840571,0.));
#979=CARTESIAN_POINT('',(21.4562224911845,24.6935194840571,0.));
#980=CARTESIAN_POINT('',(8.46387381819327,13.791644505565,0.));
#981=CARTESIAN_POINT('',(21.4562224911845,24.6935194840571,0.));
#982=CARTESIAN_POINT('',(8.46387381819327,13.791644505565,3.));
#983=CARTESIAN_POINT('',(8.46387381819327,13.791644505565,0.));
#984=CARTESIAN_POINT('',(18.5755935973431,22.2763848415397,3.));
#985=CARTESIAN_POINT('Origin',(25.5797723982062,22.9319595327147,3.));
#986=CARTESIAN_POINT('',(25.5797723982062,22.9319595327147,13.));
#987=CARTESIAN_POINT('',(25.5797723982062,22.9319595327147,13.));
#988=CARTESIAN_POINT('',(25.5797723982062,22.9319595327147,3.));
#989=CARTESIAN_POINT('',(25.5797723982062,22.9319595327147,3.));
#990=CARTESIAN_POINT('',(25.0201901120992,23.5988437325349,3.));
#991=CARTESIAN_POINT('Origin',(6.83927986511568,17.2584552879763,11.));
#992=CARTESIAN_POINT('',(21.915883022993,27.2984128584928,11.));
#993=CARTESIAN_POINT('',(20.6303078036199,28.8305017447307,13.));
#994=CARTESIAN_POINT('Origin',(20.6303078036199,28.8305017447307,11.));
#995=CARTESIAN_POINT('',(-6.18124770554425,6.33293540570183,13.));
#996=CARTESIAN_POINT('',(6.83927986511568,17.2584552879763,13.));
#997=CARTESIAN_POINT('',(-4.89567248617121,4.80084651946393,11.));
#998=CARTESIAN_POINT('Origin',(-6.18124770554431,6.3329354057019,11.));
#999=CARTESIAN_POINT('',(8.12485508448877,15.7263664017383,11.));
#1000=CARTESIAN_POINT('',(8.12485508448876,15.7263664017383,11.));
#1001=CARTESIAN_POINT('Origin',(-6.18124770554425,6.33293540570183,0.));
#1002=CARTESIAN_POINT('',(-6.18124770554425,6.33293540570183,0.));
#1003=CARTESIAN_POINT('',(-6.18124770554425,6.33293540570183,0.));
#1004=CARTESIAN_POINT('',(-4.89567248617121,4.80084651946393,0.));
#1005=CARTESIAN_POINT('',(-6.18124770554425,6.33293540570183,0.));
#1006=CARTESIAN_POINT('',(-4.89567248617121,4.80084651946393,0.));
#1007=CARTESIAN_POINT('Origin',(7.63336210184336,17.5817185752163,13.));
#1008=CARTESIAN_POINT('',(19.3447325842468,30.3625906309688,13.));
#1009=CARTESIAN_POINT('',(21.915883022993,27.2984128584928,13.));
#1010=CARTESIAN_POINT('',(-5.93473403867939,9.15059951131283,13.));
#1011=CARTESIAN_POINT('',(22.1901051514357,32.750141702659,13.));
#1012=CARTESIAN_POINT('Origin',(-4.64915881930632,7.61851062507491,13.));
#1013=CARTESIAN_POINT('Origin',(21.915883022993,27.2984128584928,3.));
#1014=CARTESIAN_POINT('',(21.915883022993,27.2984128584928,3.));
#1015=CARTESIAN_POINT('',(21.915883022993,27.2984128584928,3.));
#1016=CARTESIAN_POINT('',(19.3447325842468,30.3625906309688,3.));
#1017=CARTESIAN_POINT('',(23.1882454244925,25.7820703954239,3.));
#1018=CARTESIAN_POINT('',(19.3447325842468,30.3625906309688,3.));
#1019=CARTESIAN_POINT('Origin',(10.888419424251,13.2152652494382,13.));
#1020=CARTESIAN_POINT('',(-1.23178311095801,0.434393193685799,13.));
#1021=CARTESIAN_POINT('',(-3.8029335497042,3.49857096616168,13.));
#1022=CARTESIAN_POINT('',(-1.23178311095801,0.434393193685799,13.));
#1023=CARTESIAN_POINT('Origin',(15.594551101758,16.8262230050534,3.));
#1024=CARTESIAN_POINT('',(33.6288814032862,29.685963930183,3.));
#1025=CARTESIAN_POINT('',(-1.23178311095801,0.434393193685798,3.));
#1026=CARTESIAN_POINT('',(32.3433061839131,33.218052816421,3.));
#1027=CARTESIAN_POINT('Origin',(32.3433061839131,31.218052816421,3.));
#1028=CARTESIAN_POINT('',(23.4756803708088,33.218052816421,3.));
#1029=CARTESIAN_POINT('',(65.8317831109573,33.218052816421,3.));
#1030=CARTESIAN_POINT('',(22.1901051514357,32.750141702659,3.));
#1031=CARTESIAN_POINT('Origin',(23.4756803708088,31.218052816421,3.));
#1032=CARTESIAN_POINT('',(22.7477399022764,33.218052816421,3.));
#1033=CARTESIAN_POINT('',(20.1808963114748,25.8425861487604,3.));
#1034=CARTESIAN_POINT('',(8.88682351060596,16.365733827062,3.));
#1035=CARTESIAN_POINT('',(20.6629870187397,26.0180528164211,3.));
#1036=CARTESIAN_POINT('Origin',(20.6629870187397,25.2680528164211,3.));
#1037=CARTESIAN_POINT('',(20.9741317839492,26.0180528164211,3.));
#1038=CARTESIAN_POINT('',(20.6629870187397,26.0180528164211,3.));
#1039=CARTESIAN_POINT('Origin',(20.9741317839492,25.2680528164211,3.));
#1040=CARTESIAN_POINT('',(27.836876483906,29.6180528164211,3.));
#1041=CARTESIAN_POINT('Origin',(26.2368764839061,29.6180528164211,3.));
#1042=CARTESIAN_POINT('Origin',(15.594551101758,16.8262230050534,3.));
#1043=CARTESIAN_POINT('',(1.23178311095809,7.7231998592055,3.));
#1044=CARTESIAN_POINT('',(8.94115536734394,14.1921312761472,3.));
#1045=CARTESIAN_POINT('',(1.23178311095808,9.94239225107028,3.));
#1046=CARTESIAN_POINT('',(4.07707690629388,12.3298772253275,3.));
#1047=CARTESIAN_POINT('',(1.23178311095808,9.94239225107028,3.));
#1048=CARTESIAN_POINT('Origin',(15.594551101758,16.8262230050534,3.));
#1049=CARTESIAN_POINT('',(7.23178311095802,14.366177837929,3.));
#1050=CARTESIAN_POINT('Origin',(7.98178311095801,14.366177837929,3.));
#1051=CARTESIAN_POINT('',(7.231783110958,14.6272592945177,3.));
#1052=CARTESIAN_POINT('',(7.23178311095802,14.366177837929,3.));
#1053=CARTESIAN_POINT('',(7.49969240369309,15.2017926268569,3.));
#1054=CARTESIAN_POINT('Origin',(7.98178311095799,14.6272592945177,3.));
#1055=CARTESIAN_POINT('',(8.88682351060596,16.365733827062,3.));
#1056=CARTESIAN_POINT('Origin',(23.4756803708088,31.218052816421,0.));
#1057=CARTESIAN_POINT('',(23.4756803708088,33.218052816421,0.));
#1058=CARTESIAN_POINT('',(23.4756803708088,33.218052816421,0.));
#1059=CARTESIAN_POINT('',(22.1901051514357,32.750141702659,0.));
#1060=CARTESIAN_POINT('Origin',(23.4756803708088,31.218052816421,0.));
#1061=CARTESIAN_POINT('',(22.1901051514357,32.750141702659,0.));
#1062=CARTESIAN_POINT('Origin',(22.7477399022764,33.218052816421,0.));
#1063=CARTESIAN_POINT('',(-5.93473403867939,9.15059951131283,0.));
#1064=CARTESIAN_POINT('',(22.7477399022764,33.218052816421,0.));
#1065=CARTESIAN_POINT('',(-5.93473403867939,9.15059951131283,0.));
#1066=CARTESIAN_POINT('Origin',(15.594551101758,16.8262230050534,0.));
#1067=CARTESIAN_POINT('',(32.3433061839131,33.218052816421,0.));
#1068=CARTESIAN_POINT('',(65.8317831109573,33.218052816421,0.));
#1069=CARTESIAN_POINT('',(33.6288814032862,29.685963930183,0.));
#1070=CARTESIAN_POINT('Origin',(32.3433061839131,31.218052816421,0.));
#1071=CARTESIAN_POINT('',(-1.23178311095801,0.434393193685799,0.));
#1072=CARTESIAN_POINT('',(-1.23178311095801,0.434393193685798,0.));
#1073=CARTESIAN_POINT('',(-3.8029335497042,3.49857096616168,0.));
#1074=CARTESIAN_POINT('',(-3.8029335497042,3.49857096616168,0.));
#1075=CARTESIAN_POINT('',(1.23178311095809,7.7231998592055,0.));
#1076=CARTESIAN_POINT('',(1.23178311095809,7.7231998592055,0.));
#1077=CARTESIAN_POINT('',(1.23178311095808,9.94239225107028,0.));
#1078=CARTESIAN_POINT('',(1.23178311095808,9.94239225107028,0.));
#1079=CARTESIAN_POINT('',(-4.89567248617121,4.80084651946393,0.));
#1080=CARTESIAN_POINT('Origin',(-4.64915881930632,7.61851062507491,0.));
#1081=CARTESIAN_POINT('',(27.836876483906,29.6180528164211,0.));
#1082=CARTESIAN_POINT('Origin',(26.2368764839061,29.6180528164211,0.));
#1083=CARTESIAN_POINT('',(20.6629870187397,26.0180528164211,0.));
#1084=CARTESIAN_POINT('',(20.9741317839492,26.0180528164211,0.));
#1085=CARTESIAN_POINT('',(20.6629870187397,26.0180528164211,0.));
#1086=CARTESIAN_POINT('',(20.1808963114748,25.8425861487604,0.));
#1087=CARTESIAN_POINT('Origin',(20.6629870187397,25.2680528164211,0.));
#1088=CARTESIAN_POINT('',(7.49969240369309,15.2017926268569,0.));
#1089=CARTESIAN_POINT('',(7.49969240369309,15.2017926268569,0.));
#1090=CARTESIAN_POINT('',(7.231783110958,14.6272592945177,0.));
#1091=CARTESIAN_POINT('Origin',(7.98178311095799,14.6272592945177,0.));
#1092=CARTESIAN_POINT('',(7.23178311095802,14.366177837929,0.));
#1093=CARTESIAN_POINT('',(7.23178311095802,14.366177837929,0.));
#1094=CARTESIAN_POINT('Origin',(7.98178311095801,14.366177837929,0.));
#1095=CARTESIAN_POINT('Origin',(20.9741317839492,25.2680528164211,0.));
#1096=CARTESIAN_POINT('Origin',(32.3433061839131,31.218052816421,0.));
#1097=CARTESIAN_POINT('',(33.6288814032862,29.685963930183,0.));
#1098=CARTESIAN_POINT('',(32.3433061839131,33.218052816421,0.));
#1099=CARTESIAN_POINT('Origin',(-1.23178311095801,0.434393193685799,0.));
#1100=CARTESIAN_POINT('',(-1.23178311095801,0.434393193685799,0.));
#1101=CARTESIAN_POINT('Origin',(20.6629870187397,25.2680528164211,0.));
#1102=CARTESIAN_POINT('',(20.6629870187397,26.0180528164211,0.));
#1103=CARTESIAN_POINT('',(20.1808963114748,25.8425861487604,0.));
#1104=CARTESIAN_POINT('Origin',(7.49969240369309,15.2017926268569,0.));
#1105=CARTESIAN_POINT('',(7.49969240369309,15.2017926268569,0.));
#1106=CARTESIAN_POINT('Origin',(7.98178311095799,14.6272592945177,0.));
#1107=CARTESIAN_POINT('',(7.231783110958,14.6272592945177,0.));
#1108=CARTESIAN_POINT('Origin',(7.23178311095802,14.366177837929,0.));
#1109=CARTESIAN_POINT('',(7.23178311095802,14.366177837929,0.));
#1110=CARTESIAN_POINT('Origin',(7.98178311095801,14.366177837929,0.));
#1111=CARTESIAN_POINT('Origin',(20.9741317839492,25.2680528164211,0.));
#1112=CARTESIAN_POINT('',(20.9741317839492,26.0180528164211,0.));
#1113=CARTESIAN_POINT('Origin',(20.6629870187397,26.0180528164211,0.));
#1114=CARTESIAN_POINT('Origin',(26.2368764839061,29.6180528164211,0.));
#1115=CARTESIAN_POINT('',(27.836876483906,29.6180528164211,0.));
#1116=CARTESIAN_POINT('Origin',(-4.64915881930632,7.61851062507491,0.));
#1117=CARTESIAN_POINT('Origin',(37.8382610228224,33.218052816421,0.));
#1118=CARTESIAN_POINT('Origin',(-3.8029335497042,3.49857096616168,0.));
#1119=CARTESIAN_POINT('',(-3.8029335497042,3.49857096616168,0.));
#1120=CARTESIAN_POINT('Origin',(1.23178311095809,7.7231998592055,0.));
#1121=CARTESIAN_POINT('',(1.23178311095809,7.7231998592055,0.));
#1122=CARTESIAN_POINT('Origin',(1.23178311095808,9.94239225107028,0.));
#1123=CARTESIAN_POINT('',(1.23178311095808,9.94239225107028,0.));
#1124=CARTESIAN_POINT('Origin',(-4.89567248617121,4.80084651946393,0.));
#1125=UNCERTAINTY_MEASURE_WITH_UNIT(LENGTH_MEASURE(0.01),#1129,
'DISTANCE_ACCURACY_VALUE',
'Maximum model space distance between geometric entities at asserted c
onnectivities');
#1126=UNCERTAINTY_MEASURE_WITH_UNIT(LENGTH_MEASURE(0.01),#1129,
'DISTANCE_ACCURACY_VALUE',
'Maximum model space distance between geometric entities at asserted c
onnectivities');
#1127=(
GEOMETRIC_REPRESENTATION_CONTEXT(3)
GLOBAL_UNCERTAINTY_ASSIGNED_CONTEXT((#1125))
GLOBAL_UNIT_ASSIGNED_CONTEXT((#1129,#1131,#1132))
REPRESENTATION_CONTEXT('','3D')
);
#1128=(
GEOMETRIC_REPRESENTATION_CONTEXT(3)
GLOBAL_UNCERTAINTY_ASSIGNED_CONTEXT((#1126))
GLOBAL_UNIT_ASSIGNED_CONTEXT((#1129,#1131,#1132))
REPRESENTATION_CONTEXT('','3D')
);
#1129=(
LENGTH_UNIT()
NAMED_UNIT(*)
SI_UNIT(.MILLI.,.METRE.)
);
#1130=(
LENGTH_UNIT()
NAMED_UNIT(*)
SI_UNIT(.CENTI.,.METRE.)
);
#1131=(
NAMED_UNIT(*)
PLANE_ANGLE_UNIT()
SI_UNIT($,.RADIAN.)
);
#1132=(
NAMED_UNIT(*)
SI_UNIT($,.STERADIAN.)
SOLID_ANGLE_UNIT()
);
#1133=SHAPE_DEFINITION_REPRESENTATION(#1134,#1135);
#1134=PRODUCT_DEFINITION_SHAPE('',$,#1137);
#1135=SHAPE_REPRESENTATION('',(#664),#1127);
#1136=PRODUCT_DEFINITION_CONTEXT('part definition',#1141,'design');
#1137=PRODUCT_DEFINITION('rpi-mount-clip','rpi-mount-clip',#1138,#1136);
#1138=PRODUCT_DEFINITION_FORMATION('',$,#1143);
#1139=PRODUCT_RELATED_PRODUCT_CATEGORY('rpi-mount-clip',
'rpi-mount-clip',(#1143));
#1140=APPLICATION_PROTOCOL_DEFINITION('international standard',
'automotive_design',2009,#1141);
#1141=APPLICATION_CONTEXT(
'Core Data for Automotive Mechanical Design Process');
#1142=PRODUCT_CONTEXT('part definition',#1141,'mechanical');
#1143=PRODUCT('rpi-mount-clip','rpi-mount-clip',$,(#1142));
#1144=PRESENTATION_STYLE_ASSIGNMENT((#1145));
#1145=SURFACE_STYLE_USAGE(.BOTH.,#1148);
#1146=SURFACE_STYLE_RENDERING_WITH_PROPERTIES($,#1152,(#1147));
#1147=SURFACE_STYLE_TRANSPARENT(0.);
#1148=SURFACE_SIDE_STYLE('',(#1149,#1146));
#1149=SURFACE_STYLE_FILL_AREA(#1150);
#1150=FILL_AREA_STYLE('',(#1151));
#1151=FILL_AREA_STYLE_COLOUR('',#1152);
#1152=COLOUR_RGB('',0.749019607843137,0.749019607843137,0.749019607843137);
ENDSEC;
END-ISO-10303-21;
