ISO-10303-21;
HEADER;
/* Generated by software containing ST-Developer
 * from STEP Tools, Inc. (www.steptools.com) 
 */

FILE_DESCRIPTION(
/* description */ (''),
/* implementation_level */ '2;1');

FILE_NAME(
/* name */ 'skr-mini-mount-clip.stp',
/* time_stamp */ '2024-10-27T21:08:51-04:00',
/* author */ ('Windows 7 was better'),
/* organization */ (''),
/* preprocessor_version */ 'ST-DEVELOPER v20',
/* originating_system */ 'Autodesk Inventor 2025',
/* authorisation */ '');

FILE_SCHEMA (('AUTOMOTIVE_DESIGN { 1 0 10303 214 3 1 1 }'));
ENDSEC;

DATA;
#10=MECHANICAL_DESIGN_GEOMETRIC_PRESENTATION_REPRESENTATION('',(#13),#1051);
#11=SHAPE_REPRESENTATION_RELATIONSHIP('SRR','None',#1058,#12);
#12=ADVANCED_BREP_SHAPE_REPRESENTATION('',(#14),#1050);
#13=STYLED_ITEM('',(#1067),#14);
#14=MANIFOLD_SOLID_BREP('Solid1',#606);
#15=B_SPLINE_CURVE_WITH_KNOTS('',3,(#924,#925,#926,#927),.UNSPECIFIED.,
 .F.,.F.,(4,4),(0.276451046762738,0.307272218567663),.UNSPECIFIED.);
#16=B_SPLINE_CURVE_WITH_KNOTS('',3,(#958,#959,#960,#961,#962,#963,#964,
#965),.UNSPECIFIED.,.F.,.F.,(4,2,2,4),(0.322226942725992,0.384663063885239,
0.447099185044486,0.504049798316916),.UNSPECIFIED.);
#17=B_SPLINE_CURVE_WITH_KNOTS('',3,(#966,#967,#968,#969,#970,#971,#972,
#973),.UNSPECIFIED.,.F.,.F.,(4,2,2,4),(0.504049798316916,0.509824853426325,
0.577139369439154,0.587201460691202),.UNSPECIFIED.);
#18=FACE_BOUND('',#73,.T.);
#19=FACE_BOUND('',#74,.T.);
#20=FACE_BOUND('',#101,.T.);
#21=PLANE('',#635);
#22=PLANE('',#636);
#23=PLANE('',#647);
#24=PLANE('',#651);
#25=PLANE('',#652);
#26=PLANE('',#653);
#27=PLANE('',#657);
#28=PLANE('',#661);
#29=PLANE('',#662);
#30=PLANE('',#663);
#31=PLANE('',#664);
#32=PLANE('',#665);
#33=PLANE('',#669);
#34=PLANE('',#671);
#35=PLANE('',#674);
#36=PLANE('',#677);
#37=PLANE('',#680);
#38=PLANE('',#683);
#39=FACE_OUTER_BOUND('',#69,.T.);
#40=FACE_OUTER_BOUND('',#70,.T.);
#41=FACE_OUTER_BOUND('',#71,.T.);
#42=FACE_OUTER_BOUND('',#72,.T.);
#43=FACE_OUTER_BOUND('',#75,.T.);
#44=FACE_OUTER_BOUND('',#76,.T.);
#45=FACE_OUTER_BOUND('',#77,.T.);
#46=FACE_OUTER_BOUND('',#78,.T.);
#47=FACE_OUTER_BOUND('',#79,.T.);
#48=FACE_OUTER_BOUND('',#80,.T.);
#49=FACE_OUTER_BOUND('',#81,.T.);
#50=FACE_OUTER_BOUND('',#82,.T.);
#51=FACE_OUTER_BOUND('',#83,.T.);
#52=FACE_OUTER_BOUND('',#84,.T.);
#53=FACE_OUTER_BOUND('',#85,.T.);
#54=FACE_OUTER_BOUND('',#86,.T.);
#55=FACE_OUTER_BOUND('',#87,.T.);
#56=FACE_OUTER_BOUND('',#88,.T.);
#57=FACE_OUTER_BOUND('',#89,.T.);
#58=FACE_OUTER_BOUND('',#90,.T.);
#59=FACE_OUTER_BOUND('',#91,.T.);
#60=FACE_OUTER_BOUND('',#92,.T.);
#61=FACE_OUTER_BOUND('',#93,.T.);
#62=FACE_OUTER_BOUND('',#94,.T.);
#63=FACE_OUTER_BOUND('',#95,.T.);
#64=FACE_OUTER_BOUND('',#96,.T.);
#65=FACE_OUTER_BOUND('',#97,.T.);
#66=FACE_OUTER_BOUND('',#98,.T.);
#67=FACE_OUTER_BOUND('',#99,.T.);
#68=FACE_OUTER_BOUND('',#100,.T.);
#69=EDGE_LOOP('',(#390,#391,#392,#393));
#70=EDGE_LOOP('',(#394,#395,#396,#397));
#71=EDGE_LOOP('',(#398,#399,#400,#401));
#72=EDGE_LOOP('',(#402,#403,#404,#405,#406,#407,#408,#409,#410,#411,#412,
#413,#414,#415,#416));
#73=EDGE_LOOP('',(#417));
#74=EDGE_LOOP('',(#418));
#75=EDGE_LOOP('',(#419,#420,#421,#422));
#76=EDGE_LOOP('',(#423,#424,#425,#426));
#77=EDGE_LOOP('',(#427,#428,#429,#430,#431));
#78=EDGE_LOOP('',(#432,#433,#434,#435,#436));
#79=EDGE_LOOP('',(#437,#438,#439,#440));
#80=EDGE_LOOP('',(#441,#442,#443,#444,#445));
#81=EDGE_LOOP('',(#446,#447,#448,#449,#450,#451));
#82=EDGE_LOOP('',(#452,#453,#454,#455,#456));
#83=EDGE_LOOP('',(#457,#458,#459,#460,#461,#462,#463,#464,#465,#466,#467,
#468));
#84=EDGE_LOOP('',(#469,#470,#471,#472));
#85=EDGE_LOOP('',(#473,#474,#475,#476));
#86=EDGE_LOOP('',(#477,#478,#479,#480,#481));
#87=EDGE_LOOP('',(#482,#483,#484,#485));
#88=EDGE_LOOP('',(#486,#487,#488,#489,#490,#491,#492,#493));
#89=EDGE_LOOP('',(#494,#495,#496,#497));
#90=EDGE_LOOP('',(#498,#499,#500,#501));
#91=EDGE_LOOP('',(#502,#503,#504,#505));
#92=EDGE_LOOP('',(#506,#507,#508,#509,#510,#511,#512,#513));
#93=EDGE_LOOP('',(#514,#515,#516,#517));
#94=EDGE_LOOP('',(#518,#519,#520,#521));
#95=EDGE_LOOP('',(#522,#523,#524,#525));
#96=EDGE_LOOP('',(#526,#527,#528,#529));
#97=EDGE_LOOP('',(#530,#531,#532,#533));
#98=EDGE_LOOP('',(#534,#535,#536,#537,#538,#539,#540,#541));
#99=EDGE_LOOP('',(#542,#543,#544,#545));
#100=EDGE_LOOP('',(#546,#547,#548,#549,#550,#551,#552,#553,#554,#555,#556,
#557,#558,#559,#560,#561,#562));
#101=EDGE_LOOP('',(#563));
#102=LINE('',#861,#161);
#103=LINE('',#864,#162);
#104=LINE('',#870,#163);
#105=LINE('',#873,#164);
#106=LINE('',#876,#165);
#107=LINE('',#878,#166);
#108=LINE('',#879,#167);
#109=LINE('',#882,#168);
#110=LINE('',#886,#169);
#111=LINE('',#890,#170);
#112=LINE('',#894,#171);
#113=LINE('',#897,#172);
#114=LINE('',#901,#173);
#115=LINE('',#910,#174);
#116=LINE('',#913,#175);
#117=LINE('',#914,#176);
#118=LINE('',#920,#177);
#119=LINE('',#928,#178);
#120=LINE('',#931,#179);
#121=LINE('',#933,#180);
#122=LINE('',#935,#181);
#123=LINE('',#936,#182);
#124=LINE('',#939,#183);
#125=LINE('',#940,#184);
#126=LINE('',#943,#185);
#127=LINE('',#945,#186);
#128=LINE('',#946,#187);
#129=LINE('',#952,#188);
#130=LINE('',#956,#189);
#131=LINE('',#976,#190);
#132=LINE('',#978,#191);
#133=LINE('',#980,#192);
#134=LINE('',#981,#193);
#135=LINE('',#984,#194);
#136=LINE('',#986,#195);
#137=LINE('',#989,#196);
#138=LINE('',#992,#197);
#139=LINE('',#993,#198);
#140=LINE('',#995,#199);
#141=LINE('',#998,#200);
#142=LINE('',#1000,#201);
#143=LINE('',#1001,#202);
#144=LINE('',#1003,#203);
#145=LINE('',#1006,#204);
#146=LINE('',#1010,#205);
#147=LINE('',#1013,#206);
#148=LINE('',#1015,#207);
#149=LINE('',#1016,#208);
#150=LINE('',#1018,#209);
#151=LINE('',#1020,#210);
#152=LINE('',#1023,#211);
#153=LINE('',#1024,#212);
#154=LINE('',#1029,#213);
#155=LINE('',#1030,#214);
#156=LINE('',#1032,#215);
#157=LINE('',#1036,#216);
#158=LINE('',#1039,#217);
#159=LINE('',#1040,#218);
#160=LINE('',#1044,#219);
#161=VECTOR('',#690,2.);
#162=VECTOR('',#693,10.);
#163=VECTOR('',#698,10.);
#164=VECTOR('',#701,10.);
#165=VECTOR('',#704,10.);
#166=VECTOR('',#705,10.);
#167=VECTOR('',#706,10.);
#168=VECTOR('',#709,10.);
#169=VECTOR('',#712,10.);
#170=VECTOR('',#715,10.);
#171=VECTOR('',#718,10.);
#172=VECTOR('',#721,10.);
#173=VECTOR('',#724,10.);
#174=VECTOR('',#735,10.);
#175=VECTOR('',#738,10.);
#176=VECTOR('',#739,10.);
#177=VECTOR('',#744,10.);
#178=VECTOR('',#747,10.);
#179=VECTOR('',#750,10.);
#180=VECTOR('',#751,10.);
#181=VECTOR('',#752,10.);
#182=VECTOR('',#753,10.);
#183=VECTOR('',#756,10.);
#184=VECTOR('',#757,10.);
#185=VECTOR('',#760,10.);
#186=VECTOR('',#761,10.);
#187=VECTOR('',#762,10.);
#188=VECTOR('',#767,10.);
#189=VECTOR('',#770,10.);
#190=VECTOR('',#773,10.);
#191=VECTOR('',#774,10.);
#192=VECTOR('',#775,10.);
#193=VECTOR('',#776,10.);
#194=VECTOR('',#781,1.59999999999998);
#195=VECTOR('',#782,10.);
#196=VECTOR('',#785,10.);
#197=VECTOR('',#788,10.);
#198=VECTOR('',#789,10.);
#199=VECTOR('',#792,10.);
#200=VECTOR('',#795,10.);
#201=VECTOR('',#796,10.);
#202=VECTOR('',#797,10.);
#203=VECTOR('',#800,10.);
#204=VECTOR('',#803,10.);
#205=VECTOR('',#806,10.);
#206=VECTOR('',#809,10.);
#207=VECTOR('',#812,10.);
#208=VECTOR('',#813,10.);
#209=VECTOR('',#816,10.);
#210=VECTOR('',#819,10.);
#211=VECTOR('',#822,10.);
#212=VECTOR('',#823,10.);
#213=VECTOR('',#828,10.);
#214=VECTOR('',#829,10.);
#215=VECTOR('',#832,10.);
#216=VECTOR('',#837,1.59999999999998);
#217=VECTOR('',#840,10.);
#218=VECTOR('',#841,10.);
#219=VECTOR('',#848,10.);
#220=CIRCLE('',#630,2.);
#221=CIRCLE('',#631,2.);
#222=CIRCLE('',#633,2.);
#223=CIRCLE('',#634,2.);
#224=CIRCLE('',#637,1.99999999999998);
#225=CIRCLE('',#638,2.);
#226=CIRCLE('',#639,2.);
#227=CIRCLE('',#640,2.);
#228=CIRCLE('',#641,2.99999999999997);
#229=CIRCLE('',#642,2.);
#230=CIRCLE('',#643,1.59999999999998);
#231=CIRCLE('',#644,1.59999999999998);
#232=CIRCLE('',#646,2.);
#233=CIRCLE('',#649,2.);
#234=CIRCLE('',#650,2.);
#235=CIRCLE('',#655,2.);
#236=CIRCLE('',#656,2.);
#237=CIRCLE('',#659,1.59999999999998);
#238=CIRCLE('',#660,1.59999999999998);
#239=CIRCLE('',#666,2.);
#240=CIRCLE('',#667,2.);
#241=CIRCLE('',#673,2.);
#242=CIRCLE('',#676,1.59999999999998);
#243=CIRCLE('',#679,1.99999999999998);
#244=CIRCLE('',#682,2.99999999999997);
#245=VERTEX_POINT('',#857);
#246=VERTEX_POINT('',#858);
#247=VERTEX_POINT('',#860);
#248=VERTEX_POINT('',#862);
#249=VERTEX_POINT('',#866);
#250=VERTEX_POINT('',#867);
#251=VERTEX_POINT('',#869);
#252=VERTEX_POINT('',#871);
#253=VERTEX_POINT('',#875);
#254=VERTEX_POINT('',#877);
#255=VERTEX_POINT('',#881);
#256=VERTEX_POINT('',#883);
#257=VERTEX_POINT('',#885);
#258=VERTEX_POINT('',#887);
#259=VERTEX_POINT('',#889);
#260=VERTEX_POINT('',#891);
#261=VERTEX_POINT('',#893);
#262=VERTEX_POINT('',#895);
#263=VERTEX_POINT('',#898);
#264=VERTEX_POINT('',#900);
#265=VERTEX_POINT('',#903);
#266=VERTEX_POINT('',#905);
#267=VERTEX_POINT('',#908);
#268=VERTEX_POINT('',#912);
#269=VERTEX_POINT('',#916);
#270=VERTEX_POINT('',#917);
#271=VERTEX_POINT('',#919);
#272=VERTEX_POINT('',#921);
#273=VERTEX_POINT('',#923);
#274=VERTEX_POINT('',#930);
#275=VERTEX_POINT('',#932);
#276=VERTEX_POINT('',#934);
#277=VERTEX_POINT('',#938);
#278=VERTEX_POINT('',#942);
#279=VERTEX_POINT('',#944);
#280=VERTEX_POINT('',#948);
#281=VERTEX_POINT('',#949);
#282=VERTEX_POINT('',#951);
#283=VERTEX_POINT('',#953);
#284=VERTEX_POINT('',#955);
#285=VERTEX_POINT('',#957);
#286=VERTEX_POINT('',#975);
#287=VERTEX_POINT('',#977);
#288=VERTEX_POINT('',#979);
#289=VERTEX_POINT('',#985);
#290=VERTEX_POINT('',#987);
#291=VERTEX_POINT('',#991);
#292=VERTEX_POINT('',#997);
#293=VERTEX_POINT('',#999);
#294=VERTEX_POINT('',#1005);
#295=VERTEX_POINT('',#1007);
#296=VERTEX_POINT('',#1009);
#297=VERTEX_POINT('',#1011);
#298=VERTEX_POINT('',#1022);
#299=VERTEX_POINT('',#1026);
#300=VERTEX_POINT('',#1027);
#301=VERTEX_POINT('',#1034);
#302=VERTEX_POINT('',#1038);
#303=EDGE_CURVE('',#245,#246,#220,.T.);
#304=EDGE_CURVE('',#246,#247,#102,.T.);
#305=EDGE_CURVE('',#248,#247,#221,.F.);
#306=EDGE_CURVE('',#248,#245,#103,.T.);
#307=EDGE_CURVE('',#249,#250,#222,.T.);
#308=EDGE_CURVE('',#250,#251,#104,.T.);
#309=EDGE_CURVE('',#251,#252,#223,.T.);
#310=EDGE_CURVE('',#252,#249,#105,.T.);
#311=EDGE_CURVE('',#252,#253,#106,.T.);
#312=EDGE_CURVE('',#254,#253,#107,.T.);
#313=EDGE_CURVE('',#249,#254,#108,.T.);
#314=EDGE_CURVE('',#255,#251,#109,.T.);
#315=EDGE_CURVE('',#256,#255,#224,.T.);
#316=EDGE_CURVE('',#257,#256,#110,.T.);
#317=EDGE_CURVE('',#258,#257,#225,.T.);
#318=EDGE_CURVE('',#259,#258,#111,.T.);
#319=EDGE_CURVE('',#260,#259,#226,.T.);
#320=EDGE_CURVE('',#261,#260,#112,.T.);
#321=EDGE_CURVE('',#262,#261,#227,.T.);
#322=EDGE_CURVE('',#248,#262,#113,.T.);
#323=EDGE_CURVE('',#263,#247,#228,.T.);
#324=EDGE_CURVE('',#264,#263,#114,.T.);
#325=EDGE_CURVE('',#253,#264,#229,.T.);
#326=EDGE_CURVE('',#265,#265,#230,.T.);
#327=EDGE_CURVE('',#266,#266,#231,.T.);
#328=EDGE_CURVE('',#267,#254,#232,.T.);
#329=EDGE_CURVE('',#264,#267,#115,.T.);
#330=EDGE_CURVE('',#263,#268,#116,.T.);
#331=EDGE_CURVE('',#267,#268,#117,.T.);
#332=EDGE_CURVE('',#269,#270,#233,.T.);
#333=EDGE_CURVE('',#270,#271,#118,.T.);
#334=EDGE_CURVE('',#271,#272,#234,.T.);
#335=EDGE_CURVE('',#272,#273,#15,.T.);
#336=EDGE_CURVE('',#273,#269,#119,.T.);
#337=EDGE_CURVE('',#274,#271,#120,.T.);
#338=EDGE_CURVE('',#275,#274,#121,.T.);
#339=EDGE_CURVE('',#276,#275,#122,.T.);
#340=EDGE_CURVE('',#276,#272,#123,.T.);
#341=EDGE_CURVE('',#270,#277,#124,.T.);
#342=EDGE_CURVE('',#277,#274,#125,.T.);
#343=EDGE_CURVE('',#278,#269,#126,.T.);
#344=EDGE_CURVE('',#279,#278,#127,.T.);
#345=EDGE_CURVE('',#279,#277,#128,.T.);
#346=EDGE_CURVE('',#280,#281,#235,.T.);
#347=EDGE_CURVE('',#281,#282,#129,.T.);
#348=EDGE_CURVE('',#282,#283,#236,.T.);
#349=EDGE_CURVE('',#283,#284,#130,.T.);
#350=EDGE_CURVE('',#284,#285,#16,.T.);
#351=EDGE_CURVE('',#285,#280,#17,.T.);
#352=EDGE_CURVE('',#286,#280,#131,.T.);
#353=EDGE_CURVE('',#287,#286,#132,.T.);
#354=EDGE_CURVE('',#287,#288,#133,.T.);
#355=EDGE_CURVE('',#281,#288,#134,.T.);
#356=EDGE_CURVE('',#286,#276,#237,.T.);
#357=EDGE_CURVE('',#285,#266,#135,.T.);
#358=EDGE_CURVE('',#289,#284,#136,.T.);
#359=EDGE_CURVE('',#290,#289,#238,.T.);
#360=EDGE_CURVE('',#290,#273,#137,.T.);
#361=EDGE_CURVE('',#291,#283,#138,.T.);
#362=EDGE_CURVE('',#289,#291,#139,.T.);
#363=EDGE_CURVE('',#278,#290,#140,.T.);
#364=EDGE_CURVE('',#292,#282,#141,.T.);
#365=EDGE_CURVE('',#293,#292,#142,.T.);
#366=EDGE_CURVE('',#291,#293,#143,.T.);
#367=EDGE_CURVE('',#288,#292,#144,.T.);
#368=EDGE_CURVE('',#275,#294,#145,.T.);
#369=EDGE_CURVE('',#295,#294,#239,.T.);
#370=EDGE_CURVE('',#295,#296,#146,.T.);
#371=EDGE_CURVE('',#297,#296,#240,.T.);
#372=EDGE_CURVE('',#297,#287,#147,.T.);
#373=EDGE_CURVE('',#294,#260,#148,.T.);
#374=EDGE_CURVE('',#259,#295,#149,.T.);
#375=EDGE_CURVE('',#296,#258,#150,.T.);
#376=EDGE_CURVE('',#257,#297,#151,.T.);
#377=EDGE_CURVE('',#256,#298,#152,.T.);
#378=EDGE_CURVE('',#293,#298,#153,.T.);
#379=EDGE_CURVE('',#299,#300,#241,.T.);
#380=EDGE_CURVE('',#300,#262,#154,.T.);
#381=EDGE_CURVE('',#261,#299,#155,.T.);
#382=EDGE_CURVE('',#245,#300,#156,.T.);
#383=EDGE_CURVE('',#301,#301,#242,.T.);
#384=EDGE_CURVE('',#301,#265,#157,.T.);
#385=EDGE_CURVE('',#302,#250,#158,.T.);
#386=EDGE_CURVE('',#255,#302,#159,.T.);
#387=EDGE_CURVE('',#298,#302,#243,.T.);
#388=EDGE_CURVE('',#299,#279,#160,.T.);
#389=EDGE_CURVE('',#268,#246,#244,.T.);
#390=ORIENTED_EDGE('',*,*,#303,.T.);
#391=ORIENTED_EDGE('',*,*,#304,.T.);
#392=ORIENTED_EDGE('',*,*,#305,.F.);
#393=ORIENTED_EDGE('',*,*,#306,.T.);
#394=ORIENTED_EDGE('',*,*,#307,.T.);
#395=ORIENTED_EDGE('',*,*,#308,.T.);
#396=ORIENTED_EDGE('',*,*,#309,.T.);
#397=ORIENTED_EDGE('',*,*,#310,.T.);
#398=ORIENTED_EDGE('',*,*,#310,.F.);
#399=ORIENTED_EDGE('',*,*,#311,.T.);
#400=ORIENTED_EDGE('',*,*,#312,.F.);
#401=ORIENTED_EDGE('',*,*,#313,.F.);
#402=ORIENTED_EDGE('',*,*,#309,.F.);
#403=ORIENTED_EDGE('',*,*,#314,.F.);
#404=ORIENTED_EDGE('',*,*,#315,.F.);
#405=ORIENTED_EDGE('',*,*,#316,.F.);
#406=ORIENTED_EDGE('',*,*,#317,.F.);
#407=ORIENTED_EDGE('',*,*,#318,.F.);
#408=ORIENTED_EDGE('',*,*,#319,.F.);
#409=ORIENTED_EDGE('',*,*,#320,.F.);
#410=ORIENTED_EDGE('',*,*,#321,.F.);
#411=ORIENTED_EDGE('',*,*,#322,.F.);
#412=ORIENTED_EDGE('',*,*,#305,.T.);
#413=ORIENTED_EDGE('',*,*,#323,.F.);
#414=ORIENTED_EDGE('',*,*,#324,.F.);
#415=ORIENTED_EDGE('',*,*,#325,.F.);
#416=ORIENTED_EDGE('',*,*,#311,.F.);
#417=ORIENTED_EDGE('',*,*,#326,.F.);
#418=ORIENTED_EDGE('',*,*,#327,.F.);
#419=ORIENTED_EDGE('',*,*,#328,.T.);
#420=ORIENTED_EDGE('',*,*,#312,.T.);
#421=ORIENTED_EDGE('',*,*,#325,.T.);
#422=ORIENTED_EDGE('',*,*,#329,.T.);
#423=ORIENTED_EDGE('',*,*,#329,.F.);
#424=ORIENTED_EDGE('',*,*,#324,.T.);
#425=ORIENTED_EDGE('',*,*,#330,.T.);
#426=ORIENTED_EDGE('',*,*,#331,.F.);
#427=ORIENTED_EDGE('',*,*,#332,.T.);
#428=ORIENTED_EDGE('',*,*,#333,.T.);
#429=ORIENTED_EDGE('',*,*,#334,.T.);
#430=ORIENTED_EDGE('',*,*,#335,.T.);
#431=ORIENTED_EDGE('',*,*,#336,.T.);
#432=ORIENTED_EDGE('',*,*,#334,.F.);
#433=ORIENTED_EDGE('',*,*,#337,.F.);
#434=ORIENTED_EDGE('',*,*,#338,.F.);
#435=ORIENTED_EDGE('',*,*,#339,.F.);
#436=ORIENTED_EDGE('',*,*,#340,.T.);
#437=ORIENTED_EDGE('',*,*,#333,.F.);
#438=ORIENTED_EDGE('',*,*,#341,.T.);
#439=ORIENTED_EDGE('',*,*,#342,.T.);
#440=ORIENTED_EDGE('',*,*,#337,.T.);
#441=ORIENTED_EDGE('',*,*,#332,.F.);
#442=ORIENTED_EDGE('',*,*,#343,.F.);
#443=ORIENTED_EDGE('',*,*,#344,.F.);
#444=ORIENTED_EDGE('',*,*,#345,.T.);
#445=ORIENTED_EDGE('',*,*,#341,.F.);
#446=ORIENTED_EDGE('',*,*,#346,.T.);
#447=ORIENTED_EDGE('',*,*,#347,.T.);
#448=ORIENTED_EDGE('',*,*,#348,.T.);
#449=ORIENTED_EDGE('',*,*,#349,.T.);
#450=ORIENTED_EDGE('',*,*,#350,.T.);
#451=ORIENTED_EDGE('',*,*,#351,.T.);
#452=ORIENTED_EDGE('',*,*,#346,.F.);
#453=ORIENTED_EDGE('',*,*,#352,.F.);
#454=ORIENTED_EDGE('',*,*,#353,.F.);
#455=ORIENTED_EDGE('',*,*,#354,.T.);
#456=ORIENTED_EDGE('',*,*,#355,.F.);
#457=ORIENTED_EDGE('',*,*,#335,.F.);
#458=ORIENTED_EDGE('',*,*,#340,.F.);
#459=ORIENTED_EDGE('',*,*,#356,.F.);
#460=ORIENTED_EDGE('',*,*,#352,.T.);
#461=ORIENTED_EDGE('',*,*,#351,.F.);
#462=ORIENTED_EDGE('',*,*,#357,.T.);
#463=ORIENTED_EDGE('',*,*,#327,.T.);
#464=ORIENTED_EDGE('',*,*,#357,.F.);
#465=ORIENTED_EDGE('',*,*,#350,.F.);
#466=ORIENTED_EDGE('',*,*,#358,.F.);
#467=ORIENTED_EDGE('',*,*,#359,.F.);
#468=ORIENTED_EDGE('',*,*,#360,.T.);
#469=ORIENTED_EDGE('',*,*,#349,.F.);
#470=ORIENTED_EDGE('',*,*,#361,.F.);
#471=ORIENTED_EDGE('',*,*,#362,.F.);
#472=ORIENTED_EDGE('',*,*,#358,.T.);
#473=ORIENTED_EDGE('',*,*,#336,.F.);
#474=ORIENTED_EDGE('',*,*,#360,.F.);
#475=ORIENTED_EDGE('',*,*,#363,.F.);
#476=ORIENTED_EDGE('',*,*,#343,.T.);
#477=ORIENTED_EDGE('',*,*,#348,.F.);
#478=ORIENTED_EDGE('',*,*,#364,.F.);
#479=ORIENTED_EDGE('',*,*,#365,.F.);
#480=ORIENTED_EDGE('',*,*,#366,.F.);
#481=ORIENTED_EDGE('',*,*,#361,.T.);
#482=ORIENTED_EDGE('',*,*,#347,.F.);
#483=ORIENTED_EDGE('',*,*,#355,.T.);
#484=ORIENTED_EDGE('',*,*,#367,.T.);
#485=ORIENTED_EDGE('',*,*,#364,.T.);
#486=ORIENTED_EDGE('',*,*,#339,.T.);
#487=ORIENTED_EDGE('',*,*,#368,.T.);
#488=ORIENTED_EDGE('',*,*,#369,.F.);
#489=ORIENTED_EDGE('',*,*,#370,.T.);
#490=ORIENTED_EDGE('',*,*,#371,.F.);
#491=ORIENTED_EDGE('',*,*,#372,.T.);
#492=ORIENTED_EDGE('',*,*,#353,.T.);
#493=ORIENTED_EDGE('',*,*,#356,.T.);
#494=ORIENTED_EDGE('',*,*,#369,.T.);
#495=ORIENTED_EDGE('',*,*,#373,.T.);
#496=ORIENTED_EDGE('',*,*,#319,.T.);
#497=ORIENTED_EDGE('',*,*,#374,.T.);
#498=ORIENTED_EDGE('',*,*,#374,.F.);
#499=ORIENTED_EDGE('',*,*,#318,.T.);
#500=ORIENTED_EDGE('',*,*,#375,.F.);
#501=ORIENTED_EDGE('',*,*,#370,.F.);
#502=ORIENTED_EDGE('',*,*,#371,.T.);
#503=ORIENTED_EDGE('',*,*,#375,.T.);
#504=ORIENTED_EDGE('',*,*,#317,.T.);
#505=ORIENTED_EDGE('',*,*,#376,.T.);
#506=ORIENTED_EDGE('',*,*,#376,.F.);
#507=ORIENTED_EDGE('',*,*,#316,.T.);
#508=ORIENTED_EDGE('',*,*,#377,.T.);
#509=ORIENTED_EDGE('',*,*,#378,.F.);
#510=ORIENTED_EDGE('',*,*,#365,.T.);
#511=ORIENTED_EDGE('',*,*,#367,.F.);
#512=ORIENTED_EDGE('',*,*,#354,.F.);
#513=ORIENTED_EDGE('',*,*,#372,.F.);
#514=ORIENTED_EDGE('',*,*,#379,.T.);
#515=ORIENTED_EDGE('',*,*,#380,.T.);
#516=ORIENTED_EDGE('',*,*,#321,.T.);
#517=ORIENTED_EDGE('',*,*,#381,.T.);
#518=ORIENTED_EDGE('',*,*,#380,.F.);
#519=ORIENTED_EDGE('',*,*,#382,.F.);
#520=ORIENTED_EDGE('',*,*,#306,.F.);
#521=ORIENTED_EDGE('',*,*,#322,.T.);
#522=ORIENTED_EDGE('',*,*,#383,.F.);
#523=ORIENTED_EDGE('',*,*,#384,.T.);
#524=ORIENTED_EDGE('',*,*,#326,.T.);
#525=ORIENTED_EDGE('',*,*,#384,.F.);
#526=ORIENTED_EDGE('',*,*,#308,.F.);
#527=ORIENTED_EDGE('',*,*,#385,.F.);
#528=ORIENTED_EDGE('',*,*,#386,.F.);
#529=ORIENTED_EDGE('',*,*,#314,.T.);
#530=ORIENTED_EDGE('',*,*,#315,.T.);
#531=ORIENTED_EDGE('',*,*,#386,.T.);
#532=ORIENTED_EDGE('',*,*,#387,.F.);
#533=ORIENTED_EDGE('',*,*,#377,.F.);
#534=ORIENTED_EDGE('',*,*,#373,.F.);
#535=ORIENTED_EDGE('',*,*,#368,.F.);
#536=ORIENTED_EDGE('',*,*,#338,.T.);
#537=ORIENTED_EDGE('',*,*,#342,.F.);
#538=ORIENTED_EDGE('',*,*,#345,.F.);
#539=ORIENTED_EDGE('',*,*,#388,.F.);
#540=ORIENTED_EDGE('',*,*,#381,.F.);
#541=ORIENTED_EDGE('',*,*,#320,.T.);
#542=ORIENTED_EDGE('',*,*,#304,.F.);
#543=ORIENTED_EDGE('',*,*,#389,.F.);
#544=ORIENTED_EDGE('',*,*,#330,.F.);
#545=ORIENTED_EDGE('',*,*,#323,.T.);
#546=ORIENTED_EDGE('',*,*,#307,.F.);
#547=ORIENTED_EDGE('',*,*,#313,.T.);
#548=ORIENTED_EDGE('',*,*,#328,.F.);
#549=ORIENTED_EDGE('',*,*,#331,.T.);
#550=ORIENTED_EDGE('',*,*,#389,.T.);
#551=ORIENTED_EDGE('',*,*,#303,.F.);
#552=ORIENTED_EDGE('',*,*,#382,.T.);
#553=ORIENTED_EDGE('',*,*,#379,.F.);
#554=ORIENTED_EDGE('',*,*,#388,.T.);
#555=ORIENTED_EDGE('',*,*,#344,.T.);
#556=ORIENTED_EDGE('',*,*,#363,.T.);
#557=ORIENTED_EDGE('',*,*,#359,.T.);
#558=ORIENTED_EDGE('',*,*,#362,.T.);
#559=ORIENTED_EDGE('',*,*,#366,.T.);
#560=ORIENTED_EDGE('',*,*,#378,.T.);
#561=ORIENTED_EDGE('',*,*,#387,.T.);
#562=ORIENTED_EDGE('',*,*,#385,.T.);
#563=ORIENTED_EDGE('',*,*,#383,.T.);
#564=CYLINDRICAL_SURFACE('',#629,2.);
#565=CYLINDRICAL_SURFACE('',#632,2.);
#566=CYLINDRICAL_SURFACE('',#645,2.);
#567=CYLINDRICAL_SURFACE('',#648,2.);
#568=CYLINDRICAL_SURFACE('',#654,2.);
#569=CYLINDRICAL_SURFACE('',#658,1.59999999999998);
#570=CYLINDRICAL_SURFACE('',#668,2.);
#571=CYLINDRICAL_SURFACE('',#670,2.);
#572=CYLINDRICAL_SURFACE('',#672,2.);
#573=CYLINDRICAL_SURFACE('',#675,1.59999999999998);
#574=CYLINDRICAL_SURFACE('',#678,1.99999999999998);
#575=CYLINDRICAL_SURFACE('',#681,2.99999999999997);
#576=ADVANCED_FACE('',(#39),#564,.F.);
#577=ADVANCED_FACE('',(#40),#565,.T.);
#578=ADVANCED_FACE('',(#41),#21,.T.);
#579=ADVANCED_FACE('',(#42,#18,#19),#22,.F.);
#580=ADVANCED_FACE('',(#43),#566,.T.);
#581=ADVANCED_FACE('',(#44),#23,.T.);
#582=ADVANCED_FACE('',(#45),#567,.T.);
#583=ADVANCED_FACE('',(#46),#24,.T.);
#584=ADVANCED_FACE('',(#47),#25,.T.);
#585=ADVANCED_FACE('',(#48),#26,.T.);
#586=ADVANCED_FACE('',(#49),#568,.T.);
#587=ADVANCED_FACE('',(#50),#27,.T.);
#588=ADVANCED_FACE('',(#51),#569,.F.);
#589=ADVANCED_FACE('',(#52),#28,.T.);
#590=ADVANCED_FACE('',(#53),#29,.T.);
#591=ADVANCED_FACE('',(#54),#30,.T.);
#592=ADVANCED_FACE('',(#55),#31,.T.);
#593=ADVANCED_FACE('',(#56),#32,.T.);
#594=ADVANCED_FACE('',(#57),#570,.T.);
#595=ADVANCED_FACE('',(#58),#33,.T.);
#596=ADVANCED_FACE('',(#59),#571,.T.);
#597=ADVANCED_FACE('',(#60),#34,.T.);
#598=ADVANCED_FACE('',(#61),#572,.T.);
#599=ADVANCED_FACE('',(#62),#35,.T.);
#600=ADVANCED_FACE('',(#63),#573,.F.);
#601=ADVANCED_FACE('',(#64),#36,.T.);
#602=ADVANCED_FACE('',(#65),#574,.F.);
#603=ADVANCED_FACE('',(#66),#37,.T.);
#604=ADVANCED_FACE('',(#67),#575,.T.);
#605=ADVANCED_FACE('',(#68,#20),#38,.T.);
#606=CLOSED_SHELL('',(#576,#577,#578,#579,#580,#581,#582,#583,#584,#585,
#586,#587,#588,#589,#590,#591,#592,#593,#594,#595,#596,#597,#598,#599,#600,
#601,#602,#603,#604,#605));
#607=DERIVED_UNIT_ELEMENT(#610,1.);
#608=DERIVED_UNIT_ELEMENT(#1053,-3.);
#609=DIMENSIONAL_EXPONENTS(0.,1.,0.,0.,0.,0.,0.);
#610=(
CONVERSION_BASED_UNIT('gram',#612)
MASS_UNIT()
NAMED_UNIT(#609)
);
#611=(
MASS_UNIT()
NAMED_UNIT(*)
SI_UNIT(.KILO.,.GRAM.)
);
#612=MASS_MEASURE_WITH_UNIT(MASS_MEASURE(0.001),#611);
#613=DERIVED_UNIT((#607,#608));
#614=MEASURE_REPRESENTATION_ITEM('density measure',
POSITIVE_RATIO_MEASURE(1.),#613);
#615=PROPERTY_DEFINITION_REPRESENTATION(#620,#617);
#616=PROPERTY_DEFINITION_REPRESENTATION(#621,#618);
#617=REPRESENTATION('material name',(#619),#1050);
#618=REPRESENTATION('density',(#614),#1050);
#619=DESCRIPTIVE_REPRESENTATION_ITEM('Generic','Generic');
#620=PROPERTY_DEFINITION('material property','material name',#1060);
#621=PROPERTY_DEFINITION('material property','density of part',#1060);
#622=DATE_TIME_ROLE('creation_date');
#623=APPLIED_DATE_AND_TIME_ASSIGNMENT(#624,#622,(#1060));
#624=DATE_AND_TIME(#625,#626);
#625=CALENDAR_DATE(2024,27,10);
#626=LOCAL_TIME(0,0,0.,#627);
#627=COORDINATED_UNIVERSAL_TIME_OFFSET(0,0,.BEHIND.);
#628=AXIS2_PLACEMENT_3D('',#855,#684,#685);
#629=AXIS2_PLACEMENT_3D('',#856,#686,#687);
#630=AXIS2_PLACEMENT_3D('',#859,#688,#689);
#631=AXIS2_PLACEMENT_3D('',#863,#691,#692);
#632=AXIS2_PLACEMENT_3D('',#865,#694,#695);
#633=AXIS2_PLACEMENT_3D('',#868,#696,#697);
#634=AXIS2_PLACEMENT_3D('',#872,#699,#700);
#635=AXIS2_PLACEMENT_3D('',#874,#702,#703);
#636=AXIS2_PLACEMENT_3D('',#880,#707,#708);
#637=AXIS2_PLACEMENT_3D('',#884,#710,#711);
#638=AXIS2_PLACEMENT_3D('',#888,#713,#714);
#639=AXIS2_PLACEMENT_3D('',#892,#716,#717);
#640=AXIS2_PLACEMENT_3D('',#896,#719,#720);
#641=AXIS2_PLACEMENT_3D('',#899,#722,#723);
#642=AXIS2_PLACEMENT_3D('',#902,#725,#726);
#643=AXIS2_PLACEMENT_3D('',#904,#727,#728);
#644=AXIS2_PLACEMENT_3D('',#906,#729,#730);
#645=AXIS2_PLACEMENT_3D('',#907,#731,#732);
#646=AXIS2_PLACEMENT_3D('',#909,#733,#734);
#647=AXIS2_PLACEMENT_3D('',#911,#736,#737);
#648=AXIS2_PLACEMENT_3D('',#915,#740,#741);
#649=AXIS2_PLACEMENT_3D('',#918,#742,#743);
#650=AXIS2_PLACEMENT_3D('',#922,#745,#746);
#651=AXIS2_PLACEMENT_3D('',#929,#748,#749);
#652=AXIS2_PLACEMENT_3D('',#937,#754,#755);
#653=AXIS2_PLACEMENT_3D('',#941,#758,#759);
#654=AXIS2_PLACEMENT_3D('',#947,#763,#764);
#655=AXIS2_PLACEMENT_3D('',#950,#765,#766);
#656=AXIS2_PLACEMENT_3D('',#954,#768,#769);
#657=AXIS2_PLACEMENT_3D('',#974,#771,#772);
#658=AXIS2_PLACEMENT_3D('',#982,#777,#778);
#659=AXIS2_PLACEMENT_3D('',#983,#779,#780);
#660=AXIS2_PLACEMENT_3D('',#988,#783,#784);
#661=AXIS2_PLACEMENT_3D('',#990,#786,#787);
#662=AXIS2_PLACEMENT_3D('',#994,#790,#791);
#663=AXIS2_PLACEMENT_3D('',#996,#793,#794);
#664=AXIS2_PLACEMENT_3D('',#1002,#798,#799);
#665=AXIS2_PLACEMENT_3D('',#1004,#801,#802);
#666=AXIS2_PLACEMENT_3D('',#1008,#804,#805);
#667=AXIS2_PLACEMENT_3D('',#1012,#807,#808);
#668=AXIS2_PLACEMENT_3D('',#1014,#810,#811);
#669=AXIS2_PLACEMENT_3D('',#1017,#814,#815);
#670=AXIS2_PLACEMENT_3D('',#1019,#817,#818);
#671=AXIS2_PLACEMENT_3D('',#1021,#820,#821);
#672=AXIS2_PLACEMENT_3D('',#1025,#824,#825);
#673=AXIS2_PLACEMENT_3D('',#1028,#826,#827);
#674=AXIS2_PLACEMENT_3D('',#1031,#830,#831);
#675=AXIS2_PLACEMENT_3D('',#1033,#833,#834);
#676=AXIS2_PLACEMENT_3D('',#1035,#835,#836);
#677=AXIS2_PLACEMENT_3D('',#1037,#838,#839);
#678=AXIS2_PLACEMENT_3D('',#1041,#842,#843);
#679=AXIS2_PLACEMENT_3D('',#1042,#844,#845);
#680=AXIS2_PLACEMENT_3D('',#1043,#846,#847);
#681=AXIS2_PLACEMENT_3D('',#1045,#849,#850);
#682=AXIS2_PLACEMENT_3D('',#1046,#851,#852);
#683=AXIS2_PLACEMENT_3D('',#1047,#853,#854);
#684=DIRECTION('axis',(0.,0.,1.));
#685=DIRECTION('refdir',(1.,0.,0.));
#686=DIRECTION('center_axis',(0.,0.,1.));
#687=DIRECTION('ref_axis',(-0.158123425348775,-0.98741935486194,0.));
#688=DIRECTION('center_axis',(0.,0.,1.));
#689=DIRECTION('ref_axis',(-0.158123425348775,-0.98741935486194,0.));
#690=DIRECTION('',(0.,0.,-1.));
#691=DIRECTION('center_axis',(0.,0.,-1.));
#692=DIRECTION('ref_axis',(-0.158123425348775,-0.98741935486194,0.));
#693=DIRECTION('',(0.,0.,1.));
#694=DIRECTION('center_axis',(0.,0.,1.));
#695=DIRECTION('ref_axis',(-0.308222908551025,-0.951314164009107,0.));
#696=DIRECTION('center_axis',(0.,0.,-1.));
#697=DIRECTION('ref_axis',(-0.308222908551025,-0.951314164009107,0.));
#698=DIRECTION('',(0.,0.,-1.));
#699=DIRECTION('center_axis',(0.,0.,1.));
#700=DIRECTION('ref_axis',(-0.308222908551025,-0.951314164009107,0.));
#701=DIRECTION('',(0.,0.,1.));
#702=DIRECTION('center_axis',(0.454734187656181,-0.890627205163121,0.));
#703=DIRECTION('ref_axis',(0.890627205163121,0.454734187656181,0.));
#704=DIRECTION('',(0.890627205163121,0.454734187656181,0.));
#705=DIRECTION('',(0.,0.,-1.));
#706=DIRECTION('',(0.890627205163121,0.454734187656181,0.));
#707=DIRECTION('center_axis',(0.,0.,1.));
#708=DIRECTION('ref_axis',(1.,0.,0.));
#709=DIRECTION('',(0.454734187656183,-0.890627205163121,0.));
#710=DIRECTION('center_axis',(0.,0.,-1.));
#711=DIRECTION('ref_axis',(-0.890627205163119,-0.454734187656186,0.));
#712=DIRECTION('',(0.76604444311898,0.642787609686537,0.));
#713=DIRECTION('center_axis',(0.,0.,1.));
#714=DIRECTION('ref_axis',(0.0164608870841115,-0.999864510419489,0.));
#715=DIRECTION('',(0.786788148416405,-0.617223144018016,0.));
#716=DIRECTION('center_axis',(0.,0.,1.));
#717=DIRECTION('ref_axis',(-0.999864510419489,-0.0164608870841123,0.));
#718=DIRECTION('',(-0.766044443118978,-0.64278760968654,0.));
#719=DIRECTION('center_axis',(0.,0.,1.));
#720=DIRECTION('ref_axis',(-0.34202014332567,0.939692620785908,0.));
#721=DIRECTION('',(-1.,0.,0.));
#722=DIRECTION('center_axis',(0.,0.,1.));
#723=DIRECTION('ref_axis',(0.890627205163119,0.454734187656187,0.));
#724=DIRECTION('',(-0.454734187656183,0.890627205163121,0.));
#725=DIRECTION('center_axis',(0.,0.,1.));
#726=DIRECTION('ref_axis',(0.951314164009108,-0.308222908551022,0.));
#727=DIRECTION('center_axis',(0.,0.,-1.));
#728=DIRECTION('ref_axis',(-1.,0.,0.));
#729=DIRECTION('center_axis',(0.,0.,-1.));
#730=DIRECTION('ref_axis',(-1.,0.,0.));
#731=DIRECTION('center_axis',(0.,0.,1.));
#732=DIRECTION('ref_axis',(0.951314164009108,-0.308222908551022,0.));
#733=DIRECTION('center_axis',(0.,0.,-1.));
#734=DIRECTION('ref_axis',(0.951314164009108,-0.308222908551022,0.));
#735=DIRECTION('',(0.,0.,1.));
#736=DIRECTION('center_axis',(0.890627205163121,0.454734187656183,0.));
#737=DIRECTION('ref_axis',(-0.454734187656183,0.890627205163121,0.));
#738=DIRECTION('',(0.,0.,1.));
#739=DIRECTION('',(-0.454734187656183,0.890627205163121,0.));
#740=DIRECTION('center_axis',(0.766044443118978,0.642787609686539,0.));
#741=DIRECTION('ref_axis',(0.454519477672043,-0.541675220419702,0.707106781186548));
#742=DIRECTION('center_axis',(-0.766044443118978,-0.64278760968654,0.));
#743=DIRECTION('ref_axis',(0.454519477672043,-0.541675220419702,0.707106781186548));
#744=DIRECTION('',(-0.766044443118978,-0.642787609686539,0.));
#745=DIRECTION('center_axis',(0.766044443118978,0.642787609686539,0.));
#746=DIRECTION('ref_axis',(0.454519477672043,-0.541675220419702,0.707106781186548));
#747=DIRECTION('',(0.766044443118978,0.642787609686539,0.));
#748=DIRECTION('center_axis',(-0.766044443118978,-0.642787609686539,0.));
#749=DIRECTION('ref_axis',(0.642787609686539,-0.766044443118978,0.));
#750=DIRECTION('',(0.642787609686539,-0.766044443118978,0.));
#751=DIRECTION('',(0.,0.,1.));
#752=DIRECTION('',(-0.642787609686539,0.766044443118978,0.));
#753=DIRECTION('',(0.,0.,1.));
#754=DIRECTION('center_axis',(0.,0.,1.));
#755=DIRECTION('ref_axis',(1.,0.,0.));
#756=DIRECTION('',(-0.64278760968654,0.766044443118978,0.));
#757=DIRECTION('',(-0.766044443118978,-0.642787609686539,0.));
#758=DIRECTION('center_axis',(0.766044443118978,0.64278760968654,0.));
#759=DIRECTION('ref_axis',(-0.64278760968654,0.766044443118978,0.));
#760=DIRECTION('',(0.,0.,1.));
#761=DIRECTION('',(0.64278760968654,-0.766044443118978,0.));
#762=DIRECTION('',(0.,0.,1.));
#763=DIRECTION('center_axis',(-0.766044443118978,-0.642787609686539,0.));
#764=DIRECTION('ref_axis',(-0.454519477672042,0.541675220419703,0.707106781186548));
#765=DIRECTION('center_axis',(0.766044443118978,0.642787609686539,0.));
#766=DIRECTION('ref_axis',(-0.454519477672042,0.541675220419703,0.707106781186548));
#767=DIRECTION('',(0.766044443118978,0.642787609686539,0.));
#768=DIRECTION('center_axis',(-0.766044443118979,-0.642787609686539,0.));
#769=DIRECTION('ref_axis',(-0.454519477672042,0.541675220419703,0.707106781186548));
#770=DIRECTION('',(-0.766044443118978,-0.642787609686539,0.));
#771=DIRECTION('center_axis',(-0.766044443118978,-0.642787609686539,0.));
#772=DIRECTION('ref_axis',(0.642787609686539,-0.766044443118978,0.));
#773=DIRECTION('',(0.,0.,1.));
#774=DIRECTION('',(-0.642787609686539,0.766044443118978,0.));
#775=DIRECTION('',(0.,0.,1.));
#776=DIRECTION('',(0.642787609686539,-0.766044443118978,0.));
#777=DIRECTION('center_axis',(0.,0.,1.));
#778=DIRECTION('ref_axis',(-1.,0.,0.));
#779=DIRECTION('center_axis',(0.,0.,-1.));
#780=DIRECTION('ref_axis',(-1.,0.,0.));
#781=DIRECTION('',(0.,0.,-1.));
#782=DIRECTION('',(0.,0.,1.));
#783=DIRECTION('center_axis',(0.,0.,-1.));
#784=DIRECTION('ref_axis',(-1.,0.,0.));
#785=DIRECTION('',(0.,0.,1.));
#786=DIRECTION('center_axis',(-0.642787609686539,0.766044443118978,0.));
#787=DIRECTION('ref_axis',(-0.766044443118978,-0.642787609686539,0.));
#788=DIRECTION('',(0.,0.,1.));
#789=DIRECTION('',(0.766044443118978,0.642787609686539,0.));
#790=DIRECTION('center_axis',(0.642787609686539,-0.766044443118978,0.));
#791=DIRECTION('ref_axis',(0.766044443118978,0.642787609686539,0.));
#792=DIRECTION('',(-0.766044443118978,-0.642787609686539,0.));
#793=DIRECTION('center_axis',(0.766044443118979,0.642787609686539,0.));
#794=DIRECTION('ref_axis',(-0.642787609686538,0.766044443118979,0.));
#795=DIRECTION('',(-0.642787609686538,0.766044443118979,0.));
#796=DIRECTION('',(0.,0.,1.));
#797=DIRECTION('',(0.642787609686538,-0.766044443118979,0.));
#798=DIRECTION('center_axis',(0.,0.,1.));
#799=DIRECTION('ref_axis',(1.,0.,0.));
#800=DIRECTION('',(0.766044443118978,0.642787609686539,0.));
#801=DIRECTION('center_axis',(0.,0.,1.));
#802=DIRECTION('ref_axis',(1.,0.,0.));
#803=DIRECTION('',(-0.766044443118978,-0.64278760968654,0.));
#804=DIRECTION('center_axis',(0.,0.,-1.));
#805=DIRECTION('ref_axis',(-0.999864510419489,-0.0164608870841123,0.));
#806=DIRECTION('',(0.786788148416405,-0.617223144018016,0.));
#807=DIRECTION('center_axis',(0.,0.,-1.));
#808=DIRECTION('ref_axis',(0.0164608870841115,-0.999864510419489,0.));
#809=DIRECTION('',(0.76604444311898,0.642787609686537,0.));
#810=DIRECTION('center_axis',(0.,0.,1.));
#811=DIRECTION('ref_axis',(-0.999864510419489,-0.0164608870841123,0.));
#812=DIRECTION('',(0.,0.,-1.));
#813=DIRECTION('',(0.,0.,1.));
#814=DIRECTION('center_axis',(-0.617223144018016,-0.786788148416405,0.));
#815=DIRECTION('ref_axis',(0.786788148416405,-0.617223144018016,0.));
#816=DIRECTION('',(0.,0.,-1.));
#817=DIRECTION('center_axis',(0.,0.,1.));
#818=DIRECTION('ref_axis',(0.0164608870841115,-0.999864510419489,0.));
#819=DIRECTION('',(0.,0.,1.));
#820=DIRECTION('center_axis',(0.642787609686537,-0.76604444311898,0.));
#821=DIRECTION('ref_axis',(0.76604444311898,0.642787609686537,0.));
#822=DIRECTION('',(0.,0.,1.));
#823=DIRECTION('',(-0.766044443118978,-0.642787609686539,0.));
#824=DIRECTION('center_axis',(0.,0.,1.));
#825=DIRECTION('ref_axis',(-0.34202014332567,0.939692620785908,0.));
#826=DIRECTION('center_axis',(0.,0.,-1.));
#827=DIRECTION('ref_axis',(-0.34202014332567,0.939692620785908,0.));
#828=DIRECTION('',(0.,0.,-1.));
#829=DIRECTION('',(0.,0.,1.));
#830=DIRECTION('center_axis',(0.,1.,0.));
#831=DIRECTION('ref_axis',(-1.,0.,0.));
#832=DIRECTION('',(-1.,0.,0.));
#833=DIRECTION('center_axis',(0.,0.,1.));
#834=DIRECTION('ref_axis',(-1.,0.,0.));
#835=DIRECTION('center_axis',(0.,0.,-1.));
#836=DIRECTION('ref_axis',(-1.,0.,0.));
#837=DIRECTION('',(0.,0.,-1.));
#838=DIRECTION('center_axis',(-0.890627205163121,-0.454734187656183,0.));
#839=DIRECTION('ref_axis',(0.454734187656183,-0.890627205163121,0.));
#840=DIRECTION('',(0.454734187656183,-0.890627205163121,0.));
#841=DIRECTION('',(0.,0.,1.));
#842=DIRECTION('center_axis',(0.,0.,1.));
#843=DIRECTION('ref_axis',(-0.890627205163119,-0.454734187656186,0.));
#844=DIRECTION('center_axis',(0.,0.,-1.));
#845=DIRECTION('ref_axis',(-0.890627205163119,-0.454734187656186,0.));
#846=DIRECTION('center_axis',(-0.64278760968654,0.766044443118978,0.));
#847=DIRECTION('ref_axis',(-0.766044443118978,-0.64278760968654,0.));
#848=DIRECTION('',(-0.766044443118978,-0.64278760968654,0.));
#849=DIRECTION('center_axis',(0.,0.,1.));
#850=DIRECTION('ref_axis',(0.890627205163119,0.454734187656187,0.));
#851=DIRECTION('center_axis',(0.,0.,1.));
#852=DIRECTION('ref_axis',(0.890627205163119,0.454734187656187,0.));
#853=DIRECTION('center_axis',(0.,0.,1.));
#854=DIRECTION('ref_axis',(1.,0.,0.));
#855=CARTESIAN_POINT('',(0.,0.,0.));
#856=CARTESIAN_POINT('Origin',(30.7756171267436,37.0720967743093,0.));
#857=CARTESIAN_POINT('',(29.9849999999997,35.2349999999996,3.));
#858=CARTESIAN_POINT('',(30.459370276046,35.0972580645854,3.));
#859=CARTESIAN_POINT('Origin',(30.7756171267436,37.0720967743093,3.));
#860=CARTESIAN_POINT('',(30.459370276046,35.0972580645854,0.));
#861=CARTESIAN_POINT('',(30.459370276046,35.0972580645854,0.));
#862=CARTESIAN_POINT('',(29.9849999999997,35.2349999999996,0.));
#863=CARTESIAN_POINT('Origin',(30.7756171267436,37.0720967743093,0.));
#864=CARTESIAN_POINT('',(29.9849999999997,35.2349999999996,0.));
#865=CARTESIAN_POINT('Origin',(33.8464081198943,22.3730880032438,0.));
#866=CARTESIAN_POINT('',(34.7558764952067,20.5918335929176,3.));
#867=CARTESIAN_POINT('',(32.0651537095681,21.4636196279314,3.));
#868=CARTESIAN_POINT('Origin',(33.8464081198943,22.3730880032438,3.));
#869=CARTESIAN_POINT('',(32.0651537095681,21.4636196279314,0.));
#870=CARTESIAN_POINT('',(32.0651537095681,21.4636196279314,0.));
#871=CARTESIAN_POINT('',(34.7558764952067,20.5918335929176,0.));
#872=CARTESIAN_POINT('Origin',(33.8464081198943,22.3730880032438,0.));
#873=CARTESIAN_POINT('',(34.7558764952067,20.5918335929176,0.));
#874=CARTESIAN_POINT('Origin',(32.9746220848804,19.6823652176052,0.));
#875=CARTESIAN_POINT('',(36.5371309055329,21.5013019682299,0.));
#876=CARTESIAN_POINT('',(32.9746220848804,19.6823652176052,0.));
#877=CARTESIAN_POINT('',(36.5371309055329,21.5013019682299,3.));
#878=CARTESIAN_POINT('',(36.5371309055329,21.5013019682299,0.));
#879=CARTESIAN_POINT('',(32.9746220848804,19.6823652176052,3.));
#880=CARTESIAN_POINT('Origin',(29.9849999999997,32.1349999999997,0.));
#881=CARTESIAN_POINT('',(31.0322874424265,23.4865570313253,0.));
#882=CARTESIAN_POINT('',(31.0322874424265,23.4865570313253,0.));
#883=CARTESIAN_POINT('',(27.9654578127272,24.1091775422509,0.));
#884=CARTESIAN_POINT('Origin',(29.2510330321003,22.5770886560129,0.));
#885=CARTESIAN_POINT('',(2.86789709159539,3.04982359769978,0.));
#886=CARTESIAN_POINT('',(1.62471834662692,2.00667277130931,0.));
#887=CARTESIAN_POINT('',(0.347875584186279,3.00833618710494,0.));
#888=CARTESIAN_POINT('Origin',(1.58232187222232,4.58191248393774,0.));
#889=CARTESIAN_POINT('',(-4.23508454208238,6.60359758464655,0.));
#890=CARTESIAN_POINT('',(-27.9114968755662,25.1773771833265,0.));
#891=CARTESIAN_POINT('',(-4.28621347341943,9.70926276771731,0.));
#892=CARTESIAN_POINT('Origin',(-3.00063825404634,8.17717388147936,0.));
#893=CARTESIAN_POINT('',(25.5765408259281,34.7670888862376,0.));
#894=CARTESIAN_POINT('',(26.1341755767687,35.2349999999996,0.));
#895=CARTESIAN_POINT('',(26.8621160453011,35.2349999999996,0.));
#896=CARTESIAN_POINT('Origin',(26.8621160453011,33.2349999999996,0.));
#897=CARTESIAN_POINT('',(29.9849999999997,35.2349999999996,0.));
#898=CARTESIAN_POINT('',(32.656881615489,33.4992025629682,0.));
#899=CARTESIAN_POINT('Origin',(29.9849999999997,32.1349999999997,0.));
#900=CARTESIAN_POINT('',(37.4089169405467,24.1920247538685,0.));
#901=CARTESIAN_POINT('',(50.5168816154887,-1.48079743703142,0.));
#902=CARTESIAN_POINT('Origin',(35.6276625302205,23.2825563785561,0.));
#903=CARTESIAN_POINT('',(35.7953554562483,23.8887383057343,0.));
#904=CARTESIAN_POINT('Origin',(34.1953554562484,23.8887383057343,0.));
#905=CARTESIAN_POINT('',(2.17049179753607,6.64666770830089,0.));
#906=CARTESIAN_POINT('Origin',(0.570491797536086,6.64666770830089,0.));
#907=CARTESIAN_POINT('Origin',(35.6276625302205,23.2825563785561,0.));
#908=CARTESIAN_POINT('',(37.4089169405467,24.1920247538685,3.));
#909=CARTESIAN_POINT('Origin',(35.6276625302205,23.2825563785561,3.));
#910=CARTESIAN_POINT('',(37.4089169405467,24.1920247538685,0.));
#911=CARTESIAN_POINT('Origin',(38.3183853158591,22.4107703435423,0.));
#912=CARTESIAN_POINT('',(32.656881615489,33.4992025629682,3.));
#913=CARTESIAN_POINT('',(32.656881615489,33.4992025629682,0.));
#914=CARTESIAN_POINT('',(50.5168816154887,-1.48079743703142,3.));
#915=CARTESIAN_POINT('Origin',(5.51043835250279,15.3188151229564,11.));
#916=CARTESIAN_POINT('',(26.8784210944604,30.6378669820709,11.));
#917=CARTESIAN_POINT('',(25.5928458750873,32.1699558683089,13.));
#918=CARTESIAN_POINT('Origin',(25.5928458750873,32.1699558683089,11.));
#919=CARTESIAN_POINT('',(-1.21870963407693,9.67238952928001,13.));
#920=CARTESIAN_POINT('',(5.51043835250279,15.3188151229564,13.));
#921=CARTESIAN_POINT('',(0.050494421970485,8.15981103575036,11.3181624821131));
#922=CARTESIAN_POINT('Origin',(-1.21870963407693,9.67238952928,11.));
#923=CARTESIAN_POINT('',(0.114580307372605,8.18033804873813,11.));
#924=CARTESIAN_POINT('Ctrl Pts',(0.0504944219704778,8.15981103575035,11.3181624821131));
#925=CARTESIAN_POINT('Ctrl Pts',(0.0920691902541921,8.17409836068851,11.2202371582457));
#926=CARTESIAN_POINT('Ctrl Pts',(0.114580307372603,8.18033804873813,11.1027372393498));
#927=CARTESIAN_POINT('Ctrl Pts',(0.114580307372603,8.18033804873813,11.));
#928=CARTESIAN_POINT('',(6.79601357187587,13.7867262367184,11.));
#929=CARTESIAN_POINT('Origin',(-2.50428485345001,11.204478415518,3.));
#930=CARTESIAN_POINT('',(-2.50428485345001,11.204478415518,13.));
#931=CARTESIAN_POINT('',(-2.50428485345001,11.204478415518,13.));
#932=CARTESIAN_POINT('',(-2.50428485345001,11.204478415518,3.));
#933=CARTESIAN_POINT('',(-2.50428485345001,11.204478415518,3.));
#934=CARTESIAN_POINT('',(0.0504944219704849,8.15981103575036,3.));
#935=CARTESIAN_POINT('',(-0.945524899960157,9.34682064095444,3.));
#936=CARTESIAN_POINT('',(0.0504944219704849,8.15981103575036,3.));
#937=CARTESIAN_POINT('Origin',(12.1870681205052,20.9309278951486,13.));
#938=CARTESIAN_POINT('',(24.3072706557142,33.7020447545468,13.));
#939=CARTESIAN_POINT('',(26.8784210944604,30.6378669820709,13.));
#940=CARTESIAN_POINT('',(24.3072706557142,33.7020447545468,13.));
#941=CARTESIAN_POINT('Origin',(26.8784210944604,30.6378669820709,3.));
#942=CARTESIAN_POINT('',(26.8784210944604,30.6378669820709,3.));
#943=CARTESIAN_POINT('',(26.8784210944604,30.6378669820709,3.));
#944=CARTESIAN_POINT('',(24.3072706557142,33.7020447545468,3.));
#945=CARTESIAN_POINT('',(27.1516058285772,30.3122980937454,3.));
#946=CARTESIAN_POINT('',(24.3072706557142,33.7020447545468,3.));
#947=CARTESIAN_POINT('Origin',(22.6672174819904,22.2742406135055,11.));
#948=CARTESIAN_POINT('',(1.97035048116843,5.87181567993744,12.8585794553979));
#949=CARTESIAN_POINT('',(2.44517974113634,5.30593620350183,13.));
#950=CARTESIAN_POINT('Origin',(2.44517974113634,5.30593620350183,11.));
#951=CARTESIAN_POINT('',(29.2567352503006,27.8035025425307,13.));
#952=CARTESIAN_POINT('',(22.6672174819904,22.2742406135055,13.));
#953=CARTESIAN_POINT('',(27.9711600309275,29.3355914287686,11.));
#954=CARTESIAN_POINT('Origin',(29.2567352503006,27.8035025425307,11.));
#955=CARTESIAN_POINT('',(1.9323819938419,7.48646238154308,11.));
#956=CARTESIAN_POINT('',(21.3816422626173,23.8063294997435,11.));
#957=CARTESIAN_POINT('',(2.17049179753607,6.64666770872741,12.5972741247352));
#958=CARTESIAN_POINT('Ctrl Pts',(1.93238199384193,7.4864623815431,11.));
#959=CARTESIAN_POINT('Ctrl Pts',(1.93238199384192,7.4864623815431,11.2081204038642));
#960=CARTESIAN_POINT('Ctrl Pts',(1.95177170651737,7.45745717920512,11.4321533584091));
#961=CARTESIAN_POINT('Ctrl Pts',(2.01977688822371,7.32849398924507,11.852397297332));
#962=CARTESIAN_POINT('Ctrl Pts',(2.06721788870446,7.22754226540626,12.0484919670052));
#963=CARTESIAN_POINT('Ctrl Pts',(2.13914926823727,6.98424810710119,12.3550904555106));
#964=CARTESIAN_POINT('Ctrl Pts',(2.17049179744599,6.81562495496513,12.4997430823593));
#965=CARTESIAN_POINT('Ctrl Pts',(2.17049179753607,6.64666770915393,12.5972741247351));
#966=CARTESIAN_POINT('Ctrl Pts',(2.17049179753607,6.64666770915393,12.5972741247351));
#967=CARTESIAN_POINT('Ctrl Pts',(2.1704917975452,6.62953466440468,12.6071642227031));
#968=CARTESIAN_POINT('Ctrl Pts',(2.17021579018779,6.61244028038125,12.6166444050189));
#969=CARTESIAN_POINT('Ctrl Pts',(2.16333837237591,6.3976317819876,12.7313898391872));
#970=CARTESIAN_POINT('Ctrl Pts',(2.11576626454986,6.17219553434,12.8013143172592));
#971=CARTESIAN_POINT('Ctrl Pts',(2.00285737765019,5.93286571682607,12.8481528924081));
#972=CARTESIAN_POINT('Ctrl Pts',(1.98711344594356,5.90209989027035,12.8536414545491));
#973=CARTESIAN_POINT('Ctrl Pts',(1.97035048116846,5.87181567993743,12.8585794553979));
#974=CARTESIAN_POINT('Origin',(1.97035048116844,5.87181567993744,3.));
#975=CARTESIAN_POINT('',(1.97035048116844,5.87181567993744,3.));
#976=CARTESIAN_POINT('',(1.97035048116844,5.87181567993744,3.));
#977=CARTESIAN_POINT('',(3.73075496050942,3.77384731726388,3.));
#978=CARTESIAN_POINT('',(1.29179276734906,6.68048927316419,3.));
#979=CARTESIAN_POINT('',(3.73075496050942,3.77384731726388,13.));
#980=CARTESIAN_POINT('',(3.73075496050942,3.77384731726388,3.));
#981=CARTESIAN_POINT('',(1.15960452176326,6.83802508973979,13.));
#982=CARTESIAN_POINT('Origin',(0.570491797536086,6.64666770830089,0.));
#983=CARTESIAN_POINT('Origin',(0.570491797536086,6.64666770830089,3.));
#984=CARTESIAN_POINT('',(2.17049179753607,6.64666770830089,0.));
#985=CARTESIAN_POINT('',(1.9323819938419,7.48646238154308,3.));
#986=CARTESIAN_POINT('',(1.9323819938419,7.48646238154308,3.));
#987=CARTESIAN_POINT('',(0.114580307372605,8.18033804873813,3.));
#988=CARTESIAN_POINT('Origin',(0.570491797536086,6.64666770830089,3.));
#989=CARTESIAN_POINT('',(0.114580307372605,8.18033804873813,3.));
#990=CARTESIAN_POINT('Origin',(27.9711600309275,29.3355914287686,3.));
#991=CARTESIAN_POINT('',(27.9711600309275,29.3355914287686,3.));
#992=CARTESIAN_POINT('',(27.9711600309275,29.3355914287686,3.));
#993=CARTESIAN_POINT('',(29.2512647495804,30.4097268260586,3.));
#994=CARTESIAN_POINT('Origin',(0.114580307372605,8.18033804873813,3.));
#995=CARTESIAN_POINT('',(14.7766054195694,20.4832379126944,3.));
#996=CARTESIAN_POINT('Origin',(30.5423104696737,26.2714136562927,3.));
#997=CARTESIAN_POINT('',(30.5423104696737,26.2714136562927,13.));
#998=CARTESIAN_POINT('',(30.5423104696737,26.2714136562927,13.));
#999=CARTESIAN_POINT('',(30.5423104696737,26.2714136562927,3.));
#1000=CARTESIAN_POINT('',(30.5423104696737,26.2714136562927,3.));
#1001=CARTESIAN_POINT('',(28.9835505161838,28.1290714308563,3.));
#1002=CARTESIAN_POINT('Origin',(16.2373462317578,16.5547193730163,13.));
#1003=CARTESIAN_POINT('',(3.73075496050942,3.77384731726388,13.));
#1004=CARTESIAN_POINT('Origin',(29.9849999999997,32.1349999999997,3.));
#1005=CARTESIAN_POINT('',(-4.28621347341943,9.70926276771731,3.));
#1006=CARTESIAN_POINT('',(26.1341755767687,35.2349999999996,3.));
#1007=CARTESIAN_POINT('',(-4.23508454208238,6.60359758464655,3.));
#1008=CARTESIAN_POINT('Origin',(-3.00063825404634,8.17717388147936,3.));
#1009=CARTESIAN_POINT('',(0.347875584186279,3.00833618710494,3.));
#1010=CARTESIAN_POINT('',(-27.9114968755662,25.1773771833265,3.));
#1011=CARTESIAN_POINT('',(2.86789709159539,3.04982359769978,3.));
#1012=CARTESIAN_POINT('Origin',(1.58232187222232,4.58191248393774,3.));
#1013=CARTESIAN_POINT('',(1.62471834662692,2.00667277130931,3.));
#1014=CARTESIAN_POINT('Origin',(-3.00063825404634,8.17717388147936,0.));
#1015=CARTESIAN_POINT('',(-4.28621347341942,9.70926276771731,0.));
#1016=CARTESIAN_POINT('',(-4.23508454208237,6.60359758464655,0.));
#1017=CARTESIAN_POINT('Origin',(-6.17435414895313,8.12492462326617,0.));
#1018=CARTESIAN_POINT('',(0.347875584186284,3.00833618710493,0.));
#1019=CARTESIAN_POINT('Origin',(1.58232187222232,4.58191248393774,0.));
#1020=CARTESIAN_POINT('',(2.86789709159539,3.04982359769978,0.));
#1021=CARTESIAN_POINT('Origin',(1.62471834662692,2.00667277130931,0.));
#1022=CARTESIAN_POINT('',(27.9654578127272,24.1091775422509,3.));
#1023=CARTESIAN_POINT('',(27.9654578127272,24.1091775422509,0.));
#1024=CARTESIAN_POINT('',(18.4166374337444,16.0967658840682,3.));
#1025=CARTESIAN_POINT('Origin',(26.8621160453011,33.2349999999996,0.));
#1026=CARTESIAN_POINT('',(25.5765408259281,34.7670888862376,3.));
#1027=CARTESIAN_POINT('',(26.8621160453011,35.2349999999996,3.));
#1028=CARTESIAN_POINT('Origin',(26.8621160453011,33.2349999999996,3.));
#1029=CARTESIAN_POINT('',(26.8621160453011,35.2349999999996,0.));
#1030=CARTESIAN_POINT('',(25.5765408259281,34.7670888862376,0.));
#1031=CARTESIAN_POINT('Origin',(29.9849999999997,35.2349999999996,0.));
#1032=CARTESIAN_POINT('',(29.9849999999997,35.2349999999996,3.));
#1033=CARTESIAN_POINT('Origin',(34.1953554562484,23.8887383057343,0.));
#1034=CARTESIAN_POINT('',(35.7953554562483,23.8887383057343,3.));
#1035=CARTESIAN_POINT('Origin',(34.1953554562484,23.8887383057343,3.));
#1036=CARTESIAN_POINT('',(35.7953554562483,23.8887383057343,0.));
#1037=CARTESIAN_POINT('Origin',(31.0322874424265,23.4865570313253,0.));
#1038=CARTESIAN_POINT('',(31.0322874424265,23.4865570313253,3.));
#1039=CARTESIAN_POINT('',(31.0322874424265,23.4865570313253,3.));
#1040=CARTESIAN_POINT('',(31.0322874424265,23.4865570313253,0.));
#1041=CARTESIAN_POINT('Origin',(29.2510330321003,22.5770886560129,0.));
#1042=CARTESIAN_POINT('Origin',(29.2510330321003,22.5770886560129,3.));
#1043=CARTESIAN_POINT('Origin',(26.1341755767687,35.2349999999996,0.));
#1044=CARTESIAN_POINT('',(26.1341755767687,35.2349999999996,3.));
#1045=CARTESIAN_POINT('Origin',(29.9849999999997,32.1349999999997,0.));
#1046=CARTESIAN_POINT('Origin',(29.9849999999997,32.1349999999997,3.));
#1047=CARTESIAN_POINT('Origin',(29.9849999999997,32.1349999999997,3.));
#1048=UNCERTAINTY_MEASURE_WITH_UNIT(LENGTH_MEASURE(0.01),#1052,
'DISTANCE_ACCURACY_VALUE',
'Maximum model space distance between geometric entities at asserted c
onnectivities');
#1049=UNCERTAINTY_MEASURE_WITH_UNIT(LENGTH_MEASURE(0.01),#1052,
'DISTANCE_ACCURACY_VALUE',
'Maximum model space distance between geometric entities at asserted c
onnectivities');
#1050=(
GEOMETRIC_REPRESENTATION_CONTEXT(3)
GLOBAL_UNCERTAINTY_ASSIGNED_CONTEXT((#1048))
GLOBAL_UNIT_ASSIGNED_CONTEXT((#1052,#1054,#1055))
REPRESENTATION_CONTEXT('','3D')
);
#1051=(
GEOMETRIC_REPRESENTATION_CONTEXT(3)
GLOBAL_UNCERTAINTY_ASSIGNED_CONTEXT((#1049))
GLOBAL_UNIT_ASSIGNED_CONTEXT((#1052,#1054,#1055))
REPRESENTATION_CONTEXT('','3D')
);
#1052=(
LENGTH_UNIT()
NAMED_UNIT(*)
SI_UNIT(.MILLI.,.METRE.)
);
#1053=(
LENGTH_UNIT()
NAMED_UNIT(*)
SI_UNIT(.CENTI.,.METRE.)
);
#1054=(
NAMED_UNIT(*)
PLANE_ANGLE_UNIT()
SI_UNIT($,.RADIAN.)
);
#1055=(
NAMED_UNIT(*)
SI_UNIT($,.STERADIAN.)
SOLID_ANGLE_UNIT()
);
#1056=SHAPE_DEFINITION_REPRESENTATION(#1057,#1058);
#1057=PRODUCT_DEFINITION_SHAPE('',$,#1060);
#1058=SHAPE_REPRESENTATION('',(#628),#1050);
#1059=PRODUCT_DEFINITION_CONTEXT('part definition',#1064,'design');
#1060=PRODUCT_DEFINITION('skr-mini-mount-clip','skr-mini-mount-clip',#1061,
#1059);
#1061=PRODUCT_DEFINITION_FORMATION('',$,#1066);
#1062=PRODUCT_RELATED_PRODUCT_CATEGORY('skr-mini-mount-clip',
'skr-mini-mount-clip',(#1066));
#1063=APPLICATION_PROTOCOL_DEFINITION('international standard',
'automotive_design',2009,#1064);
#1064=APPLICATION_CONTEXT(
'Core Data for Automotive Mechanical Design Process');
#1065=PRODUCT_CONTEXT('part definition',#1064,'mechanical');
#1066=PRODUCT('skr-mini-mount-clip','skr-mini-mount-clip',$,(#1065));
#1067=PRESENTATION_STYLE_ASSIGNMENT((#1068));
#1068=SURFACE_STYLE_USAGE(.BOTH.,#1071);
#1069=SURFACE_STYLE_RENDERING_WITH_PROPERTIES($,#1075,(#1070));
#1070=SURFACE_STYLE_TRANSPARENT(0.);
#1071=SURFACE_SIDE_STYLE('',(#1072,#1069));
#1072=SURFACE_STYLE_FILL_AREA(#1073);
#1073=FILL_AREA_STYLE('',(#1074));
#1074=FILL_AREA_STYLE_COLOUR('',#1075);
#1075=COLOUR_RGB('',0.749019607843137,0.749019607843137,0.749019607843137);
ENDSEC;
END-ISO-10303-21;
